<?xml version="1.0" encoding="UTF-8"?>
<svg xmlns="http://www.w3.org/2000/svg" xmlns:xlink="http://www.w3.org/1999/xlink" width="450pt" height="449.999984pt" viewBox="0 0 450 449.999984" version="1.2">
<g id="surface1">
<path style=" stroke:none;fill-rule:nonzero;fill:rgb(100%,100%,100%);fill-opacity:1;" d="M 225 8.03125 C 221.449219 8.03125 217.902344 8.117188 214.355469 8.292969 C 210.808594 8.464844 207.265625 8.726562 203.734375 9.074219 C 200.199219 9.421875 196.675781 9.859375 193.164062 10.378906 C 189.652344 10.898438 186.152344 11.507812 182.671875 12.199219 C 179.1875 12.894531 175.726562 13.671875 172.28125 14.53125 C 168.835938 15.394531 165.414062 16.34375 162.015625 17.375 C 158.621094 18.402344 155.25 19.519531 151.90625 20.714844 C 148.5625 21.910156 145.25 23.1875 141.96875 24.546875 C 138.6875 25.90625 135.445312 27.34375 132.234375 28.863281 C 129.023438 30.378906 125.851562 31.976562 122.722656 33.648438 C 119.589844 35.324219 116.5 37.074219 113.457031 38.898438 C 110.410156 40.726562 107.410156 42.625 104.457031 44.597656 C 101.507812 46.570312 98.605469 48.613281 95.75 50.730469 C 92.898438 52.84375 90.101562 55.027344 87.355469 57.28125 C 84.613281 59.535156 81.921875 61.851562 79.292969 64.238281 C 76.660156 66.621094 74.089844 69.070312 71.578125 71.578125 C 69.070312 74.089844 66.621094 76.660156 64.238281 79.292969 C 61.851562 81.921875 59.535156 84.613281 57.28125 87.355469 C 55.027344 90.101562 52.84375 92.898438 50.730469 95.75 C 48.613281 98.605469 46.570312 101.507812 44.597656 104.457031 C 42.625 107.410156 40.726562 110.410156 38.898438 113.457031 C 37.074219 116.5 35.324219 119.589844 33.648438 122.722656 C 31.976562 125.851562 30.378906 129.023438 28.863281 132.234375 C 27.34375 135.445312 25.90625 138.6875 24.546875 141.96875 C 23.1875 145.25 21.910156 148.5625 20.714844 151.90625 C 19.519531 155.25 18.402344 158.621094 17.375 162.015625 C 16.34375 165.414062 15.394531 168.835938 14.53125 172.28125 C 13.671875 175.726562 12.894531 179.1875 12.199219 182.671875 C 11.507812 186.152344 10.898438 189.652344 10.378906 193.164062 C 9.859375 196.675781 9.421875 200.199219 9.074219 203.734375 C 8.726562 207.265625 8.464844 210.808594 8.292969 214.355469 C 8.117188 217.902344 8.03125 221.449219 8.03125 225 C 8.03125 228.550781 8.117188 232.097656 8.292969 235.644531 C 8.464844 239.191406 8.726562 242.734375 9.074219 246.265625 C 9.421875 249.800781 9.859375 253.324219 10.378906 256.835938 C 10.898438 260.347656 11.507812 263.847656 12.199219 267.328125 C 12.894531 270.8125 13.671875 274.273438 14.53125 277.71875 C 15.394531 281.164062 16.34375 284.585938 17.375 287.984375 C 18.402344 291.378906 19.519531 294.75 20.714844 298.09375 C 21.910156 301.4375 23.1875 304.75 24.546875 308.03125 C 25.90625 311.3125 27.34375 314.554688 28.863281 317.765625 C 30.378906 320.976562 31.976562 324.148438 33.648438 327.277344 C 35.324219 330.410156 37.074219 333.5 38.898438 336.542969 C 40.726562 339.589844 42.625 342.589844 44.597656 345.542969 C 46.570312 348.492188 48.613281 351.394531 50.730469 354.25 C 52.84375 357.101562 55.027344 359.898438 57.28125 362.644531 C 59.535156 365.386719 61.851562 368.078125 64.238281 370.707031 C 66.621094 373.339844 69.070312 375.910156 71.578125 378.421875 C 74.089844 380.929688 76.660156 383.378906 79.292969 385.761719 C 81.921875 388.148438 84.613281 390.464844 87.355469 392.71875 C 90.101562 394.972656 92.898438 397.15625 95.75 399.269531 C 98.605469 401.386719 101.507812 403.429688 104.457031 405.402344 C 107.410156 407.375 110.410156 409.273438 113.457031 411.101562 C 116.5 412.925781 119.589844 414.675781 122.722656 416.351562 C 125.851562 418.023438 129.023438 419.621094 132.234375 421.136719 C 135.445312 422.65625 138.6875 424.09375 141.96875 425.453125 C 145.25 426.8125 148.5625 428.089844 151.90625 429.285156 C 155.25 430.480469 158.621094 431.59375 162.015625 432.625 C 165.414062 433.65625 168.835938 434.605469 172.28125 435.464844 C 175.726562 436.328125 179.1875 437.105469 182.671875 437.800781 C 186.152344 438.492188 189.652344 439.101562 193.164062 439.621094 C 196.675781 440.140625 200.199219 440.578125 203.734375 440.925781 C 207.265625 441.273438 210.808594 441.535156 214.355469 441.707031 C 217.902344 441.882812 221.449219 441.96875 225 441.96875 C 228.550781 441.96875 232.097656 441.882812 235.644531 441.707031 C 239.191406 441.535156 242.734375 441.273438 246.265625 440.925781 C 249.800781 440.578125 253.324219 440.140625 256.835938 439.621094 C 260.347656 439.101562 263.847656 438.492188 267.328125 437.800781 C 270.8125 437.105469 274.273438 436.328125 277.71875 435.464844 C 281.164062 434.605469 284.585938 433.65625 287.984375 432.625 C 291.378906 431.59375 294.75 430.480469 298.09375 429.285156 C 301.4375 428.089844 304.75 426.8125 308.03125 425.453125 C 311.3125 424.09375 314.554688 422.65625 317.765625 421.136719 C 320.976562 419.621094 324.148438 418.023438 327.277344 416.347656 C 330.410156 414.675781 333.5 412.925781 336.542969 411.101562 C 339.589844 409.273438 342.589844 407.375 345.542969 405.402344 C 348.492188 403.429688 351.394531 401.386719 354.25 399.269531 C 357.101562 397.15625 359.898438 394.972656 362.644531 392.71875 C 365.386719 390.464844 368.078125 388.148438 370.707031 385.761719 C 373.339844 383.378906 375.910156 380.929688 378.421875 378.421875 C 380.929688 375.910156 383.378906 373.339844 385.761719 370.707031 C 388.148438 368.078125 390.464844 365.386719 392.71875 362.644531 C 394.972656 359.898438 397.15625 357.101562 399.269531 354.25 C 401.386719 351.394531 403.429688 348.492188 405.402344 345.542969 C 407.375 342.589844 409.273438 339.589844 411.101562 336.542969 C 412.925781 333.5 414.675781 330.410156 416.351562 327.277344 C 418.023438 324.148438 419.621094 320.976562 421.136719 317.765625 C 422.65625 314.554688 424.09375 311.3125 425.453125 308.03125 C 426.8125 304.75 428.089844 301.4375 429.285156 298.09375 C 430.480469 294.75 431.59375 291.378906 432.625 287.984375 C 433.65625 284.585938 434.605469 281.164062 435.464844 277.71875 C 436.328125 274.273438 437.105469 270.8125 437.800781 267.328125 C 438.492188 263.847656 439.101562 260.347656 439.621094 256.835938 C 440.140625 253.324219 440.578125 249.800781 440.925781 246.265625 C 441.273438 242.734375 441.535156 239.191406 441.707031 235.644531 C 441.882812 232.097656 441.96875 228.550781 441.96875 225 C 441.96875 221.449219 441.882812 217.902344 441.707031 214.355469 C 441.535156 210.808594 441.273438 207.265625 440.925781 203.734375 C 440.578125 200.199219 440.140625 196.675781 439.621094 193.164062 C 439.101562 189.652344 438.492188 186.152344 437.800781 182.671875 C 437.105469 179.1875 436.328125 175.726562 435.464844 172.28125 C 434.605469 168.835938 433.65625 165.414062 432.625 162.015625 C 431.59375 158.621094 430.480469 155.25 429.285156 151.90625 C 428.089844 148.5625 426.8125 145.25 425.453125 141.96875 C 424.09375 138.6875 422.65625 135.445312 421.136719 132.234375 C 419.621094 129.023438 418.023438 125.851562 416.351562 122.722656 C 414.675781 119.589844 412.925781 116.5 411.101562 113.457031 C 409.273438 110.410156 407.375 107.410156 405.402344 104.457031 C 403.429688 101.507812 401.386719 98.605469 399.269531 95.75 C 397.15625 92.898438 394.972656 90.101562 392.71875 87.355469 C 390.464844 84.613281 388.148438 81.921875 385.761719 79.292969 C 383.378906 76.660156 380.929688 74.089844 378.421875 71.578125 C 375.910156 69.070312 373.339844 66.621094 370.707031 64.238281 C 368.078125 61.851562 365.386719 59.535156 362.644531 57.28125 C 359.898438 55.027344 357.101562 52.84375 354.25 50.730469 C 351.394531 48.613281 348.492188 46.570312 345.542969 44.597656 C 342.589844 42.625 339.589844 40.726562 336.542969 38.898438 C 333.5 37.074219 330.410156 35.324219 327.277344 33.648438 C 324.148438 31.976562 320.976562 30.378906 317.765625 28.863281 C 314.554688 27.34375 311.3125 25.90625 308.03125 24.546875 C 304.75 23.1875 301.4375 21.910156 298.09375 20.714844 C 294.75 19.519531 291.378906 18.402344 287.984375 17.375 C 284.585938 16.34375 281.164062 15.394531 277.71875 14.53125 C 274.273438 13.671875 270.8125 12.894531 267.328125 12.199219 C 263.847656 11.507812 260.347656 10.898438 256.835938 10.378906 C 253.324219 9.859375 249.800781 9.421875 246.265625 9.074219 C 242.734375 8.726562 239.191406 8.464844 235.644531 8.292969 C 232.097656 8.117188 228.550781 8.03125 225 8.03125 Z M 225 8.03125 "/>
<path style=" stroke:none;fill-rule:nonzero;fill:rgb(0%,0%,0%);fill-opacity:1;" d="M 330.257812 89.84375 L 363.996094 89.84375 L 363.996094 360.183594 L 330.257812 360.183594 Z M 330.257812 89.84375 "/>
<path style=" stroke:none;fill-rule:nonzero;fill:rgb(0%,0%,0%);fill-opacity:1;" d="M 288.914062 137.347656 L 288.824219 170.386719 L 45.082031 169.710938 L 45.175781 136.671875 Z M 288.914062 137.347656 "/>
<path style=" stroke:none;fill-rule:nonzero;fill:rgb(0%,0%,0%);fill-opacity:1;" d="M 266.316406 93.980469 L 325.972656 153.636719 L 266.433594 213.179688 Z M 266.316406 93.980469 "/>
<path style=" stroke:none;fill-rule:nonzero;fill:rgb(0%,0%,0%);fill-opacity:1;" d="M 325.988281 283.71875 L 325.988281 317.457031 L 82.460938 317.457031 L 82.460938 283.71875 Z M 325.988281 283.71875 "/>
<path style=" stroke:none;fill-rule:nonzero;fill:rgb(0%,0%,0%);fill-opacity:1;" d="M 104.679688 360.144531 L 45.023438 300.488281 L 104.5625 240.949219 Z M 104.679688 360.144531 "/>
</g>
</svg>
