<?xml version="1.0" encoding="utf-8"?>
<!-- Generator: Adobe Illustrator 24.3.0, SVG Export Plug-In . SVG Version: 6.00 Build 0)  -->
<svg version="1.1" id="Ebene_1" xmlns="http://www.w3.org/2000/svg" xmlns:xlink="http://www.w3.org/1999/xlink" x="0px" y="0px"
	 viewBox="0 0 94 94" style="enable-background:new 0 0 94 94;" xml:space="preserve">
<style type="text/css">
	.st0{fill:#FFFFFF;}
</style>
<g>
	<path class="st0" d="M47,0c26,0,47,21,47,47S73,94,47,94S0,73,0,47S21,0,47,0"/>
	<path d="M72.8,25.7c-3.9,0-7,3.1-7,7c0,1.3,0.3,2.5,0.9,3.6L57.7,44c-1.1-0.8-2.5-1.1-3.8-1.1c-3.9,0-7,3.1-7,7
		c0,0.9,0.2,1.7,0.6,2.8l-5.2,4.4l-9.6-7.7l-7.5,6c-1.1-0.8-2.5-1.1-3.8-1.1c-3.9,0-7,3.1-7,7.1s3.1,7,7,7s7.1-3.1,7.1-7
		c0-0.9-0.2-1.9-0.6-2.8l4.9-3.9l9.7,7.8l7.7-6.6c1.1,0.8,2.5,1.1,3.8,1.1c3.9,0,7-3.1,7-7.1c0-1.1-0.3-2-0.6-2.8l9.6-8.1
		c0.9,0.5,2,0.6,3,0.6c3.9,0,7-3.1,7-7C79.6,28.8,76.6,25.7,72.8,25.7"/>
	<path d="M72.8,26.5c-3.4,0-6.3,2.8-6.3,6.3c0,1.4,0.5,2.7,1.3,3.8L57.7,45c-1.1-0.8-2.3-1.4-3.8-1.4c-3.4,0-6.3,2.8-6.3,6.3
		c0,1.1,0.3,2,0.8,3L42.3,58l-9.6-7.8l-7.8,6.3c-1.1-0.8-2.3-1.4-3.8-1.4c-3.4,0-6.3,2.8-6.3,6.3s2.8,6.3,6.3,6.3
		c3.4,0,6.3-2.8,6.3-6.3c0-1.1-0.3-2.2-0.8-3l5.8-4.7l9.6,7.8l7.7-6.6c1.1,0.8,2.4,1.4,3.8,1.4c3.4,0,6.3-2.8,6.3-6.3
		c0-1.1-0.3-2-0.8-3l10.3-8.8c0.9,0.5,2,0.8,3.1,0.8c3.4,0,6.3-2.8,6.3-6.3C78.8,29.3,76.1,26.5,72.8,26.5"/>
</g>
</svg>
