<?xml version="1.0" encoding="utf-8"?>
<!-- Generator: Adobe Illustrator 24.3.0, SVG Export Plug-In . SVG Version: 6.00 Build 0)  -->
<svg version="1.1" id="Ebene_1" xmlns="http://www.w3.org/2000/svg" xmlns:xlink="http://www.w3.org/1999/xlink" x="0px" y="0px"
	 viewBox="0 0 94 94" style="enable-background:new 0 0 94 94;" xml:space="preserve">
<style type="text/css">
	.st0{fill:#FFFFFF;}
</style>
<g>
	<path class="st0" d="M47,0c26,0,47,21,47,47S73,94,47,94S0,73,0,47S21,0,47,0"/>
	<path d="M74.4,30.1c0-0.2,0-0.2,0-0.3c0-0.2,0-0.2-0.2-0.3v-0.2l-0.2-0.2L73.9,29l0,0l0,0c0,0-0.2-0.2-0.3-0.3c0,0-0.2-0.2-0.3-0.2
		c-0.2,0-0.2-0.2-0.3-0.2L47.9,16.3c-0.3-0.2-0.6-0.2-0.9-0.2s-0.6,0.2-0.9,0.2L21,28.4c-0.8,0.3-1.3,1.3-1.3,2v31.2
		c0,0.8,0.5,1.6,1.3,2l25.1,13.9v0.2h0.2c0,0,0.2,0,0.2,0.2c0,0,0.2,0,0.3,0.2c0,0,0.2,0,0.3,0c0.2,0,0.2,0,0.3,0c0.2,0,0.2,0,0.3,0
		h0.2h0.2c0,0,0.2,0,0.3-0.2h0.2h0.3v-0.2l24.9-13.8c0.8-0.5,1.3-1.3,1.3-2V30.5C74.4,30.4,74.4,30.2,74.4,30.1 M44.7,65.8v6
		L24.4,60.3V34.2c1.9,0.5,3.6,1.4,5,2.8l3.6,3.9c-0.8,1.1-1.4,2-1.6,2.7c-0.5,2-0.3,4.1,0.8,5.8l0.2,0.3l13.2-7.8l-0.2-0.2
		c-1.1-1.7-2.7-3.1-4.7-3.6c-0.5-0.2-0.9-0.2-1.6-0.2c-1.1,0-2.2,0.2-2.5,0.3h-0.2l0,0l-3.9-4.5c-1.4-1.4-3.1-2.5-5-3.3L47,21
		l19.9,9.7L54,37.9c-1.1,0.6-1.6,2-0.9,3.1c0.5,0.8,1.1,1.3,2,1.3c0.3,0,0.8-0.2,1.1-0.3l13.3-7.5v10.2h-0.2v0.5
		c0,6-4.9,10.8-10.7,10.8c-1.9,0-3.8-0.5-5.5-1.6c0.2-0.6,0.3-1.3,0.3-1.9c0-1.6-0.6-3.1-1.7-4.2l-0.3-0.3l-1.4,1.6l-2.8-2.8l0,0
		c-0.2-0.2-0.5-0.2-0.6-0.2c-0.3,0-0.6,0.2-0.9,0.5c-0.5,0.5-0.5,1.4,0,1.9l2.5,2.5l-1.9,1.9l-2.8-3l0,0c-0.2-0.2-0.3-0.2-0.6-0.2
		s-0.6,0.2-0.9,0.5c-0.5,0.5-0.5,1.4,0,1.9l2.5,2.7l-1.4,1.4l0.3,0.3c1.1,1.1,2.7,1.7,4.2,1.7c0.9,0,1.9-0.2,2.7-0.6
		c2.5,1.7,5.3,2.5,8.3,2.5c4.1,0,8-1.7,10.8-4.5v4.4L49.2,71.8v-6c0-1.3-1.1-2.4-2.4-2.4C45.7,63.5,44.7,64.5,44.7,65.8"/>
</g>
</svg>
