<?xml version="1.0" encoding="utf-8"?>
<!-- Generator: Adobe Illustrator 24.3.0, SVG Export Plug-In . SVG Version: 6.00 Build 0)  -->
<svg version="1.1" id="Ebene_1" xmlns="http://www.w3.org/2000/svg" xmlns:xlink="http://www.w3.org/1999/xlink" x="0px" y="0px"
	 viewBox="0 0 94 94" style="enable-background:new 0 0 94 94;" xml:space="preserve">
<style type="text/css">
	.st0{fill:#FFFFFF;}
</style>
<g>
	<path class="st0" d="M47,0c26,0,47,21,47,47S73,94,47,94S0,73,0,47S21,0,47,0"/>
	<g id="Shape_1_">
		<path d="M21.1,35.2v7c3.1,0,9.2,0,12.4,0c0-0.5,0-1.3,0-1.6c0.6,0,1.9,0,2.7,0c0,7.7,0,22.9,0,30.5c-0.6,0-1.9,0-2.5,0
			c0,0.9,0,3.1,0,4.1c4.5,0,13.5,0,18,0c0-0.9,0-3.1,0-4.1c-0.6,0-1.9,0-2.5,0c0-7.7,0-22.9,0-30.5c4.2,0,12.7,0,16.9,0
			c0.8,0.6,1.4,1.3,1.7,2.2c0,1.7,3.3,3,3.3,4.4c0,1.3-1.4,2-2.5,1.4c-1.1-0.9-0.6-2.5-2.5-3.1c-0.5,10,12.2,2.5,4.5-1.7
			c0.2-1.7,1.3-2.2,2-3.6c1.7-3.3-2.4-6.7-5.3-4.7c-1.4-1.4-4.2-4.2-5.6-5.6c-7.1,0-21.2,0-28,0c0-0.5,0-1.3,0-1.6
			c-3.1,0-9.2,0-12.4,0v6.9H21.1z M41.8,34.6l-2.8,3c-1.1-1.1-5.6-5.5-5-6c2.7,0,8,0,10.7,0L41.8,34.6z M48.7,34.6l3,3
			c-3,0-8.8,0-11.8,0c1.1-1.1,5.6-5.6,5.8-5.8C45.9,31.6,47.2,33.1,48.7,34.6z M57,34.6l-3,3c-1.4-1.4-4.4-4.4-6-6c3,0,8.8,0,11.8,0
			L57,34.6z M65.6,37.1v0.5c-2.7,0-7.8,0-10.3,0c1.4-1.4,4.2-4.4,5.8-6c1.3,1.3,3.6,3.8,4.9,5L65.6,37.1z M34.6,35.9l1.7,1.7
			c-0.9,0-2.7,0-3.4,0C33.2,35.2,31.8,32.4,34.6,35.9z M44.5,43.6c1.4,1.4,2.5,2.5,2.5,2.5c0,0.2-8,8-8.1,8
			c-0.2-0.5-0.2-10.7-0.2-12.8c0.8,0,2.5,0,3.3,0L44.5,43.6z M47,41.7c0.6,4.2-2.2-0.9-3.4-1.7c0.9,0,2.7,0,3.4,0V41.7z M47,56.4
			c0,4.5,0,8.1-0.2,8.1c-0.3-0.3-6.6-6.6-8.1-8.1c1.4-1.6,7.7-8,8.1-8.3C47,48.3,47,51.9,47,56.4z M42.9,61.6
			c6.1,5.8,3.8,3.8-0.6,8.9c-0.9,0-2.7,0-3.6,0c0-2.3,0-12.4,0.2-12.8C38.9,57.7,40.7,59.4,42.9,61.6z M47,70.5v1.3
			c-0.6,0-1.7,0-2.3,0C45.6,71.1,47.5,67.7,47,70.5z"/>
		<path d="M51.7,75.2H33.5V71H36V40.6h-2.5v1.6H21V28h12.5v1.6h28l5.6,5.6c1.7-1.1,3.4-0.5,4.5,0.6c0.9,0.9,1.7,2.5,0.8,4.4
			c-0.3,0.5-0.6,0.8-0.8,1.1c-0.6,0.6-1.1,1.3-1.3,2.4c2,1.1,2.8,2.7,2.3,4.2c-0.6,1.7-2.7,2.8-4.4,2.5c-1.7-0.3-2.7-2.2-2.5-5v-0.2
			h0.2c1.3,0.3,1.4,1.1,1.7,1.9c0.2,0.5,0.3,0.9,0.8,1.3c0.5,0.3,1.1,0.3,1.6,0c0.5-0.3,0.8-0.8,0.8-1.3c0-0.6-0.8-1.3-1.6-1.9
			c-0.9-0.8-1.9-1.6-1.9-2.5c-0.2-0.8-0.6-1.3-1.3-1.9c-0.2-0.2-0.2-0.2-0.3-0.3H49.2V71h2.5V75.2z M33.7,75.2h17.9v-3.9H49V40.4H66
			l0,0c0.2,0.2,0.2,0.2,0.3,0.3c0.6,0.6,1.3,1.1,1.4,2c0,0.9,0.9,1.6,1.7,2.3c0.8,0.6,1.6,1.4,1.6,2c0,0.6-0.3,1.1-0.9,1.4
			c-0.6,0.3-1.3,0.3-1.7,0c-0.5-0.5-0.6-0.9-0.8-1.4c-0.3-0.8-0.5-1.4-1.6-1.7c-0.2,2.7,0.8,4.4,2.5,4.7c1.6,0.3,3.6-0.8,4.2-2.4
			c0.5-1.4-0.3-3-2.4-4.1l0,0l0,0c0.2-1.3,0.6-1.9,1.3-2.5c0.3-0.3,0.6-0.6,0.8-1.1c0.9-1.7,0.2-3.3-0.8-4.1
			c-1.1-0.9-2.8-1.6-4.5-0.5l0,0l-5.6-5.6h-28v-1.6H21.1v13.8h12.2v-1.6h2.8v30.7h-2.5V75.2z M47,71.8h-2.7l0.2-0.2
			c0.3-0.2,0.6-0.6,1.1-1.1c0.6-0.8,1.1-1.3,1.3-1.1c0.2,0.2,0.2,0.5,0.2,1.1C47,70.5,47,71.8,47,71.8z M44.8,71.6h2v-1.1
			c0.2-0.9,0-0.9,0-0.9l0,0c-0.2,0-0.6,0.6-1.1,1.1C45.4,71,45.1,71.3,44.8,71.6z M42.5,70.5h-3.8l0,0c0-0.5,0-1.4,0-2.5
			c0-5,0-10,0.2-10.5l0,0l0,0c0,0,0.2,0,4.2,4.1c2.8,2.7,3.8,3.6,3.8,4.4c0,0.6-0.5,0.9-1.4,1.7C44.7,68.3,43.6,69.1,42.5,70.5
			L42.5,70.5z M38.9,70.5h3.4c1.1-1.4,2.2-2.2,3-2.8c0.8-0.6,1.3-1.1,1.3-1.6c0-0.8-1.1-1.7-3.8-4.2l0,0c-2-2-3.6-3.6-4.1-3.9
			c0,0.9,0,6.7,0,10.3C38.9,69.1,38.9,69.9,38.9,70.5z M46.8,64.7L46.8,64.7L46.8,64.7c-0.5-0.3-4.2-4.1-6.7-6.7
			c-0.6-0.6-1.3-1.3-1.6-1.6l0,0l0,0c0.3-0.3,0.9-0.9,1.7-1.7c2.3-2.5,6.1-6.3,6.4-6.4l0,0l0,0c0.2,0,0.2,0,0.2,2.5
			c0,1.6,0,3.6,0,5.8s0,4.4,0,5.8C47,64.7,47,64.7,46.8,64.7z M38.9,56.4c0.3,0.3,0.8,0.8,1.4,1.4c2.2,2.2,5.8,6,6.6,6.6
			c0-0.6,0-3.9,0-8.1s0-7.4,0-8.1c-0.6,0.6-4.1,4.2-6.3,6.3C39.8,55.5,39.3,56.1,38.9,56.4z M38.9,54L38.9,54L38.9,54
			c-0.2-0.5-0.2-5.5-0.2-10.5c0-1.1,0-2,0-2.5l0,0H42l0,0l2.5,2.3c1.7,1.6,2.5,2.5,2.5,2.7C47,46.2,39,54,38.9,54z M38.9,41.2
			c0,0.5,0,1.4,0,2.5c0,3.4,0,9.2,0.2,10.3c0.9-0.8,7.5-7.2,8-7.8c-0.2-0.2-0.9-1.1-2.5-2.5L42,41.4h-3.1V41.2z M46.8,43.4
			c-0.5,0-1.1-0.8-1.7-1.7c-0.6-0.8-1.3-1.4-1.6-1.7l-0.2-0.2h3.9v1.9C47.2,42.8,47.2,43.2,46.8,43.4L46.8,43.4z M43.7,40
			c0.5,0.3,0.9,0.9,1.4,1.6c0.6,0.8,1.4,1.7,1.7,1.6c0.2,0,0.3-0.3,0-1.6v-1.7h-3.1V40z M39,37.8L39,37.8c-0.3-0.3-0.6-0.6-1.1-1.1
			c-2.2-2.2-4.1-4.2-4.1-4.9c0,0,0-0.2,0.2-0.2l0,0h10.8L39,37.8z M34.2,31.8L34.2,31.8c-0.2,0.5,2.5,3.3,3.9,4.7
			c0.3,0.5,0.8,0.8,0.9,0.9l5.5-5.6H34.2z M54,37.8L54,37.8c-1.4-1.4-4.4-4.4-6-6l-0.2-0.2H60l-3.1,3.1L54,37.8z M48.4,31.8
			c1.6,1.6,4.2,4.2,5.6,5.6l2.8-2.8l2.8-2.8H48.4z M65.6,37.6H55l0.2-0.2c1.4-1.4,4.2-4.4,5.8-5.8l0,0l0,0c1.3,1.3,3.6,3.8,4.9,5
			l0,0L65.6,37.6z M55.5,37.6h10.2l0.2-0.8c-1.3-1.3-3.6-3.6-4.7-4.9C59.5,33.2,56.9,36,55.5,37.6z M51.9,37.6H39.8H40
			c0.3-0.3,0.6-0.6,1.3-1.3c1.7-1.7,4.4-4.5,4.7-4.7l0,0l0,0c0,0,0.2,0,3,3L51.9,37.6z M40.1,37.6h11.4l-2.8-2.8
			c-1.7-1.7-2.7-2.7-3-2.8c-0.5,0.3-3,3-4.7,4.5C40.7,36.8,40.4,37.3,40.1,37.6z M36.7,37.6h-3.8v-0.2c0.2-0.8,0-1.6,0-2.2
			c0-0.8-0.2-1.1,0.2-1.3c0.2-0.2,0.6,0.2,1.9,1.6L36.7,37.6z M33.1,37.6h3.3L34.8,36c-0.9-1.1-1.6-1.6-1.6-1.6c-0.2,0,0,0.6,0,1.1
			C33.1,36,33.1,36.8,33.1,37.6z"/>
	</g>
</g>
</svg>
