<?xml version="1.0" encoding="utf-8"?>
<!-- Generator: Adobe Illustrator 24.3.0, SVG Export Plug-In . SVG Version: 6.00 Build 0)  -->
<svg version="1.1" id="Ebene_1" xmlns="http://www.w3.org/2000/svg" xmlns:xlink="http://www.w3.org/1999/xlink" x="0px" y="0px"
	 viewBox="0 0 94 94" style="enable-background:new 0 0 94 94;" xml:space="preserve">
<style type="text/css">
	.st0{fill:#FFFFFF;}
</style>
<g>
	<path class="st0" d="M47,0c26,0,47,21,47,47S73,94,47,94S0,73,0,47S21,0,47,0"/>
	<path d="M21.9,62.4c-7,0-12.7-1.9-12.7-4.2v-4.2c0-0.3,0.2-0.8,0.5-1.1c1.4,1.9,6.4,3.1,12.2,3.1c6,0,10.8-1.4,12.2-3.1
		c0.3,0.3,0.5,0.6,0.5,1.1v4.2C34.6,60.5,29,62.4,21.9,62.4 M21.9,53c-7,0-12.7-1.9-12.7-4.2v-4.2c0-0.2,0.2-0.5,0.2-0.6
		c0-0.2,0.2-0.3,0.3-0.5c1.4,1.7,6.4,3.1,12.2,3.1c6,0,10.8-1.4,12.2-3.1c0.2,0.2,0.2,0.3,0.3,0.5c0.2,0.2,0.2,0.5,0.2,0.6v4.2
		C34.6,51.1,29,53,21.9,53 M21.9,44.7c-7,0-12.7-1.9-12.7-4.4v-2.2v-2c0-2.3,5.6-4.4,12.7-4.4s12.7,1.9,12.7,4.4v2.2v2.2
		C34.6,42.8,29,44.7,21.9,44.7 M21.3,34c-4.9,0-8.6,1.1-8.6,2.4c0,1.3,3.9,2.3,8.6,2.3c4.9,0,8.6-1.1,8.6-2.3
		C30.1,35.1,26.2,34,21.3,34"/>
	<path d="M72.1,62.4c-7,0-12.7-1.9-12.7-4.2v-4.2c0-0.3,0.2-0.8,0.5-1.1c1.4,1.9,6.4,3.1,12.2,3.1c6,0,10.8-1.4,12.2-3.1
		c0.3,0.3,0.5,0.6,0.5,1.1v4.2C84.8,60.5,79.1,62.4,72.1,62.4 M72.1,53c-7,0-12.7-1.9-12.7-4.2v-4.2c0-0.2,0.2-0.5,0.2-0.6
		c0-0.2,0.2-0.3,0.3-0.5c1.4,1.7,6.4,3.1,12.2,3.1c6,0,10.8-1.4,12.2-3.1c0.2,0.2,0.2,0.3,0.3,0.5c0.2,0.2,0.2,0.5,0.2,0.6v4.2
		C84.8,51.1,79.1,53,72.1,53 M72.1,44.7c-7,0-12.7-1.9-12.7-4.4v-2.2v-2c0-2.3,5.6-4.4,12.7-4.4c7.1,0,12.7,1.9,12.7,4.4v2.2v2.2
		C84.8,42.8,79.1,44.7,72.1,44.7 M71.4,34c-4.9,0-8.6,1.1-8.6,2.4c0,1.3,3.9,2.3,8.6,2.3c4.9,0,8.6-1.1,8.6-2.3
		C80.2,35.1,76.3,34,71.4,34"/>
	<polygon points="55.9,48.4 50.4,42.8 50.4,46.1 38.7,46.1 38.7,50.8 50.4,50.8 50.4,53.9 	"/>
</g>
</svg>
