<?xml version="1.0" encoding="utf-8"?>
<!-- Generator: Adobe Illustrator 24.3.0, SVG Export Plug-In . SVG Version: 6.00 Build 0)  -->
<svg version="1.1" id="Ebene_1" xmlns="http://www.w3.org/2000/svg" xmlns:xlink="http://www.w3.org/1999/xlink" x="0px" y="0px"
	 viewBox="0 0 94 94" style="enable-background:new 0 0 94 94;" xml:space="preserve">
<style type="text/css">
	.st0{fill:#FFFFFF;}
</style>
<g>
	<path class="st0" d="M47,0c26,0,47,21,47,47S73,94,47,94S0,73,0,47S21,0,47,0"/>
	<path d="M47,68.8c-9.9,0-17.7-2.7-17.7-6v-6c0-0.5,0.2-1.1,0.6-1.4c2,2.7,8.9,4.4,17.1,4.4c8.3,0,15-1.9,17.1-4.4
		c0.5,0.5,0.6,0.9,0.6,1.4v6C64.7,66.1,56.9,68.8,47,68.8 M47,56.9c-9.9,0-17.7-2.7-17.7-6v-6c0-0.3,0.2-0.6,0.3-0.9
		c0.2-0.2,0.2-0.5,0.3-0.5c2,2.7,8.9,4.4,17.1,4.4c8.3,0,15-1.9,17.1-4.4c0.2,0.2,0.3,0.5,0.3,0.5c0.2,0.3,0.3,0.6,0.3,0.9v6
		C64.7,54.2,56.9,56.9,47,56.9 M47,45.1c-9.9,0-17.7-2.7-17.7-6v-3v-3c0-3.3,8-6,17.7-6s17.7,2.7,17.7,6v3v3
		C64.7,42.5,56.9,45.1,47,45.1 M47,30.4c-6.6,0-11.8,1.4-11.8,3c0,1.7,5.3,3,11.8,3c6.6,0,11.8-1.4,11.8-3
		C58.8,31.6,53.6,30.4,47,30.4"/>
</g>
</svg>
