<?xml version="1.0" encoding="utf-8"?>
<!-- Generator: Adobe Illustrator 24.3.0, SVG Export Plug-In . SVG Version: 6.00 Build 0)  -->
<svg version="1.1" id="Ebene_1" xmlns="http://www.w3.org/2000/svg" xmlns:xlink="http://www.w3.org/1999/xlink" x="0px" y="0px"
	 viewBox="0 0 94 94" style="enable-background:new 0 0 94 94;" xml:space="preserve">
<style type="text/css">
	.st0{fill:#FFFFFF;}
	.st1{fill-rule:evenodd;clip-rule:evenodd;fill:#FFFFFF;}
	.st2{fill-rule:evenodd;clip-rule:evenodd;}
</style>
<g>
	<path class="st0" d="M47,0c26,0,47,21,47,47S73,94,47,94S0,73,0,47S21,0,47,0"/>
	<path d="M19.3,71.1L19.3,71.1c-0.5,0-1.1,0-1.6-0.2c-0.6-0.2-0.9-0.6-0.9-0.9s0-0.8,0.5-1.3c0.9-0.8,1.7-1.6,2.2-2.3
		c0.6-0.9,0.9-2,0.9-3.1c-2.3-1.4-4.2-3.3-5.5-5.6c-1.3-2.3-1.9-4.9-1.7-7.5c0.3-3.4,1.7-6.4,4.2-9.2c2.2-2.4,5-4.1,8.1-5.2
		c2.8-0.9,6-1.4,8.9-1.1c1.3,0.2,2.7,0.3,4.2,0.8c0.5,0.2,0.6,0.3,0.8,0.6c0.2,0.5,0,0.8,0,0.9c-0.3,1.1-0.6,2.3-0.6,3.6
		c0,3,0.9,5.8,2.7,8.5c1.6,2.3,3.8,4.2,6.6,5.8l1.6,0.8l-0.5,0.8c-0.8,1.4-1.7,2.7-2.8,3.9c-2.3,2.5-5.2,4.2-8.6,5.3
		c-3.1,0.9-6.3,1.3-9.2,0.9c-1.6,1.6-3,2.7-4.7,3.6C22.2,70.7,20.8,71.1,19.3,71.1"/>
	<path d="M74.7,59.5c-0.6,0-1.4-0.2-2.2-0.3c-2.7-0.6-5.2-2.2-7.4-4.5c-1.6,0.2-3,0.2-4.9,0c-1.6-0.2-3.1-0.5-4.7-0.9
		c-4.7-1.6-8.1-4.4-10.5-8.1c-1.1-1.7-1.7-3.6-2-5.5c-0.5-4.1,0.6-7.8,3.4-11.1c1.9-2,4.1-3.6,6.9-4.7c2.3-0.9,4.9-1.4,7.4-1.4h0.3
		c4.5,0,8.6,1.3,12.1,3.6c3,2,5.2,4.5,6.6,7.7c0.9,2.2,1.3,4.4,1.1,6.7c-0.3,3.1-1.6,5.8-3.8,8.1c-0.9,1.1-2,2-3.3,2.7
		c0,1.1,0.3,2.2,1.1,3.3c0.5,0.6,1.1,1.4,1.9,2c0.2,0.2,0.2,0.2,0.3,0.2c0.5,0.5,0.5,0.8,0.3,1.1c0,0.2-0.2,0.6-0.6,0.8
		c-0.3,0.2-0.8,0.3-1.1,0.3C75.4,59.5,75,59.5,74.7,59.5"/>
	<polygon class="st0" points="63.8,31.6 59.8,31.6 55.1,45.9 59.1,45.9 60.2,42.1 63.3,42.1 64.4,45.9 68.3,45.9 	"/>
	<path class="st0" d="M35.6,45.7c-1.4,0-2.8,0-4.2,0c-1.1,0-1.1,0-1.1-1.1c0-1.1,0-1.1-0.9-1.1c-1.1,0-1.1,0-1.1,1.1v0.2
		c0.2,0.8-0.2,1.1-0.9,0.9c-1.4,0-3,0-4.4,0c-0.6,0-0.8,0.2-0.8,0.8c0,0.2,0,0.5,0,0.6c0,0.6,0.2,0.8,0.8,0.8c2.2,0,4.4,0,6.6,0
		c1.6,0,1.6,0,1.1,1.4c-0.3,0.9-0.8,1.7-1.3,2.8c-0.5-0.5-0.8-0.9-1.3-1.3c-1.1-1.3-0.8-1.3-2.2,0c-0.3,0.3-0.3,0.6,0,0.9
		c0.5,0.5,0.9,1.1,1.6,1.7c-1.4,1.1-2.8,2-4.2,3.1c0.5,0.6,0.8,1.1,1.3,1.7c1.4-1.1,2.8-1.9,4.1-3c0.5-0.3,0.6-0.3,1.1,0
		c1.1,0.8,2,1.6,3.1,2.3c0.5-0.6,0.8-1.1,1.3-1.7c-0.9-0.6-1.7-1.3-2.5-1.9c-0.3-0.3-0.6-0.5-0.3-0.9c0.6-1.6,1.3-3.1,1.9-4.5
		c0.2-0.5,0.5-0.6,0.9-0.6c0.6,0,1.1,0,1.7,0c0.2,0,0.5-0.3,0.5-0.5c0.2-0.2,0-0.5,0-0.8C36.5,45.9,36.2,45.7,35.6,45.7"/>
	<path class="st1" d="M22.4,56.4l4.2-3.1l0,0c-0.3-0.5-0.6-0.8-0.9-1.1c-0.3-0.2-0.6-0.5-0.6-0.9c0-0.3,0.2-0.6,0.5-0.9l0.5-0.5
		c0.5-0.5,0.8-0.6,1.1-0.6c0.5,0,0.6,0.3,0.9,0.6c0.2,0.2,0.3,0.3,0.5,0.5c0.2,0.2,0.3,0.3,0.5,0.5c0.3-0.6,0.5-1.3,0.8-1.9
		c0-0.2,0.2-0.3,0.2-0.6c-0.2,0-0.5,0-0.6,0h-4.1c-0.8,0-1.7,0-2.5,0l0,0c-0.3,0-0.8,0-1.1-0.5c-0.3-0.3-0.3-0.6-0.3-1.1
		c0-0.2,0-0.3,0-0.5c0-0.2,0-0.6,0.3-1.1c0.3-0.3,0.9-0.3,1.1-0.3c0.5,0,0.9,0,1.4,0h1.6c0.5,0,0.9,0,1.6,0l0,0c0.2,0,0.2,0,0.3,0
		v-0.2l0,0v-0.2c0-1.1,0-1.9,1.6-1.9h0.3c1.4,0,1.7,0.5,1.7,1.7c0,0.2,0,0.3,0,0.5c0.2,0,1.6,0,1.6,0h1.1c0.6,0,1.3,0,1.9,0l0,0
		c0.6,0,0.9,0.2,1.3,0.5c0.3,0.3,0.3,0.6,0.3,1.1v0.2c0,0.2,0,0.5-0.2,0.8c-0.2,0.3-0.5,0.8-0.9,0.9c-0.3,0-0.8,0-1.1,0h-0.6
		l-0.2-0.6v0.9c-0.2,0-0.2,0-0.3,0.2c-0.6,1.6-1.3,3.1-1.9,4.7c0,0,0,0.2,0.2,0.2c0.6,0.5,1.3,0.8,1.9,1.3l1.3,0.9l-2,2.8l-2-1.3
		c-0.6-0.5-1.4-0.9-2-1.6c0,0-0.2,0-0.2-0.2c0,0,0,0-0.2,0.2c-0.9,0.8-1.9,1.4-3,2.2l-1.6,1.1L22.4,56.4z"/>
	<polygon class="st2" points="61.7,34.5 60.5,40.1 63.1,40.1 	"/>
</g>
</svg>
