<?xml version="1.0" encoding="utf-8"?>
<!-- Generator: Adobe Illustrator 24.3.0, SVG Export Plug-In . SVG Version: 6.00 Build 0)  -->
<svg version="1.1" id="Ebene_1" xmlns="http://www.w3.org/2000/svg" xmlns:xlink="http://www.w3.org/1999/xlink" x="0px" y="0px"
	 viewBox="0 0 94 94" style="enable-background:new 0 0 94 94;" xml:space="preserve">
<style type="text/css">
	.st0{fill:#FFFFFF;}
</style>
<g>
	<path class="st0" d="M47,0c26,0,47,21,47,47S73,94,47,94S0,73,0,47S21,0,47,0"/>
	<polygon points="26.8,64.9 26.8,68.3 36.7,68.3 36.7,64.9 36.7,25.7 26.8,25.7 	"/>
	<path d="M42,64.9v3.4h10v-3.4V25.7H42V64.9z M44,27.7h5.8v35.1H44V27.7z"/>
	<path d="M57.2,25.7v39.2v3.4h10v-3.4V25.7H57.2z M59.4,27.7h5.8v35.1h-5.8V27.7z"/>
</g>
</svg>
