<?xml version="1.0" encoding="utf-8"?>
<!-- Generator: Adobe Illustrator 24.3.0, SVG Export Plug-In . SVG Version: 6.00 Build 0)  -->
<svg version="1.1" id="Ebene_1" xmlns="http://www.w3.org/2000/svg" xmlns:xlink="http://www.w3.org/1999/xlink" x="0px" y="0px"
	 viewBox="0 0 490.5 358.4" style="enable-background:new 0 0 490.5 358.4;" xml:space="preserve">
<style type="text/css">
	.st0{fill:#FFFFFF;}
	.st1{fill:#231F20;}
</style>
<g>
	<path class="st0" d="M268.5,97.6c-0.1-10.8-9.3-19.9-20.2-19.8c-10.8,0.1-19.9,9.3-19.9,20.1c0.1,10.8,9.5,20.1,20.2,19.8
		C259.4,117.6,268.5,108.4,268.5,97.6 M248.4,262.5c-8.7,0-17.3,0.2-26.1-0.2c-2.1-0.1-5.2-2.4-5.9-4.4
		c-21.6-66.8-23.7-133.5,1.2-200.1c1.9-5.1,4.4-7.1,10.1-6.9c14.5,0.5,28.9,0.4,43.4,0c4.1-0.1,5.9,1.5,7.2,5
		c13.8,36,19.9,73.2,18.6,111.7c-1.1,29.8-6.7,58.6-15.2,87.1c-1.7,6-4.4,8.2-10.7,7.7C263.5,262.1,255.9,262.6,248.4,262.5
		L248.4,262.5z"/>
	<path class="st0" d="M193,195.5c3.2,15.2,5.4,30,9.7,44.1c4,12.7-13.7,60.7-20.1,70.5c-1.2-8.5-2.5-23.1-3.6-31.7
		c-2.6-19.1-5-38.3-7.7-57.3c-0.9-5.7-0.5-10,5.2-13.3C182.3,204.4,187.2,199.9,193,195.5"/>
	<path class="st1" d="M268.5,97.6c0.1,10.8-9,19.9-19.9,20.1c-10.7,0.1-20.1-9.1-20.2-19.8c0-10.7,9.1-20.1,19.9-20.1
		C259.2,77.8,268.4,86.9,268.5,97.6"/>
	<path class="st0" d="M248.4,1.7c-10.5,14-20.4,25.9-24.3,42h24.3h24.3C268.8,27.6,258.8,15.7,248.4,1.7"/>
	<path class="st0" d="M303.3,195.5c-3.2,15.2-5.4,30-9.7,44.1c-4,12.7,13.7,60.7,20.1,70.5c1.2-8.5,2.5-23.1,3.6-31.7
		c2.6-19.1,5-38.3,7.7-57.3c0.9-5.7,0.5-10-5.2-13.3C314,204.4,309,199.9,303.3,195.5"/>
	<path class="st0" d="M259.4,325.5c0-5.1-4.1-9.1-9.1-9.1c-5,0-9.1,4.1-9.1,9.1l9.1,30.7L259.4,325.5z"/>
	<path class="st0" d="M240.8,287.4c0-5.1-4.1-9.1-9.1-9.1s-9.1,4.1-9.1,9.1l9.1,30.7L240.8,287.4z"/>
	<path class="st0" d="M276.7,293.1c0-5-4.1-9.1-9.1-9.1c-5.1,0-9.1,4.1-9.1,9.1l9.1,30.7L276.7,293.1z"/>
	<path class="st0" d="M50.3,176.7c0-5.6-4.9-10.3-10.5-10.2c-5.6,0-10.3,4.9-10.3,10.5s4.9,10.3,10.5,10.3
		C45.6,187.1,50.4,182.3,50.3,176.7 M39.9,262.2c-4.5,0-9,0.1-13.5-0.1c-1.1-0.1-2.7-1.2-3-2.2c-11.2-34.7-12.2-69.2,0.6-103.6
		c1-2.6,2.2-3.6,5.2-3.6c7.5,0.2,15,0.1,22.4,0c2.1,0,3,0.7,3.7,2.6c7.2,18.7,10.3,37.9,9.6,57.8c-0.5,15.5-3.5,30.4-7.9,45.1
		c-0.9,3.1-2.2,4.2-5.5,4C47.8,262,43.9,262.2,39.9,262.2L39.9,262.2z"/>
	<path class="st0" d="M11.2,227.4c1.7,7.9,2.7,15.6,5.1,22.8c2.1,6.6-7.1,31.4-10.3,36.5c-0.6-4.4-1.2-12-1.9-16.5
		c-1.4-9.8-2.6-19.8-4-29.7c-0.4-3-0.2-5.2,2.7-7C5.6,232.1,8.3,229.7,11.2,227.4"/>
	<path class="st1" d="M50.3,176.7c0,5.6-4.6,10.3-10.3,10.5c-5.6,0.1-10.3-4.7-10.5-10.3c0-5.6,4.7-10.3,10.3-10.5
		C45.5,166.5,50.3,171.1,50.3,176.7"/>
	<path class="st0" d="M39.9,127.1c-5.4,7.2-10.6,13.5-12.6,21.8h12.6h12.6C50.5,140.4,45.3,134.3,39.9,127.1"/>
	<path class="st0" d="M68.3,227.4c-1.7,7.9-2.7,15.6-5.1,22.8c-2.1,6.6,7.1,31.4,10.3,36.5c0.6-4.4,1.2-12,1.9-16.5
		c1.4-9.8,2.6-19.8,4-29.7c0.4-3,0.2-5.2-2.7-7C73.9,232.1,71.3,229.7,68.3,227.4"/>
	<path class="st0" d="M45.6,294.9c0-2.6-2.1-4.7-4.7-4.7c-2.6,0-4.7,2.1-4.7,4.7l4.7,15.8L45.6,294.9z"/>
	<path class="st0" d="M36,275.1c0-2.6-2.1-4.7-4.7-4.7c-2.6,0-4.7,2.1-4.7,4.7l4.7,15.8L36,275.1z"/>
	<path class="st0" d="M54.6,278.1c0-2.6-2.1-4.7-4.7-4.7c-2.6,0-4.7,2.1-4.7,4.7l4.7,15.8L54.6,278.1z"/>
	<path class="st0" d="M465.4,244.6c0-4.7-4.1-8.7-8.8-8.7c-4.7,0-8.8,4.1-8.7,8.8c0,4.7,4.1,8.8,8.8,8.7
		C461.5,253.5,465.4,249.4,465.4,244.6 M456.6,317.3c-3.9,0-7.6,0.1-11.5-0.1c-0.9,0-2.4-1-2.6-1.9c-9.5-29.4-10.3-58.8,0.5-88.1
		c0.9-2.2,2-3.1,4.5-3c6.4,0.2,12.7,0.1,19.1,0c1.7,0,2.6,0.6,3.2,2.2c6.1,15.8,8.8,32.3,8.2,49.2c-0.5,13.1-3,25.8-6.7,38.4
		c-0.7,2.6-1.9,3.6-4.7,3.4C463.2,317.1,459.8,317.3,456.6,317.3L456.6,317.3z"/>
	<path class="st0" d="M432.2,287.8c1.5,6.7,2.4,13.2,4.4,19.4c1.7,5.6-6,26.7-8.8,31c-0.5-3.7-1.1-10.2-1.6-14
		c-1.1-8.4-2.2-16.8-3.5-25.3c-0.4-2.5-0.2-4.4,2.4-5.9C427.4,291.6,429.7,289.6,432.2,287.8"/>
	<path class="st1" d="M465.4,244.6c0,4.7-4,8.8-8.7,8.8c-4.7,0.1-8.8-4-8.8-8.7c0-4.7,4-8.8,8.7-8.8
		C461.3,235.9,465.3,239.9,465.4,244.6"/>
	<path class="st0" d="M456.6,202.4c-4.6,6.1-9,11.3-10.7,18.6h10.7h10.7C465.6,213.9,461.2,208.6,456.6,202.4"/>
	<path class="st0" d="M480.8,287.8c-1.5,6.7-2.4,13.2-4.4,19.4c-1.7,5.6,6,26.7,8.8,31c0.5-3.7,1.1-10.2,1.6-14
		c1.1-8.4,2.2-16.8,3.5-25.3c0.4-2.5,0.2-4.4-2.2-5.9C485.5,291.6,483.3,289.6,480.8,287.8"/>
	<path class="st0" d="M461.5,345c0-2.2-1.7-4-4-4c-2.2,0-4,1.7-4,4l4,13.5L461.5,345z"/>
	<path class="st0" d="M453.2,328.3c0-2.2-1.7-4-4-4s-4,1.7-4,4l4,13.5L453.2,328.3z"/>
	<path class="st0" d="M469.1,330.8c0-2.2-1.7-4-4-4c-2.2,0-4,1.7-4,4l4,13.5L469.1,330.8z"/>
</g>
</svg>
