<?xml version="1.0" encoding="utf-8"?>
<!-- Generator: Adobe Illustrator 24.3.0, SVG Export Plug-In . SVG Version: 6.00 Build 0)  -->
<svg version="1.1" id="Ebene_1" xmlns="http://www.w3.org/2000/svg" xmlns:xlink="http://www.w3.org/1999/xlink" x="0px" y="0px"
	 viewBox="0 0 94 94" style="enable-background:new 0 0 94 94;" xml:space="preserve">
<style type="text/css">
	.st0{fill:#FFFFFF;}
</style>
<g>
	<path class="st0" d="M47,0c26,0,47,21,47,47S73,94,47,94S0,73,0,47S21,0,47,0"/>
	<path d="M47,27.3c-18,0-32.6,15.7-32.6,19.7c0,3.9,14.6,19.7,32.6,19.7S79.6,51.1,79.6,47C79.6,43.1,65,27.3,47,27.3"/>
	<path class="st0" d="M59.1,48.1c0,6.6-5.3,11.8-11.8,11.8s-11.8-5.3-11.8-11.8c0-6.6,5.3-11.8,11.8-11.8S59.1,41.5,59.1,48.1"/>
	<path d="M38.9,42.1c0-2.4,1.9-4.2,4.2-4.2c2.4,0,4.2,1.9,4.2,4.2c0,2.3-1.9,4.2-4.2,4.2C40.7,46.4,38.9,44.5,38.9,42.1"/>
</g>
</svg>
