<svg width="60" height="60" viewBox="0 0 60 60" xmlns="http://www.w3.org/2000/svg" xmlns:xlink="http://www.w3.org/1999/xlink">
    <g id="Group">
        <path id="Oval24" fill="#ffffff" stroke="none" d="M 60 30 C 60 46.568542 46.568542 60 30 60 C 13.431458 60 0 46.568542 0 30 C -0 13.431458 13.431458 0 30 0 C 46.568542 0 60 13.431458 60 30 Z"/>
        <path id="email" fill="#000000" stroke="none" d="M 48.100216 16.890823 C 48.092552 16.882465 48.089767 16.872017 48.0835 16.864357 C 48.061913 16.84277 48.033356 16.833714 48.009678 16.814911 C 47.522179 16.401928 46.900963 16.142857 46.214287 16.142857 L 12.785714 16.142857 C 12.07466 16.142857 11.431857 16.418644 10.939482 16.858089 C 10.91859 16.874802 10.893517 16.882465 10.874018 16.901966 C 10.867053 16.908928 10.864964 16.91798 10.858696 16.924946 C 10.3315 17.432644 10 18.140911 10 18.92857 L 10 41.214287 C 10 42.75061 11.249393 44 12.785714 44 L 46.214287 44 C 47.750607 44 49 42.75061 49 41.214287 L 49 18.92857 C 49 18.122105 48.649696 17.400608 48.100216 16.890823 Z M 46.214287 17.535713 C 46.281143 17.535713 46.343822 17.546856 46.405804 17.555214 L 30.443661 33.518055 C 29.901142 34.06057 29.016678 34.06057 28.473463 33.518055 L 12.519678 17.562878 C 12.606036 17.546162 12.694482 17.535713 12.785714 17.535713 L 46.214287 17.535713 Z M 12.785714 42.607143 C 12.66175 42.607143 12.544053 42.585556 12.429143 42.555607 L 22.331661 32.653091 C 22.603964 32.380787 22.603964 31.940641 22.331661 31.668339 C 22.059357 31.396036 21.619215 31.396036 21.34691 31.668339 L 11.444393 41.570858 C 11.414447 41.456642 11.392858 41.338249 11.392858 41.214287 L 11.392858 18.92857 C 11.392858 18.771877 11.424892 18.624928 11.471554 18.484947 L 27.48941 34.502804 C 28.031929 35.045319 28.745768 35.317627 29.45891 35.317627 C 30.172054 35.317627 30.885895 35.045319 31.429108 34.502804 L 47.508251 18.422966 C 47.570232 18.580357 47.607143 18.749588 47.607143 18.92857 L 47.607143 41.214287 C 47.607143 41.338249 47.585556 41.456642 47.555607 41.570858 L 37.653091 31.668339 C 37.380787 31.396036 36.940643 31.396036 36.668339 31.668339 C 36.396034 31.940641 36.396034 32.380787 36.668339 32.653091 L 46.570858 42.555607 C 46.456642 42.585556 46.338249 42.607143 46.214287 42.607143 L 12.785714 42.607143 Z"/>
    </g>
</svg>
