<?xml version="1.0" encoding="utf-8"?>
<!-- Generator: Adobe Illustrator 25.4.1, SVG Export Plug-In . SVG Version: 6.00 Build 0)  -->
<svg version="1.1" xmlns="http://www.w3.org/2000/svg" xmlns:xlink="http://www.w3.org/1999/xlink" x="0px" y="0px"
	 viewBox="0 0 242.7 225.5" style="enable-background:new 0 0 242.7 225.5;" xml:space="preserve">
<style type="text/css">
	.st0{display:none;}
	.st1{display:inline;}
	.st2{fill-rule:evenodd;clip-rule:evenodd;}
	.st3{fill:none;}
	.st4{font-family:'AvenirNextCondensed-Regular';}
	.st5{font-size:20px;}
	.st6{letter-spacing:8;}
	.st7{letter-spacing:9;}
	.st8{letter-spacing:2;}
	.st9{fill:#FFFFFF;}
	.st10{fill-rule:evenodd;clip-rule:evenodd;fill:#FFFFFF;}
</style>
<g id="Ebene_1" class="st0">
	<g class="st1">
		<g>
			<g>
				<path d="M161.9,94.3c-0.2,0-0.5,0-0.7-0.1c-0.7-0.2-1.3-0.7-1.7-1.3c-0.4-0.6-0.5-1.4-0.3-2.1c0.3-1.2,1.4-2.1,2.7-2.1
					c0.2,0,0.5,0,0.7,0.1c1.5,0.4,2.4,1.9,2,3.4C164.3,93.4,163.2,94.3,161.9,94.3L161.9,94.3z"/>
				<path d="M161.2,94.1c1.5,0.4,3-0.5,3.4-1.9c0.4-1.5-0.5-3-1.9-3.4c-1.5-0.4-3,0.5-3.4,1.9C158.9,92.2,159.7,93.7,161.2,94.1z"/>
				<path d="M158,81.4c-1.3,0-2.4-0.9-2.7-2.1c-0.4-1.5,0.5-3,2-3.4c0.2-0.1,0.5-0.1,0.7-0.1c1.3,0,2.4,0.9,2.7,2.1
					c0.4,1.5-0.5,3-2,3.4C158.5,81.4,158.3,81.4,158,81.4C158,81.4,158,81.4,158,81.4z"/>
				<path d="M158.7,81.3c1.5-0.4,2.3-1.9,1.9-3.4c-0.4-1.5-1.9-2.3-3.4-1.9c-1.5,0.4-2.3,1.9-1.9,3.4
					C155.8,80.8,157.3,81.7,158.7,81.3z"/>
				<path d="M148.3,72.3c-0.7,0-1.4-0.3-2-0.8c-0.5-0.5-0.8-1.2-0.8-2c0-0.7,0.3-1.4,0.8-2c0.5-0.5,1.2-0.8,2-0.8
					c0.7,0,1.4,0.3,2,0.8c0.5,0.5,0.8,1.2,0.8,2c0,0.7-0.3,1.4-0.8,2C149.7,72,149,72.3,148.3,72.3L148.3,72.3z"/>
				<path d="M146.3,67.5c-1.1,1.1-1.1,2.8,0,3.9c1.1,1.1,2.8,1.1,3.9,0c1.1-1.1,1.1-2.8,0-3.9C149.1,66.5,147.4,66.5,146.3,67.5z"/>
				<path d="M135.2,69.2c-0.2,0-0.5,0-0.7-0.1c-1.5-0.4-2.4-1.9-2-3.4c0.3-1.2,1.4-2.1,2.7-2.1c0.2,0,0.5,0,0.7,0.1
					c0.7,0.2,1.3,0.7,1.7,1.3c0.4,0.6,0.5,1.4,0.3,2.1C137.6,68.4,136.5,69.2,135.2,69.2C135.2,69.2,135.2,69.2,135.2,69.2z"/>
				<path d="M135.9,63.8c-1.5-0.4-3,0.5-3.4,1.9c-0.4,1.5,0.5,3,1.9,3.4c1.5,0.4,3-0.5,3.4-1.9C138.3,65.7,137.4,64.2,135.9,63.8z"
					/>
				<path d="M122.4,73.1c-1.3,0-2.4-0.9-2.7-2.1c-0.4-1.5,0.5-3,2-3.4c0.2-0.1,0.5-0.1,0.7-0.1c1.3,0,2.4,0.9,2.7,2.1
					c0.4,1.5-0.5,3-2,3.4C122.9,73.1,122.7,73.1,122.4,73.1z"/>
				<path d="M123.1,73c1.5-0.4,2.3-1.9,1.9-3.4c-0.4-1.5-1.9-2.3-3.4-1.9c-1.5,0.4-2.3,1.9-1.9,3.4C120.1,72.5,121.7,73.3,123.1,73z
					"/>
				<path d="M113.2,82.9c-0.7,0-1.4-0.3-2-0.8c-0.5-0.5-0.8-1.2-0.8-2c0-0.7,0.3-1.4,0.8-2c0.5-0.5,1.2-0.8,2-0.8
					c0.7,0,1.4,0.3,2,0.8c1.1,1.1,1.1,2.9,0,4C114.7,82.6,114,82.9,113.2,82.9z"/>
				<path d="M111.3,78.1c-1.1,1.1-1.1,2.8,0,3.9c1.1,1.1,2.8,1.1,3.9,0c1.1-1.1,1.1-2.8,0-3.9C114.1,77,112.4,77,111.3,78.1z"/>
				<path d="M110.2,95.9c-0.2,0-0.5,0-0.7-0.1c-1.5-0.4-2.4-1.9-2-3.4c0.3-1.2,1.4-2.1,2.7-2.1c0.2,0,0.5,0,0.7,0.1
					c1.5,0.4,2.4,1.9,2,3.4C112.6,95,111.4,95.9,110.2,95.9L110.2,95.9z"/>
				<path d="M110.9,90.4c-1.5-0.4-3,0.5-3.4,1.9c-0.4,1.5,0.5,3,1.9,3.4c1.5,0.4,3-0.5,3.4-1.9C113.2,92.3,112.4,90.8,110.9,90.4z"
					/>
				<path d="M114.1,108.7c-1.3,0-2.4-0.9-2.7-2.1c-0.4-1.5,0.5-3,2-3.4c0.2-0.1,0.5-0.1,0.7-0.1c1.3,0,2.4,0.9,2.7,2.1
					c0.4,1.5-0.5,3-2,3.4C114.5,108.7,114.3,108.7,114.1,108.7L114.1,108.7z"/>
				<path d="M113.3,103.3c-1.5,0.4-2.3,1.9-1.9,3.4c0.4,1.5,1.9,2.3,3.4,1.9c1.5-0.4,2.3-1.9,1.9-3.4
					C116.3,103.7,114.8,102.9,113.3,103.3z"/>
				<path d="M123.8,117.9c-0.7,0-1.4-0.3-2-0.8c-0.5-0.5-0.8-1.2-0.8-2c0-0.7,0.3-1.4,0.8-2c0.5-0.5,1.2-0.8,2-0.8
					c0.7,0,1.4,0.3,2,0.8c1.1,1.1,1.1,2.9,0,3.9C125.3,117.6,124.6,117.9,123.8,117.9z"/>
				<path d="M125.8,117c1.1-1.1,1.1-2.8,0-3.9c-1.1-1.1-2.8-1.1-3.9,0c-1.1,1.1-1.1,2.8,0,3.9C122.9,118.1,124.7,118.1,125.8,117z"
					/>
				<path d="M136.9,120.9c-0.2,0-0.5,0-0.7-0.1c-0.7-0.2-1.3-0.7-1.7-1.3c-0.4-0.6-0.5-1.4-0.3-2.1c0.3-1.2,1.4-2.1,2.7-2.1
					c0.2,0,0.5,0,0.7,0.1c0.7,0.2,1.3,0.7,1.7,1.3c0.4,0.6,0.5,1.4,0.3,2.1C139.2,120.1,138.1,120.9,136.9,120.9L136.9,120.9z"/>
				<path d="M136.1,120.8c1.5,0.4,3-0.5,3.4-1.9c0.4-1.5-0.5-3-1.9-3.4c-1.5-0.4-3,0.5-3.4,1.9C133.8,118.9,134.7,120.4,136.1,120.8
					z"/>
				<path d="M149.7,117.1c-1.3,0-2.4-0.9-2.7-2.1c-0.2-0.7-0.1-1.5,0.3-2.1c0.4-0.6,1-1.1,1.7-1.3c0.2-0.1,0.5-0.1,0.7-0.1
					c1.3,0,2.4,0.9,2.7,2.1c0.4,1.5-0.5,3-2,3.4C150.2,117,149.9,117.1,149.7,117.1L149.7,117.1z"/>
				<path d="M149,111.6c-1.5,0.4-2.3,1.9-1.9,3.4c0.4,1.5,1.9,2.3,3.4,1.9c1.5-0.4,2.3-1.9,1.9-3.4
					C151.9,112.1,150.4,111.2,149,111.6z"/>
				<path d="M158.8,107.3c-0.7,0-1.4-0.3-2-0.8c-1.1-1.1-1.1-2.9,0-3.9c0.5-0.5,1.2-0.8,2-0.8s1.4,0.3,2,0.8c1.1,1.1,1.1,2.9,0,4
					C160.3,107,159.6,107.3,158.8,107.3z"/>
				<path d="M160.8,106.5c1.1-1.1,1.1-2.8,0-3.9c-1.1-1.1-2.8-1.1-3.9,0c-1.1,1.1-1.1,2.8,0,3.9C158,107.5,159.7,107.5,160.8,106.5z
					"/>
				<g>
					<path d="M174.9,95.6c-0.3,0-0.6,0-0.8-0.1c-1.7-0.5-2.8-2.3-2.3-4c0.4-1.4,1.7-2.4,3.2-2.4c0.3,0,0.6,0,0.8,0.1
						c1.7,0.5,2.8,2.3,2.3,4C177.7,94.6,176.4,95.6,174.9,95.6C174.9,95.6,174.9,95.6,174.9,95.6z"/>
					<path d="M175.8,89.3c-1.7-0.5-3.5,0.6-3.9,2.3c-0.5,1.7,0.6,3.5,2.3,3.9c1.7,0.5,3.5-0.6,3.9-2.3
						C178.5,91.5,177.5,89.7,175.8,89.3z"/>
					<path d="M169.8,76.2c-1.5,0-2.8-1-3.2-2.4c-0.2-0.8-0.1-1.7,0.3-2.5c0.4-0.8,1.1-1.3,2-1.5c0.3-0.1,0.6-0.1,0.8-0.1
						c1.5,0,2.8,1,3.1,2.4c0.2,0.8,0.1,1.7-0.3,2.5c-0.4,0.8-1.1,1.3-2,1.5C170.3,76.2,170,76.2,169.8,76.2
						C169.8,76.2,169.8,76.2,169.8,76.2z"/>
					<path d="M170.6,76c1.7-0.5,2.7-2.2,2.3-3.9c-0.5-1.7-2.2-2.7-3.9-2.3c-1.7,0.5-2.7,2.2-2.3,3.9C167.1,75.5,168.9,76.5,170.6,76
						z"/>
					<path d="M155.6,61.9c-0.9,0-1.7-0.3-2.3-1c-0.6-0.6-1-1.4-1-2.3c0-0.9,0.3-1.7,1-2.3c0.6-0.6,1.4-1,2.3-1c0.9,0,1.7,0.3,2.3,1
						c1.3,1.3,1.3,3.3,0,4.6C157.3,61.6,156.4,61.9,155.6,61.9C155.6,61.9,155.6,61.9,155.6,61.9z"/>
					<path d="M153.3,60.9c1.3,1.3,3.3,1.3,4.6,0c1.3-1.3,1.3-3.3,0-4.6c-1.3-1.3-3.3-1.3-4.6,0C152,57.6,152,59.7,153.3,60.9z"/>
					<path d="M136.1,56.7c-0.3,0-0.6,0-0.8-0.1c-1.7-0.5-2.8-2.3-2.3-4c0.4-1.4,1.7-2.4,3.2-2.4c0.3,0,0.6,0,0.8,0.1
						c1.7,0.5,2.8,2.3,2.3,4C138.9,55.7,137.6,56.7,136.1,56.7L136.1,56.7z"/>
					<path d="M135.3,56.5c1.7,0.5,3.5-0.6,3.9-2.3c0.5-1.7-0.6-3.5-2.3-3.9c-1.7-0.5-3.5,0.6-3.9,2.3
						C132.6,54.3,133.6,56.1,135.3,56.5z"/>
					<path d="M116.7,61.8c-1.5,0-2.8-1-3.2-2.4c-0.5-1.7,0.6-3.5,2.3-4c0.3-0.1,0.6-0.1,0.8-0.1c1.5,0,2.8,1,3.1,2.4
						c0.5,1.7-0.6,3.5-2.3,4C117.2,61.8,117,61.8,116.7,61.8z"/>
					<path d="M115.8,55.5c-1.7,0.5-2.7,2.2-2.3,3.9c0.5,1.7,2.2,2.7,3.9,2.3c1.7-0.5,2.7-2.2,2.3-3.9C119.3,56,117.6,55,115.8,55.5z
						"/>
					<path d="M102.4,76c-0.9,0-1.7-0.3-2.3-1c-0.6-0.6-1-1.4-1-2.3c0-0.9,0.3-1.7,1-2.3c0.6-0.6,1.4-1,2.3-1c0.9,0,1.7,0.3,2.3,1
						c0.6,0.6,1,1.4,1,2.3c0,0.9-0.3,1.7-1,2.3C104.1,75.7,103.3,76,102.4,76L102.4,76z"/>
					<path d="M100.1,75c1.3,1.3,3.3,1.3,4.6,0c1.3-1.3,1.3-3.3,0-4.6c-1.3-1.3-3.3-1.3-4.6,0C98.9,71.7,98.9,73.8,100.1,75z"/>
					<path d="M97.2,95.5c-0.3,0-0.6,0-0.8-0.1c-1.7-0.5-2.8-2.3-2.3-4c0.4-1.4,1.7-2.4,3.2-2.4c0.3,0,0.6,0,0.8,0.1
						c1.7,0.5,2.8,2.3,2.3,4C99.9,94.5,98.6,95.5,97.2,95.5L97.2,95.5z"/>
					<path d="M96.3,95.3c1.7,0.5,3.5-0.6,3.9-2.3c0.5-1.7-0.6-3.5-2.3-3.9c-1.7-0.5-3.5,0.6-3.9,2.3C93.6,93.1,94.6,94.8,96.3,95.3z
						"/>
					<path d="M102.3,114.9c-1.5,0-2.8-1-3.2-2.4c-0.5-1.7,0.6-3.5,2.3-4c0.3-0.1,0.6-0.1,0.8-0.1c1.5,0,2.8,1,3.2,2.4
						c0.5,1.7-0.6,3.5-2.3,4C102.9,114.9,102.6,114.9,102.3,114.9C102.3,114.9,102.3,114.9,102.3,114.9z"/>
					<path d="M101.5,108.5c-1.7,0.5-2.7,2.2-2.3,3.9c0.5,1.7,2.2,2.7,3.9,2.3c1.7-0.5,2.7-2.2,2.3-3.9
						C105,109.1,103.2,108.1,101.5,108.5z"/>
					<path d="M116.5,129.2c-0.9,0-1.7-0.3-2.3-1c-0.6-0.6-1-1.4-1-2.3c0-0.9,0.3-1.7,1-2.3c0.6-0.6,1.4-1,2.3-1c0.9,0,1.7,0.3,2.3,1
						c1.3,1.3,1.3,3.3,0,4.6C118.2,128.8,117.4,129.2,116.5,129.2L116.5,129.2z"/>
					<path d="M118.8,123.6c-1.3-1.3-3.3-1.3-4.6,0c-1.3,1.3-1.3,3.3,0,4.6c1.3,1.3,3.3,1.3,4.6,0
						C120.1,126.9,120.1,124.9,118.8,123.6z"/>
					<path d="M135.9,134.4c-0.3,0-0.6,0-0.8-0.1c-0.8-0.2-1.5-0.8-2-1.5c-0.4-0.8-0.6-1.6-0.3-2.5c0.4-1.4,1.7-2.4,3.1-2.4
						c0.3,0,0.6,0,0.8,0.1c0.8,0.2,1.5,0.8,2,1.5c0.4,0.8,0.6,1.6,0.3,2.5C138.7,133.4,137.4,134.4,135.9,134.4L135.9,134.4z"/>
					<path d="M136.8,128.1c-1.7-0.5-3.5,0.6-3.9,2.3c-0.5,1.7,0.6,3.5,2.3,3.9c1.7,0.5,3.5-0.6,3.9-2.3
						C139.5,130.3,138.5,128.5,136.8,128.1z"/>
					<path d="M155.4,129.3c-1.5,0-2.8-1-3.2-2.4c-0.2-0.8-0.1-1.7,0.3-2.5c0.4-0.8,1.1-1.3,2-1.5c0.3-0.1,0.6-0.1,0.9-0.1
						c1.5,0,2.8,1,3.1,2.4c0.5,1.7-0.6,3.5-2.3,4C156,129.2,155.7,129.3,155.4,129.3C155.4,129.3,155.4,129.3,155.4,129.3z"/>
					<path d="M156.2,129.1c1.7-0.5,2.7-2.2,2.3-3.9c-0.5-1.7-2.2-2.7-3.9-2.3c-1.7,0.5-2.7,2.2-2.3,3.9
						C152.8,128.6,154.5,129.6,156.2,129.1z"/>
					<path d="M169.7,115.1c-0.9,0-1.7-0.3-2.3-1c-1.3-1.3-1.3-3.3,0-4.6c0.6-0.6,1.4-1,2.3-1c0.9,0,1.7,0.3,2.3,1
						c1.3,1.3,1.3,3.3,0,4.6C171.4,114.7,170.5,115.1,169.7,115.1L169.7,115.1z"/>
					<path d="M171.9,109.5c-1.3-1.3-3.3-1.3-4.6,0c-1.3,1.3-1.3,3.3,0,4.6c1.3,1.3,3.3,1.3,4.6,0
						C173.2,112.8,173.2,110.8,171.9,109.5z"/>
				</g>
				<g>
					<path d="M188.2,102.5c-0.4,0-0.7,0-1.1-0.1c-2.2-0.6-3.6-2.9-3-5.1c0.5-1.8,2.2-3.1,4-3.1c0.4,0,0.7,0,1.1,0.1
						c1.1,0.3,2,1,2.5,2c0.6,1,0.7,2.1,0.4,3.2C191.8,101.2,190.1,102.5,188.2,102.5L188.2,102.5z"/>
					<path d="M187.2,102.3c2.2,0.6,4.5-0.7,5.1-2.9c0.6-2.2-0.7-4.5-2.9-5.1c-2.2-0.6-4.5,0.7-5.1,2.9
						C183.6,99.4,184.9,101.7,187.2,102.3z"/>
					<path d="M184.2,75.6c-1.9,0-3.6-1.3-4.1-3.1c-0.6-2.2,0.7-4.5,3-5.1c0.4-0.1,0.7-0.1,1.1-0.1c1.9,0,3.6,1.3,4,3.1
						c0.6,2.2-0.7,4.5-3,5.1C185,75.5,184.6,75.6,184.2,75.6L184.2,75.6z"/>
					<path d="M188.2,70.3c-0.6-2.2-2.9-3.5-5.1-2.9c-2.2,0.6-3.5,2.9-2.9,5.1c0.6,2.2,2.9,3.5,5.1,2.9
						C187.5,74.8,188.8,72.5,188.2,70.3z"/>
					<path d="M167.3,54.3c-1.1,0-2.2-0.4-3-1.2c-0.8-0.8-1.2-1.8-1.2-3s0.4-2.2,1.2-3c0.8-0.8,1.8-1.2,3-1.2c1.1,0,2.2,0.4,3,1.2
						c0.8,0.8,1.2,1.8,1.2,3s-0.4,2.2-1.2,3C169.5,53.8,168.5,54.3,167.3,54.3z"/>
					<path d="M170.3,47.1c-1.6-1.6-4.2-1.6-5.9,0c-1.6,1.6-1.6,4.2,0,5.9c1.6,1.6,4.2,1.6,5.9,0C171.9,51.4,171.9,48.8,170.3,47.1z"
						/>
					<path d="M142,44.3c-0.4,0-0.7,0-1.1-0.1c-2.2-0.6-3.6-2.9-3-5.1c0.5-1.8,2.2-3.1,4-3.1c0.4,0,0.7,0,1.1,0.1c1.1,0.3,2,1,2.5,2
						c0.6,1,0.7,2.1,0.4,3.2C145.6,43,143.9,44.3,142,44.3L142,44.3z"/>
					<path d="M141,44.1c2.2,0.6,4.5-0.7,5.1-2.9c0.6-2.2-0.7-4.5-2.9-5.1c-2.2-0.6-4.5,0.7-5.1,2.9C137.4,41.2,138.7,43.5,141,44.1z
						"/>
					<path d="M115.1,48.3c-1.9,0-3.6-1.3-4-3.1c-0.6-2.2,0.7-4.5,3-5.1c0.4-0.1,0.7-0.1,1.1-0.1c1.9,0,3.6,1.3,4.1,3.1
						c0.3,1.1,0.1,2.2-0.4,3.2c-0.6,1-1.5,1.7-2.5,2C115.9,48.2,115.5,48.3,115.1,48.3z"/>
					<path d="M116.2,48.1c2.2-0.6,3.5-2.9,2.9-5.1c-0.6-2.2-2.9-3.5-5.1-2.9c-2.2,0.6-3.5,2.9-2.9,5.1
						C111.7,47.4,114,48.7,116.2,48.1z"/>
					<path d="M93.8,65.2c-1.1,0-2.2-0.4-3-1.2c-1.6-1.6-1.6-4.3,0-5.9c0.8-0.8,1.8-1.2,3-1.2c1.1,0,2.2,0.4,3,1.2
						c0.8,0.8,1.2,1.8,1.2,3c0,1.1-0.4,2.2-1.2,3C96,64.8,95,65.2,93.8,65.2L93.8,65.2z"/>
					<path d="M96.8,58.1c-1.6-1.6-4.2-1.6-5.9,0c-1.6,1.6-1.6,4.3,0,5.9c1.6,1.6,4.2,1.6,5.9,0C98.4,62.3,98.4,59.7,96.8,58.1z"/>
					<path d="M83.9,90.5c-0.4,0-0.7,0-1.1-0.1c-1.1-0.3-2-1-2.5-2c-0.6-1-0.7-2.1-0.4-3.2c0.5-1.8,2.2-3.1,4.1-3.1
						c0.4,0,0.7,0,1.1,0.1c2.2,0.6,3.6,2.9,3,5.1C87.4,89.2,85.7,90.5,83.9,90.5L83.9,90.5z"/>
					<path d="M84.9,82.3c-2.2-0.6-4.5,0.7-5.1,2.9c-0.6,2.2,0.7,4.5,2.9,5.1c2.2,0.6,4.5-0.7,5.1-2.9C88.5,85.1,87.1,82.9,84.9,82.3
						z"/>
					<path d="M87.8,117.4c-1.9,0-3.6-1.3-4.1-3.1c-0.6-2.2,0.7-4.5,3-5.1c0.4-0.1,0.7-0.1,1.1-0.1c1.9,0,3.6,1.3,4.1,3.1
						c0.6,2.2-0.7,4.5-3,5.1C88.6,117.3,88.2,117.4,87.8,117.4L87.8,117.4z"/>
					<path d="M86.8,109.2c-2.2,0.6-3.5,2.9-2.9,5.1c0.6,2.2,2.9,3.5,5.1,2.9c2.2-0.6,3.5-2.9,2.9-5.1
						C91.3,109.9,89,108.6,86.8,109.2z"/>
					<path d="M104.7,138.7c-1.1,0-2.2-0.4-3-1.2c-0.8-0.8-1.2-1.8-1.2-3c0-1.1,0.4-2.2,1.2-3c0.8-0.8,1.8-1.2,3-1.2
						c1.1,0,2.2,0.4,3,1.2c1.6,1.6,1.6,4.3,0,5.9C106.9,138.2,105.9,138.7,104.7,138.7L104.7,138.7z"/>
					<path d="M107.7,131.5c-1.6-1.6-4.3-1.6-5.9,0c-1.6,1.6-1.6,4.3,0,5.9c1.6,1.6,4.2,1.6,5.9,0
						C109.3,135.8,109.3,133.2,107.7,131.5z"/>
					<path d="M130,148.7c-0.4,0-0.7,0-1.1-0.1c-2.2-0.6-3.6-2.9-3-5.1c0.5-1.8,2.2-3.1,4-3.1c0.4,0,0.7,0,1.1,0.1c1.1,0.3,2,1,2.5,2
						c0.6,1,0.7,2.1,0.4,3.2C133.6,147.4,131.9,148.7,130,148.7L130,148.7z"/>
					<path d="M131.1,140.5c-2.2-0.6-4.5,0.7-5.1,2.9c-0.6,2.2,0.7,4.5,2.9,5.1c2.2,0.6,4.5-0.7,5.1-2.9
						C134.6,143.3,133.3,141.1,131.1,140.5z"/>
					<path d="M156.9,144.7c-1.9,0-3.6-1.3-4-3.1c-0.3-1.1-0.1-2.2,0.4-3.2c0.6-1,1.5-1.7,2.5-2c0.4-0.1,0.7-0.1,1.1-0.1
						c1.9,0,3.6,1.3,4,3.1c0.6,2.2-0.7,4.5-3,5.1C157.7,144.6,157.3,144.7,156.9,144.7L156.9,144.7z"/>
					<path d="M155.9,136.5c-2.2,0.6-3.5,2.9-2.9,5.1c0.6,2.2,2.9,3.5,5.1,2.9c2.2-0.6,3.5-2.9,2.9-5.1
						C160.4,137.2,158.1,135.9,155.9,136.5z"/>
					<path d="M178.2,127.8c-1.1,0-2.2-0.4-3-1.2c-0.8-0.8-1.2-1.8-1.2-3c0-1.1,0.4-2.2,1.2-3c0.8-0.8,1.8-1.2,3-1.2
						c1.1,0,2.2,0.4,3,1.2c1.6,1.6,1.6,4.3,0,5.9C180.4,127.3,179.4,127.8,178.2,127.8z"/>
					<path d="M181.2,126.5c1.6-1.6,1.6-4.3,0-5.9c-1.6-1.6-4.2-1.6-5.9,0c-1.6,1.6-1.6,4.3,0,5.9
						C176.9,128.1,179.6,128.1,181.2,126.5z"/>
				</g>
				<g>
					<path d="M200.7,114.5c-0.4,0-0.9-0.1-1.3-0.2c-1.3-0.3-2.3-1.1-3-2.3c-0.7-1.1-0.8-2.4-0.5-3.7c0.6-2.1,2.5-3.6,4.7-3.6
						c0.4,0,0.9,0.1,1.3,0.2c2.6,0.7,4.1,3.4,3.5,6C204.9,113,202.9,114.5,200.7,114.5L200.7,114.5z"/>
					<path d="M202,104.9c-2.6-0.7-5.2,0.8-5.9,3.4c-0.7,2.6,0.8,5.2,3.4,5.9c2.6,0.7,5.2-0.8,5.9-3.4
						C206.1,108.3,204.6,105.6,202,104.9z"/>
					<path d="M200.7,79.8c-2.2,0-4.1-1.5-4.7-3.6c-0.3-1.3-0.2-2.6,0.5-3.7c0.7-1.1,1.7-1.9,3-2.3c0.4-0.1,0.8-0.2,1.3-0.2
						c2.2,0,4.1,1.5,4.7,3.6c0.3,1.3,0.2,2.6-0.5,3.7c-0.7,1.1-1.7,1.9-3,2.3C201.6,79.8,201.1,79.8,200.7,79.8L200.7,79.8z"/>
					<path d="M202,79.6c2.6-0.7,4.1-3.3,3.4-5.9c-0.7-2.6-3.3-4.1-5.9-3.4c-2.6,0.7-4.1,3.3-3.4,5.9C196.7,78.8,199.4,80.3,202,79.6
						z"/>
					<path d="M183.4,49.8c-1.3,0-2.5-0.5-3.5-1.4c-0.9-0.9-1.4-2.1-1.4-3.5c0-1.3,0.5-2.5,1.4-3.5c0.9-0.9,2.1-1.4,3.5-1.4
						s2.5,0.5,3.5,1.4c1.9,1.9,1.9,5,0,6.9C185.9,49.3,184.7,49.8,183.4,49.8L183.4,49.8z"/>
					<path d="M180,48.4c1.9,1.9,5,1.9,6.8,0c1.9-1.9,1.9-5,0-6.8c-1.9-1.9-5-1.9-6.8,0C178.1,43.4,178.1,46.5,180,48.4z"/>
					<path d="M153.4,32.5c-0.4,0-0.9-0.1-1.3-0.2c-2.6-0.7-4.2-3.4-3.5-6c0.6-2.1,2.5-3.6,4.7-3.6c0.4,0,0.8,0.1,1.3,0.2
						c2.6,0.7,4.2,3.4,3.5,6C157.5,31,155.6,32.5,153.4,32.5C153.4,32.5,153.4,32.5,153.4,32.5z"/>
					<path d="M152.1,32.3c2.6,0.7,5.2-0.8,5.9-3.4c0.7-2.6-0.8-5.2-3.4-5.9c-2.6-0.7-5.2,0.8-5.9,3.4
						C148,28.9,149.5,31.6,152.1,32.3z"/>
					<path d="M118.7,32.5c-2.2,0-4.1-1.5-4.7-3.6c-0.3-1.3-0.2-2.6,0.5-3.7c0.7-1.1,1.7-1.9,3-2.3c0.4-0.1,0.8-0.2,1.3-0.2
						c2.2,0,4.1,1.5,4.7,3.6c0.7,2.6-0.9,5.3-3.5,6C119.6,32.4,119.1,32.5,118.7,32.5C118.7,32.5,118.7,32.5,118.7,32.5z"/>
					<path d="M120,32.3c2.6-0.7,4.1-3.3,3.4-5.9c-0.7-2.6-3.3-4.1-5.9-3.4c-2.6,0.7-4.1,3.3-3.4,5.9C114.7,31.4,117.4,33,120,32.3z"
						/>
					<path d="M88.7,49.8c-1.3,0-2.5-0.5-3.5-1.4c-0.9-0.9-1.4-2.1-1.4-3.5s0.5-2.5,1.4-3.5c0.9-0.9,2.1-1.4,3.5-1.4
						c1.3,0,2.5,0.5,3.5,1.4c0.9,0.9,1.4,2.1,1.4,3.5c0,1.3-0.5,2.5-1.4,3.5C91.2,49.3,90,49.8,88.7,49.8L88.7,49.8z"/>
					<path d="M85.3,48.4c1.9,1.9,5,1.9,6.8,0c1.9-1.9,1.9-5,0-6.8c-1.9-1.9-5-1.9-6.8,0C83.4,43.4,83.4,46.5,85.3,48.4z"/>
					<path d="M71.4,79.8c-0.4,0-0.9-0.1-1.3-0.2c-2.6-0.7-4.1-3.4-3.5-6c0.6-2.1,2.5-3.6,4.7-3.6c0.4,0,0.9,0.1,1.3,0.2
						c1.3,0.3,2.3,1.1,3,2.3c0.7,1.1,0.8,2.4,0.5,3.7C75.5,78.3,73.6,79.8,71.4,79.8C71.4,79.8,71.4,79.8,71.4,79.8z"/>
					<path d="M72.6,70.3c-2.6-0.7-5.2,0.8-5.9,3.4c-0.7,2.6,0.8,5.2,3.4,5.9c2.6,0.7,5.2-0.8,5.9-3.4C76.7,73.6,75.2,71,72.6,70.3z"
						/>
					<path d="M71.4,114.5c-2.2,0-4.1-1.5-4.7-3.6c-0.3-1.3-0.2-2.6,0.5-3.7c0.7-1.1,1.7-1.9,3-2.3c0.4-0.1,0.8-0.2,1.3-0.2
						c2.2,0,4.1,1.5,4.7,3.6c0.3,1.3,0.2,2.6-0.5,3.7c-0.7,1.1-1.7,1.9-3,2.3C72.2,114.4,71.8,114.5,71.4,114.5L71.4,114.5z"/>
					<path d="M70.1,104.9c-2.6,0.7-4.1,3.3-3.4,5.9c0.7,2.6,3.3,4.1,5.9,3.4c2.6-0.7,4.1-3.3,3.4-5.9
						C75.3,105.8,72.7,104.2,70.1,104.9z"/>
					<path d="M88.7,144.5c-1.3,0-2.5-0.5-3.5-1.4c-1.9-1.9-1.9-5,0-6.9c0.9-0.9,2.1-1.4,3.5-1.4c1.3,0,2.5,0.5,3.5,1.4
						c0.9,0.9,1.4,2.1,1.4,3.5c0,1.3-0.5,2.5-1.4,3.5C91.2,144,90,144.5,88.7,144.5C88.7,144.5,88.7,144.5,88.7,144.5z"/>
					<path d="M92.1,136.2c-1.9-1.9-5-1.9-6.8,0c-1.9,1.9-1.9,5,0,6.8c1.9,1.9,5,1.9,6.8,0C94,141.2,94,138.1,92.1,136.2z"/>
					<path d="M118.7,161.8c-0.4,0-0.9-0.1-1.3-0.2c-1.3-0.3-2.3-1.1-3-2.3c-0.7-1.1-0.8-2.4-0.5-3.7c0.6-2.1,2.5-3.6,4.7-3.6
						c0.4,0,0.9,0.1,1.3,0.2c1.3,0.3,2.3,1.1,3,2.3c0.7,1.1,0.8,2.4,0.5,3.7C122.9,160.4,120.9,161.8,118.7,161.8L118.7,161.8z"/>
					<path d="M120,152.3c-2.6-0.7-5.2,0.8-5.9,3.4c-0.7,2.6,0.8,5.2,3.4,5.9c2.6,0.7,5.2-0.8,5.9-3.4
						C124.1,155.6,122.5,153,120,152.3z"/>
					<path d="M153.4,161.8c-2.2,0-4.1-1.5-4.7-3.6c-0.3-1.3-0.2-2.6,0.5-3.7c0.7-1.1,1.7-1.9,3-2.3c0.4-0.1,0.8-0.2,1.3-0.2
						c2.2,0,4.1,1.5,4.7,3.6c0.7,2.6-0.9,5.3-3.5,6C154.2,161.8,153.8,161.8,153.4,161.8L153.4,161.8z"/>
					<path d="M152.1,152.3c-2.6,0.7-4.1,3.3-3.4,5.9c0.7,2.6,3.3,4.1,5.9,3.4c2.6-0.7,4.1-3.3,3.4-5.9
						C157.4,153.1,154.7,151.6,152.1,152.3z"/>
					<path d="M183.4,144.5c-1.3,0-2.5-0.5-3.5-1.4c-0.9-0.9-1.4-2.1-1.4-3.5c0-1.3,0.5-2.5,1.4-3.5c0.9-0.9,2.1-1.4,3.5-1.4
						c1.3,0,2.5,0.5,3.4,1.4c0.9,0.9,1.4,2.1,1.4,3.4c0,1.3-0.5,2.5-1.4,3.5C185.9,144,184.7,144.5,183.4,144.5L183.4,144.5z"/>
					<path d="M186.8,136.2c-1.9-1.9-5-1.9-6.8,0c-1.9,1.9-1.9,4.9,0,6.8c1.9,1.9,5,1.9,6.8,0C188.7,141.2,188.7,138.1,186.8,136.2z"
						/>
				</g>
			</g>
			<g>
				<path class="st2" d="M131,83.8l5.1,0c-0.3,1.5-2.6,12.5-2.6,12.7c-0.1,0.6,0.1,1.1,0.4,1.4c0.2,0.3,0.6,0.4,1,0.4
					c0.2,0,0.4,0,0.6-0.1c0.6-0.2,1.1-0.5,1.6-0.8c0.2-0.1,0.3-0.2,0.5-0.3c0.1,0,0.1-0.2,0.1-0.3l2.6-12.5c0-0.1,0-0.2,0.1-0.2
					l5.1-0.1c-0.2,1.3-1.9,9.6-2.5,12.4c0,0.2-0.1,0.4-0.1,0.7c0,0.6,0.3,1,1,1.2c0.2,0.1,0.4,0.1,0.7,0.1l0,0c0.4,0,0.7-0.1,1-0.3
					c0.4-0.3,1-0.6,1.6-1c0.5-0.4,1-0.8,1.5-1.3c0.3-0.4,0.7-0.5,1.2-0.5c0.2,0,0.4,0,0.6,0.1l-1,1.1c-0.8,0.8-1.5,1.5-2.3,2.2
					c-0.8,0.7-1.7,1.5-2.7,2.2c-0.8,0.6-1.7,0.8-2.6,0.8c-0.6,0-1.3-0.1-2-0.3c-1.2-0.4-1.9-1.3-2.2-2.6c-0.2,0.2-0.4,0.4-0.6,0.6
					c-1.4,1.1-2.8,2.3-4.8,2.4l-0.3,1.4l-0.3,1.2l-0.1,0.4c-0.1,0.3-0.1,0.6-0.2,0.8c0,0.6-0.3,0.8-0.9,1c-1,0.2-2.8,0.6-3.9,0.9
					c-0.4,0.1-0.8,0.2-0.8,0.2L131,83.8z"/>
				<path class="st2" d="M150.5,95.2c-1.1,1.1-2.2,2.3-3.3,3.3c-0.9,0.8-1.8,1.5-2.7,2.2c-1.4,1-3,1-4.5,0.5
					c-1.2-0.4-1.9-1.3-2.1-2.6c-1.6,1.3-3.1,2.9-5.4,3c-0.2,0.9-0.4,1.8-0.6,2.7c-0.1,0.4-0.2,0.8-0.2,1.2c0,0.6-0.3,0.8-0.9,0.9
					c-1.4,0.3-4.4,1-4.6,1.1c1.7-7.9,3.3-15.7,5-23.5c1.7,0,3.4,0,5.1,0c-0.3,1.3-2.6,12.5-2.6,12.6c-0.1,1.3,0.7,2.1,2,1.7
					c0.7-0.2,1.4-0.7,2.1-1.1c0.1-0.1,0.1-0.3,0.2-0.4c0.9-4.2,1.8-8.3,2.6-12.5c0-0.1,0.1-0.2,0.1-0.3c1.7,0,3.3,0,5,0
					c-0.3,1.3-2,9.5-2.6,12.4c0,0.2-0.1,0.5-0.1,0.7c0,0.7,0.3,1.1,1,1.2c0.6,0.1,1.2,0.1,1.7-0.2c0.5-0.3,1.1-0.6,1.6-1
					c0.5-0.4,1.1-0.8,1.5-1.3C149.2,95.1,149.7,95.1,150.5,95.2z"/>
			</g>
		</g>
		<g>
			<g>
				<polygon points="35.4,204.4 35.3,189.9 30.2,204.3 27.5,204.4 22.4,189.9 22.4,204.3 19.6,204.4 19.6,186.8 23.9,186.8 
					28.9,200.7 29,200.7 33.7,186.8 38.3,186.8 38.4,204.4 				"/>
				<polygon points="53,204.4 52.9,186.8 55.9,186.8 56,204.4 				"/>
				<path d="M78.5,204.8c-1.3,0-2.5-0.2-3.5-0.7c-1-0.5-1.9-1.1-2.6-1.9c-0.7-0.8-1.2-1.8-1.6-2.9c-0.4-1.1-0.6-2.3-0.6-3.7
					c0-1.3,0.2-2.6,0.6-3.7c0.4-1.1,0.9-2.1,1.6-2.9c0.7-0.8,1.6-1.5,2.6-1.9c1-0.5,2.2-0.7,3.4-0.7c1.2,0,2.3,0.2,3.2,0.5
					c1,0.3,1.8,0.9,2.4,1.6l-1.8,1.6c-0.6-0.5-1.1-0.9-1.7-1.2c-0.6-0.3-1.3-0.4-2-0.4c-0.9,0-1.6,0.2-2.3,0.6
					c-0.6,0.4-1.2,0.9-1.6,1.5c-0.4,0.6-0.7,1.4-1,2.2c-0.2,0.9-0.3,1.8-0.3,2.7c0,1,0.1,1.9,0.3,2.7c0.2,0.8,0.5,1.6,1,2.2
					c0.4,0.6,1,1.1,1.6,1.5c0.6,0.4,1.4,0.6,2.3,0.6c0.8,0,1.5-0.2,2.1-0.5c0.6-0.3,1.1-0.7,1.5-1.2l1.9,1.4
					c-0.6,0.8-1.3,1.4-2.3,1.8C80.9,204.6,79.8,204.8,78.5,204.8z"/>
				<path d="M106.9,204.4l-4-7.8l-2.6,0l0.1,7.7l-2.9,0.1l-0.1-17.6l6-0.1c0.8,0,1.7,0.1,2.4,0.3c0.8,0.2,1.4,0.5,2,0.8
					c0.6,0.4,1,0.9,1.4,1.5c0.3,0.6,0.5,1.4,0.5,2.2c0,0.7-0.1,1.3-0.4,1.9c-0.2,0.5-0.6,1-1,1.4c-0.4,0.4-0.8,0.7-1.3,0.9
					c-0.5,0.2-0.9,0.4-1.4,0.4l4.4,8.2H106.9z M100.4,194.8l2.6-0.1c1.1,0,2-0.3,2.6-0.8c0.7-0.5,1-1.3,1-2.2c0-0.6-0.1-1.1-0.3-1.4
					c-0.2-0.4-0.5-0.7-0.8-0.9c-0.3-0.2-0.7-0.4-1.2-0.5c-0.4-0.1-0.9-0.1-1.4-0.1h-2.6V194.8z"/>
				<path d="M130.7,204.8c-1.2,0-2.4-0.2-3.3-0.7c-1-0.4-1.8-1.1-2.5-1.9c-0.7-0.8-1.2-1.8-1.6-2.9c-0.4-1.1-0.5-2.4-0.5-3.8
					c0-1.4,0.2-2.6,0.5-3.8c0.3-1.1,0.9-2.1,1.5-2.9c0.7-0.8,1.5-1.4,2.5-1.9c1-0.4,2.1-0.7,3.4-0.7c1.2,0,2.4,0.2,3.3,0.7
					c1,0.4,1.8,1.1,2.5,1.9c0.7,0.8,1.2,1.8,1.6,2.9c0.4,1.1,0.5,2.4,0.5,3.8c0,1.4-0.2,2.6-0.5,3.8c-0.4,1.1-0.9,2.1-1.6,2.9
					c-0.7,0.8-1.5,1.4-2.5,1.9C133,204.6,131.9,204.8,130.7,204.8z M130.7,188.5c-0.8,0-1.5,0.2-2.1,0.5c-0.6,0.4-1.1,0.9-1.5,1.5
					c-0.4,0.6-0.7,1.4-0.9,2.2c-0.2,0.9-0.3,1.8-0.3,2.8c0,1,0.1,1.9,0.3,2.8c0.2,0.9,0.5,1.6,0.9,2.2c0.4,0.6,0.9,1.1,1.5,1.5
					c0.6,0.4,1.3,0.5,2.1,0.5c0.8,0,1.4-0.2,2-0.5c0.6-0.4,1.1-0.9,1.5-1.5c0.4-0.6,0.7-1.4,0.9-2.3c0.2-0.9,0.3-1.8,0.3-2.8
					c0-1-0.1-1.9-0.3-2.8c-0.2-0.9-0.5-1.6-0.9-2.2c-0.4-0.6-0.9-1.1-1.5-1.5C132.1,188.7,131.4,188.5,130.7,188.5z"/>
				<polygon points="163.6,204.4 154.2,188.4 154.2,204.3 153.1,204.4 153,186.8 154.6,186.8 163.9,202.7 163.9,186.8 165.1,186.8 
					165.1,204.4 				"/>
				<polygon points="163.7,204.2 154,187.7 154.1,204.2 153.3,204.2 153.2,187 154.5,186.9 164.2,203.5 164.1,187 164.9,186.9 
					165,204.2 				"/>
				<path d="M190,204.4l-1.7-4.9l-7.8,0l-1.7,4.8l-1.2,0l6-17.6l1.6,0l6,17.6H190z M180.9,198.6l7.2-0.1l-3.6-10.6L180.9,198.6z"/>
				<path d="M190.2,204.2l-1.7-4.9l-8,0l-1.7,4.8l-0.8,0l5.9-17.2l1.3,0l5.8,17.3H190.2z M180.7,198.8l7.7-0.1l-3.8-11.3
					L180.7,198.8z"/>
				<path d="M209.4,204.8c-1.2,0-2.2-0.2-3-0.5c-0.8-0.4-1.4-0.9-1.9-1.5c-0.5-0.6-0.8-1.4-1-2.2c-0.2-0.8-0.3-1.7-0.3-2.7v-11
					l1.1-0.1l0.1,10.8c0,0.8,0.1,1.5,0.2,2.3c0.1,0.7,0.3,1.4,0.7,2c0.3,0.6,0.8,1,1.5,1.4c0.6,0.4,1.5,0.5,2.6,0.5
					c1.1,0,1.9-0.2,2.6-0.5c0.6-0.3,1.1-0.8,1.5-1.4c0.4-0.6,0.6-1.2,0.7-2c0.1-0.8,0.2-1.5,0.2-2.3v-10.8l1.1-0.1l0.1,11.1
					c0,1-0.1,1.9-0.3,2.7c-0.2,0.8-0.5,1.6-1,2.2c-0.5,0.6-1.1,1.1-1.9,1.5C211.5,204.6,210.5,204.8,209.4,204.8z"/>
				<path d="M209.4,204.6c-1.1,0-2.1-0.2-2.9-0.5c-0.8-0.3-1.4-0.8-1.8-1.4c-0.5-0.6-0.8-1.3-1-2.1c-0.2-0.8-0.3-1.7-0.3-2.6V187
					l0.8-0.1l0.1,10.7c0,0.8,0.1,1.6,0.2,2.3c0.1,0.8,0.4,1.4,0.7,2c0.4,0.6,0.9,1.1,1.5,1.5c0.7,0.4,1.6,0.6,2.7,0.6
					c1.1,0,2-0.2,2.6-0.5c0.7-0.4,1.2-0.8,1.6-1.4c0.4-0.6,0.6-1.3,0.7-2c0.1-0.8,0.2-1.6,0.2-2.3V187l0.8-0.1l0.1,10.9
					c0,0.9-0.1,1.8-0.3,2.6c-0.2,0.8-0.5,1.5-1,2.1c-0.5,0.6-1.1,1.1-1.8,1.4C211.4,204.4,210.5,204.6,209.4,204.6z"/>
				<polygon points="232.2,204.4 232.1,187.7 227.6,187.7 227.6,186.8 237.8,186.8 237.9,187.7 233.3,187.7 233.3,204.4 				"/>
				<polygon points="232.4,204.2 232.3,187.5 227.8,187.6 227.8,187 237.6,186.9 237.7,187.5 233.1,187.6 233.2,204.2 				"/>
			</g>
			<path d="M250.3,192c-0.7,0-1.3-0.1-1.8-0.3c-0.6-0.2-1-0.6-1.4-1c-0.4-0.4-0.7-0.9-0.9-1.5c-0.2-0.6-0.3-1.3-0.3-2
				c0-0.7,0.1-1.4,0.3-2c0.2-0.6,0.5-1.1,0.9-1.5c0.4-0.4,0.9-0.7,1.4-1c0.6-0.2,1.2-0.3,1.8-0.3c0.7,0,1.3,0.1,1.8,0.3
				c0.6,0.2,1,0.6,1.4,1c0.4,0.4,0.7,0.9,0.9,1.5c0.2,0.6,0.3,1.3,0.3,2c0,0.7-0.1,1.4-0.3,2c-0.2,0.6-0.5,1.1-0.9,1.5
				c-0.4,0.4-0.9,0.8-1.4,1C251.6,191.9,251,192,250.3,192z M250.3,183.1c-0.6,0-1.1,0.1-1.5,0.3c-0.4,0.2-0.8,0.5-1.1,0.8
				c-0.3,0.4-0.6,0.8-0.7,1.3c-0.2,0.5-0.3,1-0.3,1.6s0.1,1.1,0.3,1.6c0.2,0.5,0.4,0.9,0.7,1.3c0.3,0.4,0.7,0.6,1.1,0.8
				c0.4,0.2,0.9,0.3,1.5,0.3c0.6,0,1.1-0.1,1.5-0.3c0.4-0.2,0.8-0.5,1.1-0.8c0.3-0.4,0.6-0.8,0.7-1.3c0.2-0.5,0.3-1,0.3-1.6
				s-0.1-1.1-0.3-1.6c-0.2-0.5-0.4-0.9-0.7-1.3c-0.3-0.4-0.7-0.6-1.1-0.8C251.4,183.2,250.9,183.1,250.3,183.1z M251.6,189.9
				l-1.6-2.4l-0.6,0l0.1,2.3l-0.9,0.1l-0.1-5.5l1.9-0.1c0.6,0,1,0.1,1.4,0.4c0.4,0.3,0.6,0.7,0.6,1.2c0,0.5-0.2,0.9-0.5,1.2
				c-0.2,0.2-0.5,0.3-0.8,0.4l1.8,2.5H251.6z M249.5,186.8l0.6-0.1c0.4,0,0.7-0.1,1-0.2c0.2-0.1,0.3-0.3,0.3-0.7
				c0-0.3-0.1-0.5-0.3-0.6c-0.2-0.1-0.5-0.2-0.8-0.2h-0.8V186.8z"/>
		</g>
	</g>
</g>
<g id="Ebene_1_Kopie" class="st0">
	<g class="st1">
		<g>
			<path d="M158.9,94.3c-0.2,0-0.5,0-0.7-0.1c-0.7-0.2-1.3-0.7-1.7-1.3c-0.4-0.6-0.5-1.4-0.3-2.1c0.3-1.2,1.4-2.1,2.7-2.1
				c0.2,0,0.5,0,0.7,0.1c1.5,0.4,2.4,1.9,2,3.4C161.3,93.4,160.2,94.3,158.9,94.3L158.9,94.3z"/>
			<path d="M158.2,94.1c1.5,0.4,3-0.5,3.4-1.9c0.4-1.5-0.5-3-1.9-3.4c-1.5-0.4-3,0.5-3.4,1.9C155.9,92.2,156.8,93.7,158.2,94.1z"/>
			<path d="M155.1,81.4c-1.3,0-2.4-0.9-2.7-2.1c-0.4-1.5,0.5-3,2-3.4c0.2-0.1,0.5-0.1,0.7-0.1c1.3,0,2.4,0.9,2.7,2.1
				c0.4,1.5-0.5,3-2,3.4C155.5,81.4,155.3,81.4,155.1,81.4C155.1,81.4,155.1,81.4,155.1,81.4z"/>
			<path d="M155.8,81.3c1.5-0.4,2.3-1.9,1.9-3.4c-0.4-1.5-1.9-2.3-3.4-1.9c-1.5,0.4-2.3,1.9-1.9,3.4
				C152.8,80.8,154.3,81.7,155.8,81.3z"/>
			<path d="M145.3,72.3c-0.7,0-1.4-0.3-2-0.8c-0.5-0.5-0.8-1.2-0.8-2c0-0.7,0.3-1.4,0.8-2c0.5-0.5,1.2-0.8,2-0.8
				c0.7,0,1.4,0.3,2,0.8c0.5,0.5,0.8,1.2,0.8,2c0,0.7-0.3,1.4-0.8,2C146.7,72,146,72.3,145.3,72.3L145.3,72.3z"/>
			<path d="M143.4,67.5c-1.1,1.1-1.1,2.8,0,3.9c1.1,1.1,2.8,1.1,3.9,0c1.1-1.1,1.1-2.8,0-3.9C146.2,66.5,144.4,66.5,143.4,67.5z"/>
			<path d="M132.3,69.2c-0.2,0-0.5,0-0.7-0.1c-1.5-0.4-2.4-1.9-2-3.4c0.3-1.2,1.4-2.1,2.7-2.1c0.2,0,0.5,0,0.7,0.1
				c0.7,0.2,1.3,0.7,1.7,1.3c0.4,0.6,0.5,1.4,0.3,2.1C134.6,68.4,133.5,69.2,132.3,69.2C132.3,69.2,132.3,69.2,132.3,69.2z"/>
			<path d="M133,63.8c-1.5-0.4-3,0.5-3.4,1.9c-0.4,1.5,0.5,3,1.9,3.4c1.5,0.4,3-0.5,3.4-1.9C135.3,65.7,134.4,64.2,133,63.8z"/>
			<path d="M119.4,73.1c-1.3,0-2.4-0.9-2.7-2.1c-0.4-1.5,0.5-3,2-3.4c0.2-0.1,0.5-0.1,0.7-0.1c1.3,0,2.4,0.9,2.7,2.1
				c0.4,1.5-0.5,3-2,3.4C119.9,73.1,119.7,73.1,119.4,73.1z"/>
			<path d="M120.1,73c1.5-0.4,2.3-1.9,1.9-3.4c-0.4-1.5-1.9-2.3-3.4-1.9c-1.5,0.4-2.3,1.9-1.9,3.4C117.2,72.5,118.7,73.3,120.1,73z"
				/>
			<path d="M110.3,82.9c-0.7,0-1.4-0.3-2-0.8c-0.5-0.5-0.8-1.2-0.8-2c0-0.7,0.3-1.4,0.8-2c0.5-0.5,1.2-0.8,2-0.8
				c0.7,0,1.4,0.3,2,0.8c1.1,1.1,1.1,2.9,0,4C111.7,82.6,111,82.9,110.3,82.9z"/>
			<path d="M108.3,78.1c-1.1,1.1-1.1,2.8,0,3.9c1.1,1.1,2.8,1.1,3.9,0c1.1-1.1,1.1-2.8,0-3.9C111.1,77,109.4,77,108.3,78.1z"/>
			<path d="M107.2,95.9c-0.2,0-0.5,0-0.7-0.1c-1.5-0.4-2.4-1.9-2-3.4c0.3-1.2,1.4-2.1,2.7-2.1c0.2,0,0.5,0,0.7,0.1
				c1.5,0.4,2.4,1.9,2,3.4C109.6,95,108.5,95.9,107.2,95.9L107.2,95.9z"/>
			<path d="M107.9,90.4c-1.5-0.4-3,0.5-3.4,1.9c-0.4,1.5,0.5,3,1.9,3.4c1.5,0.4,3-0.5,3.4-1.9C110.3,92.3,109.4,90.8,107.9,90.4z"/>
			<path d="M111.1,108.7c-1.3,0-2.4-0.9-2.7-2.1c-0.4-1.5,0.5-3,2-3.4c0.2-0.1,0.5-0.1,0.7-0.1c1.3,0,2.4,0.9,2.7,2.1
				c0.4,1.5-0.5,3-2,3.4C111.6,108.7,111.3,108.7,111.1,108.7L111.1,108.7z"/>
			<path d="M110.4,103.3c-1.5,0.4-2.3,1.9-1.9,3.4c0.4,1.5,1.9,2.3,3.4,1.9c1.5-0.4,2.3-1.9,1.9-3.4
				C113.3,103.7,111.8,102.9,110.4,103.3z"/>
			<path d="M120.8,117.9c-0.7,0-1.4-0.3-2-0.8c-0.5-0.5-0.8-1.2-0.8-2c0-0.7,0.3-1.4,0.8-2c0.5-0.5,1.2-0.8,2-0.8
				c0.7,0,1.4,0.3,2,0.8c1.1,1.1,1.1,2.9,0,3.9C122.3,117.6,121.6,117.9,120.8,117.9z"/>
			<path d="M122.8,117c1.1-1.1,1.1-2.8,0-3.9c-1.1-1.1-2.8-1.1-3.9,0c-1.1,1.1-1.1,2.8,0,3.9C120,118.1,121.7,118.1,122.8,117z"/>
			<path d="M133.9,120.9c-0.2,0-0.5,0-0.7-0.1c-0.7-0.2-1.3-0.7-1.7-1.3c-0.4-0.6-0.5-1.4-0.3-2.1c0.3-1.2,1.4-2.1,2.7-2.1
				c0.2,0,0.5,0,0.7,0.1c0.7,0.2,1.3,0.7,1.7,1.3c0.4,0.6,0.5,1.4,0.3,2.1C136.3,120.1,135.1,120.9,133.9,120.9L133.9,120.9z"/>
			<path d="M133.2,120.8c1.5,0.4,3-0.5,3.4-1.9c0.4-1.5-0.5-3-1.9-3.4c-1.5-0.4-3,0.5-3.4,1.9C130.8,118.9,131.7,120.4,133.2,120.8z
				"/>
			<path d="M146.7,117.1c-1.3,0-2.4-0.9-2.7-2.1c-0.2-0.7-0.1-1.5,0.3-2.1c0.4-0.6,1-1.1,1.7-1.3c0.2-0.1,0.5-0.1,0.7-0.1
				c1.3,0,2.4,0.9,2.7,2.1c0.4,1.5-0.5,3-2,3.4C147.2,117,147,117.1,146.7,117.1L146.7,117.1z"/>
			<path d="M146,111.6c-1.5,0.4-2.3,1.9-1.9,3.4c0.4,1.5,1.9,2.3,3.4,1.9c1.5-0.4,2.3-1.9,1.9-3.4C149,112.1,147.5,111.2,146,111.6z
				"/>
			<path d="M155.9,107.3c-0.7,0-1.4-0.3-2-0.8c-1.1-1.1-1.1-2.9,0-3.9c0.5-0.5,1.2-0.8,2-0.8c0.7,0,1.4,0.3,2,0.8
				c1.1,1.1,1.1,2.9,0,4C157.3,107,156.6,107.3,155.9,107.3z"/>
			<path d="M157.8,106.5c1.1-1.1,1.1-2.8,0-3.9c-1.1-1.1-2.8-1.1-3.9,0c-1.1,1.1-1.1,2.8,0,3.9C155,107.5,156.7,107.5,157.8,106.5z"
				/>
			<g>
				<path d="M172,95.6c-0.3,0-0.6,0-0.8-0.1c-1.7-0.5-2.8-2.3-2.3-4c0.4-1.4,1.7-2.4,3.2-2.4c0.3,0,0.6,0,0.8,0.1
					c1.7,0.5,2.8,2.3,2.3,4C174.7,94.6,173.4,95.6,172,95.6C172,95.6,172,95.6,172,95.6z"/>
				<path d="M172.8,89.3c-1.7-0.5-3.5,0.6-3.9,2.3c-0.5,1.7,0.6,3.5,2.3,3.9c1.7,0.5,3.5-0.6,3.9-2.3
					C175.5,91.5,174.5,89.7,172.8,89.3z"/>
				<path d="M166.8,76.2c-1.5,0-2.8-1-3.2-2.4c-0.2-0.8-0.1-1.7,0.3-2.5c0.4-0.8,1.1-1.3,2-1.5c0.3-0.1,0.6-0.1,0.8-0.1
					c1.5,0,2.8,1,3.1,2.4c0.2,0.8,0.1,1.7-0.3,2.5c-0.4,0.8-1.1,1.3-2,1.5C167.4,76.2,167.1,76.2,166.8,76.2
					C166.8,76.2,166.8,76.2,166.8,76.2z"/>
				<path d="M167.6,76c1.7-0.5,2.7-2.2,2.3-3.9c-0.5-1.7-2.2-2.7-3.9-2.3c-1.7,0.5-2.7,2.2-2.3,3.9C164.1,75.5,165.9,76.5,167.6,76z
					"/>
				<path d="M152.6,61.9c-0.9,0-1.7-0.3-2.3-1c-0.6-0.6-1-1.4-1-2.3c0-0.9,0.3-1.7,1-2.3c0.6-0.6,1.4-1,2.3-1c0.9,0,1.7,0.3,2.3,1
					c1.3,1.3,1.3,3.3,0,4.6C154.3,61.6,153.5,61.9,152.6,61.9C152.6,61.9,152.6,61.9,152.6,61.9z"/>
				<path d="M150.3,60.9c1.3,1.3,3.3,1.3,4.6,0c1.3-1.3,1.3-3.3,0-4.6c-1.3-1.3-3.3-1.3-4.6,0C149.1,57.6,149.1,59.7,150.3,60.9z"/>
				<path d="M133.2,56.7c-0.3,0-0.6,0-0.8-0.1c-1.7-0.5-2.8-2.3-2.3-4c0.4-1.4,1.7-2.4,3.2-2.4c0.3,0,0.6,0,0.8,0.1
					c1.7,0.5,2.8,2.3,2.3,4C135.9,55.7,134.6,56.7,133.2,56.7L133.2,56.7z"/>
				<path d="M132.3,56.5c1.7,0.5,3.5-0.6,3.9-2.3c0.5-1.7-0.6-3.5-2.3-3.9c-1.7-0.5-3.5,0.6-3.9,2.3
					C129.6,54.3,130.6,56.1,132.3,56.5z"/>
				<path d="M113.7,61.8c-1.5,0-2.8-1-3.2-2.4c-0.5-1.7,0.6-3.5,2.3-4c0.3-0.1,0.6-0.1,0.8-0.1c1.5,0,2.8,1,3.1,2.4
					c0.5,1.7-0.6,3.5-2.3,4C114.3,61.8,114,61.8,113.7,61.8z"/>
				<path d="M112.9,55.5c-1.7,0.5-2.7,2.2-2.3,3.9c0.5,1.7,2.2,2.7,3.9,2.3c1.7-0.5,2.7-2.2,2.3-3.9C116.4,56,114.6,55,112.9,55.5z"
					/>
				<path d="M99.4,76c-0.9,0-1.7-0.3-2.3-1c-0.6-0.6-1-1.4-1-2.3c0-0.9,0.3-1.7,1-2.3c0.6-0.6,1.4-1,2.3-1c0.9,0,1.7,0.3,2.3,1
					c0.6,0.6,1,1.4,1,2.3c0,0.9-0.3,1.7-1,2.3C101.1,75.7,100.3,76,99.4,76L99.4,76z"/>
				<path d="M97.2,75c1.3,1.3,3.3,1.3,4.6,0c1.3-1.3,1.3-3.3,0-4.6c-1.3-1.3-3.3-1.3-4.6,0C95.9,71.7,95.9,73.8,97.2,75z"/>
				<path d="M94.2,95.5c-0.3,0-0.6,0-0.8-0.1c-1.7-0.5-2.8-2.3-2.3-4c0.4-1.4,1.7-2.4,3.2-2.4c0.3,0,0.6,0,0.8,0.1
					c1.7,0.5,2.8,2.3,2.3,4C97,94.5,95.7,95.5,94.2,95.5L94.2,95.5z"/>
				<path d="M93.4,95.3c1.7,0.5,3.5-0.6,3.9-2.3c0.5-1.7-0.6-3.5-2.3-3.9c-1.7-0.5-3.5,0.6-3.9,2.3C90.6,93.1,91.6,94.8,93.4,95.3z"
					/>
				<path d="M99.4,114.9c-1.5,0-2.8-1-3.2-2.4c-0.5-1.7,0.6-3.5,2.3-4c0.3-0.1,0.6-0.1,0.8-0.1c1.5,0,2.8,1,3.2,2.4
					c0.5,1.7-0.6,3.5-2.3,4C99.9,114.9,99.6,114.9,99.4,114.9C99.4,114.9,99.4,114.9,99.4,114.9z"/>
				<path d="M98.5,108.5c-1.7,0.5-2.7,2.2-2.3,3.9c0.5,1.7,2.2,2.7,3.9,2.3c1.7-0.5,2.7-2.2,2.3-3.9
					C102,109.1,100.2,108.1,98.5,108.5z"/>
				<path d="M113.6,129.2c-0.9,0-1.7-0.3-2.3-1c-0.6-0.6-1-1.4-1-2.3c0-0.9,0.3-1.7,1-2.3c0.6-0.6,1.4-1,2.3-1c0.9,0,1.7,0.3,2.3,1
					c1.3,1.3,1.3,3.3,0,4.6C115.2,128.8,114.4,129.2,113.6,129.2L113.6,129.2z"/>
				<path d="M115.8,123.6c-1.3-1.3-3.3-1.3-4.6,0c-1.3,1.3-1.3,3.3,0,4.6c1.3,1.3,3.3,1.3,4.6,0
					C117.1,126.9,117.1,124.9,115.8,123.6z"/>
				<path d="M133,134.4c-0.3,0-0.6,0-0.8-0.1c-0.8-0.2-1.5-0.8-2-1.5c-0.4-0.8-0.6-1.6-0.3-2.5c0.4-1.4,1.7-2.4,3.1-2.4
					c0.3,0,0.6,0,0.8,0.1c0.8,0.2,1.5,0.8,2,1.5c0.4,0.8,0.6,1.6,0.3,2.5C135.7,133.4,134.5,134.4,133,134.4L133,134.4z"/>
				<path d="M133.8,128.1c-1.7-0.5-3.5,0.6-3.9,2.3c-0.5,1.7,0.6,3.5,2.3,3.9c1.7,0.5,3.5-0.6,3.9-2.3
					C136.5,130.3,135.5,128.5,133.8,128.1z"/>
				<path d="M152.4,129.3c-1.5,0-2.8-1-3.2-2.4c-0.2-0.8-0.1-1.7,0.3-2.5c0.4-0.8,1.1-1.3,2-1.5c0.3-0.1,0.6-0.1,0.9-0.1
					c1.5,0,2.8,1,3.1,2.4c0.5,1.7-0.6,3.5-2.3,4C153,129.2,152.7,129.3,152.4,129.3C152.4,129.3,152.4,129.3,152.4,129.3z"/>
				<path d="M153.3,129.1c1.7-0.5,2.7-2.2,2.3-3.9c-0.5-1.7-2.2-2.7-3.9-2.3c-1.7,0.5-2.7,2.2-2.3,3.9
					C149.8,128.6,151.5,129.6,153.3,129.1z"/>
				<path d="M166.7,115.1c-0.9,0-1.7-0.3-2.3-1c-1.3-1.3-1.3-3.3,0-4.6c0.6-0.6,1.4-1,2.3-1c0.9,0,1.7,0.3,2.3,1
					c1.3,1.3,1.3,3.3,0,4.6C168.4,114.7,167.6,115.1,166.7,115.1L166.7,115.1z"/>
				<path d="M169,109.5c-1.3-1.3-3.3-1.3-4.6,0c-1.3,1.3-1.3,3.3,0,4.6c1.3,1.3,3.3,1.3,4.6,0C170.2,112.8,170.2,110.8,169,109.5z"
					/>
			</g>
			<g>
				<path d="M185.3,102.5c-0.4,0-0.7,0-1.1-0.1c-2.2-0.6-3.6-2.9-3-5.1c0.5-1.8,2.2-3.1,4-3.1c0.4,0,0.7,0,1.1,0.1
					c1.1,0.3,2,1,2.5,2c0.6,1,0.7,2.1,0.4,3.2C188.8,101.2,187.2,102.5,185.3,102.5L185.3,102.5z"/>
				<path d="M184.2,102.3c2.2,0.6,4.5-0.7,5.1-2.9c0.6-2.2-0.7-4.5-2.9-5.1c-2.2-0.6-4.5,0.7-5.1,2.9
					C180.7,99.4,182,101.7,184.2,102.3z"/>
				<path d="M181.3,75.6c-1.9,0-3.6-1.3-4.1-3.1c-0.6-2.2,0.7-4.5,3-5.1c0.4-0.1,0.7-0.1,1.1-0.1c1.9,0,3.6,1.3,4,3.1
					c0.6,2.2-0.7,4.5-3,5.1C182,75.5,181.6,75.6,181.3,75.6L181.3,75.6z"/>
				<path d="M185.3,70.3c-0.6-2.2-2.9-3.5-5.1-2.9c-2.2,0.6-3.5,2.9-2.9,5.1c0.6,2.2,2.9,3.5,5.1,2.9
					C184.6,74.8,185.9,72.5,185.3,70.3z"/>
				<path d="M164.4,54.3c-1.1,0-2.2-0.4-3-1.2c-0.8-0.8-1.2-1.8-1.2-3s0.4-2.2,1.2-3c0.8-0.8,1.8-1.2,3-1.2s2.2,0.4,3,1.2
					c0.8,0.8,1.2,1.8,1.2,3s-0.4,2.2-1.2,3C166.5,53.8,165.5,54.3,164.4,54.3z"/>
				<path d="M167.3,47.1c-1.6-1.6-4.2-1.6-5.9,0c-1.6,1.6-1.6,4.2,0,5.9c1.6,1.6,4.2,1.6,5.9,0C168.9,51.4,168.9,48.8,167.3,47.1z"
					/>
				<path d="M139.1,44.3c-0.4,0-0.7,0-1.1-0.1c-2.2-0.6-3.6-2.9-3-5.1c0.5-1.8,2.2-3.1,4-3.1c0.4,0,0.7,0,1.1,0.1c1.1,0.3,2,1,2.5,2
					c0.6,1,0.7,2.1,0.4,3.2C142.6,43,141,44.3,139.1,44.3L139.1,44.3z"/>
				<path d="M138,44.1c2.2,0.6,4.5-0.7,5.1-2.9c0.6-2.2-0.7-4.5-2.9-5.1c-2.2-0.6-4.5,0.7-5.1,2.9C134.5,41.2,135.8,43.5,138,44.1z"
					/>
				<path d="M112.2,48.3c-1.9,0-3.6-1.3-4-3.1c-0.6-2.2,0.7-4.5,3-5.1c0.4-0.1,0.7-0.1,1.1-0.1c1.9,0,3.6,1.3,4.1,3.1
					c0.3,1.1,0.1,2.2-0.4,3.2c-0.6,1-1.5,1.7-2.5,2C112.9,48.2,112.5,48.3,112.2,48.3z"/>
				<path d="M113.2,48.1c2.2-0.6,3.5-2.9,2.9-5.1c-0.6-2.2-2.9-3.5-5.1-2.9c-2.2,0.6-3.5,2.9-2.9,5.1
					C108.8,47.4,111,48.7,113.2,48.1z"/>
				<path d="M90.9,65.2c-1.1,0-2.2-0.4-3-1.2c-1.6-1.6-1.6-4.3,0-5.9c0.8-0.8,1.8-1.2,3-1.2c1.1,0,2.2,0.4,3,1.2
					c0.8,0.8,1.2,1.8,1.2,3c0,1.1-0.4,2.2-1.2,3C93,64.8,92,65.2,90.9,65.2L90.9,65.2z"/>
				<path d="M93.8,58.1c-1.6-1.6-4.2-1.6-5.9,0c-1.6,1.6-1.6,4.3,0,5.9c1.6,1.6,4.2,1.6,5.9,0C95.4,62.3,95.4,59.7,93.8,58.1z"/>
				<path d="M80.9,90.5c-0.4,0-0.7,0-1.1-0.1c-1.1-0.3-2-1-2.5-2c-0.6-1-0.7-2.1-0.4-3.2c0.5-1.8,2.2-3.1,4.1-3.1
					c0.4,0,0.7,0,1.1,0.1c2.2,0.6,3.6,2.9,3,5.1C84.4,89.2,82.8,90.5,80.9,90.5L80.9,90.5z"/>
				<path d="M82,82.3c-2.2-0.6-4.5,0.7-5.1,2.9c-0.6,2.2,0.7,4.5,2.9,5.1c2.2,0.6,4.5-0.7,5.1-2.9C85.5,85.1,84.2,82.9,82,82.3z"/>
				<path d="M84.9,117.4c-1.9,0-3.6-1.3-4.1-3.1c-0.6-2.2,0.7-4.5,3-5.1c0.4-0.1,0.7-0.1,1.1-0.1c1.9,0,3.6,1.3,4.1,3.1
					c0.6,2.2-0.7,4.5-3,5.1C85.6,117.3,85.2,117.4,84.9,117.4L84.9,117.4z"/>
				<path d="M83.8,109.2c-2.2,0.6-3.5,2.9-2.9,5.1c0.6,2.2,2.9,3.5,5.1,2.9c2.2-0.6,3.5-2.9,2.9-5.1C88.3,109.9,86,108.6,83.8,109.2
					z"/>
				<path d="M101.8,138.7c-1.1,0-2.2-0.4-3-1.2c-0.8-0.8-1.2-1.8-1.2-3c0-1.1,0.4-2.2,1.2-3c0.8-0.8,1.8-1.2,3-1.2
					c1.1,0,2.2,0.4,3,1.2c1.6,1.6,1.6,4.3,0,5.9C104,138.2,102.9,138.7,101.8,138.7L101.8,138.7z"/>
				<path d="M104.7,131.5c-1.6-1.6-4.3-1.6-5.9,0c-1.6,1.6-1.6,4.3,0,5.9c1.6,1.6,4.2,1.6,5.9,0
					C106.3,135.8,106.3,133.2,104.7,131.5z"/>
				<path d="M127.1,148.7c-0.4,0-0.7,0-1.1-0.1c-2.2-0.6-3.6-2.9-3-5.1c0.5-1.8,2.2-3.1,4-3.1c0.4,0,0.7,0,1.1,0.1
					c1.1,0.3,2,1,2.5,2c0.6,1,0.7,2.1,0.4,3.2C130.6,147.4,129,148.7,127.1,148.7L127.1,148.7z"/>
				<path d="M128.1,140.5c-2.2-0.6-4.5,0.7-5.1,2.9c-0.6,2.2,0.7,4.5,2.9,5.1c2.2,0.6,4.5-0.7,5.1-2.9
					C131.7,143.3,130.4,141.1,128.1,140.5z"/>
				<path d="M154,144.7c-1.9,0-3.6-1.3-4-3.1c-0.3-1.1-0.1-2.2,0.4-3.2c0.6-1,1.5-1.7,2.5-2c0.4-0.1,0.7-0.1,1.1-0.1
					c1.9,0,3.6,1.3,4,3.1c0.6,2.2-0.7,4.5-3,5.1C154.7,144.6,154.3,144.7,154,144.7L154,144.7z"/>
				<path d="M152.9,136.5c-2.2,0.6-3.5,2.9-2.9,5.1c0.6,2.2,2.9,3.5,5.1,2.9c2.2-0.6,3.5-2.9,2.9-5.1
					C157.4,137.2,155.1,135.9,152.9,136.5z"/>
				<path d="M175.3,127.8c-1.1,0-2.2-0.4-3-1.2c-0.8-0.8-1.2-1.8-1.2-3c0-1.1,0.4-2.2,1.2-3c0.8-0.8,1.8-1.2,3-1.2
					c1.1,0,2.2,0.4,3,1.2c1.6,1.6,1.6,4.3,0,5.9C177.4,127.3,176.4,127.8,175.3,127.8z"/>
				<path d="M178.2,126.5c1.6-1.6,1.6-4.3,0-5.9c-1.6-1.6-4.2-1.6-5.9,0c-1.6,1.6-1.6,4.3,0,5.9C174,128.1,176.6,128.1,178.2,126.5z
					"/>
			</g>
			<g>
				<path d="M197.8,114.5c-0.4,0-0.9-0.1-1.3-0.2c-1.3-0.3-2.3-1.1-3-2.3c-0.7-1.1-0.8-2.4-0.5-3.7c0.6-2.1,2.5-3.6,4.7-3.6
					c0.4,0,0.9,0.1,1.3,0.2c2.6,0.7,4.1,3.4,3.5,6C201.9,113,200,114.5,197.8,114.5L197.8,114.5z"/>
				<path d="M199,104.9c-2.6-0.7-5.2,0.8-5.9,3.4c-0.7,2.6,0.8,5.2,3.4,5.9c2.6,0.7,5.2-0.8,5.9-3.4
					C203.1,108.3,201.6,105.6,199,104.9z"/>
				<path d="M197.7,79.8c-2.2,0-4.1-1.5-4.7-3.6c-0.3-1.3-0.2-2.6,0.5-3.7c0.7-1.1,1.7-1.9,3-2.3c0.4-0.1,0.8-0.2,1.3-0.2
					c2.2,0,4.1,1.5,4.7,3.6c0.3,1.3,0.2,2.6-0.5,3.7c-0.7,1.1-1.7,1.9-3,2.3C198.6,79.8,198.2,79.8,197.7,79.8L197.7,79.8z"/>
				<path d="M199,79.6c2.6-0.7,4.1-3.3,3.4-5.9c-0.7-2.6-3.3-4.1-5.9-3.4c-2.6,0.7-4.1,3.3-3.4,5.9C193.8,78.8,196.4,80.3,199,79.6z
					"/>
				<path d="M180.4,49.8c-1.3,0-2.5-0.5-3.5-1.4c-0.9-0.9-1.4-2.1-1.4-3.5c0-1.3,0.5-2.5,1.4-3.5c0.9-0.9,2.1-1.4,3.5-1.4
					s2.5,0.5,3.5,1.4c1.9,1.9,1.9,5,0,6.9C182.9,49.3,181.7,49.8,180.4,49.8L180.4,49.8z"/>
				<path d="M177,48.4c1.9,1.9,5,1.9,6.8,0c1.9-1.9,1.9-5,0-6.8c-1.9-1.9-5-1.9-6.8,0C175.1,43.4,175.1,46.5,177,48.4z"/>
				<path d="M150.4,32.5c-0.4,0-0.9-0.1-1.3-0.2c-2.6-0.7-4.2-3.4-3.5-6c0.6-2.1,2.5-3.6,4.7-3.6c0.4,0,0.8,0.1,1.3,0.2
					c2.6,0.7,4.2,3.4,3.5,6C154.5,31,152.6,32.5,150.4,32.5C150.4,32.5,150.4,32.5,150.4,32.5z"/>
				<path d="M149.1,32.3c2.6,0.7,5.2-0.8,5.9-3.4c0.7-2.6-0.8-5.2-3.4-5.9c-2.6-0.7-5.2,0.8-5.9,3.4C145,28.9,146.6,31.6,149.1,32.3
					z"/>
				<path d="M115.7,32.5c-2.2,0-4.1-1.5-4.7-3.6c-0.3-1.3-0.2-2.6,0.5-3.7c0.7-1.1,1.7-1.9,3-2.3c0.4-0.1,0.8-0.2,1.3-0.2
					c2.2,0,4.1,1.5,4.7,3.6c0.7,2.6-0.9,5.3-3.5,6C116.6,32.4,116.2,32.5,115.7,32.5C115.7,32.5,115.7,32.5,115.7,32.5z"/>
				<path d="M117,32.3c2.6-0.7,4.1-3.3,3.4-5.9c-0.7-2.6-3.3-4.1-5.9-3.4c-2.6,0.7-4.1,3.3-3.4,5.9C111.8,31.4,114.4,33,117,32.3z"
					/>
				<path d="M85.7,49.8c-1.3,0-2.5-0.5-3.5-1.4c-0.9-0.9-1.4-2.1-1.4-3.5s0.5-2.5,1.4-3.5c0.9-0.9,2.1-1.4,3.5-1.4s2.5,0.5,3.5,1.4
					c0.9,0.9,1.4,2.1,1.4,3.5c0,1.3-0.5,2.5-1.4,3.5C88.3,49.3,87,49.8,85.7,49.8L85.7,49.8z"/>
				<path d="M82.3,48.4c1.9,1.9,5,1.9,6.8,0c1.9-1.9,1.9-5,0-6.8c-1.9-1.9-5-1.9-6.8,0C80.4,43.4,80.4,46.5,82.3,48.4z"/>
				<path d="M68.4,79.8c-0.4,0-0.9-0.1-1.3-0.2c-2.6-0.7-4.1-3.4-3.5-6c0.6-2.1,2.5-3.6,4.7-3.6c0.4,0,0.9,0.1,1.3,0.2
					c1.3,0.3,2.3,1.1,3,2.3s0.8,2.4,0.5,3.7C72.5,78.3,70.6,79.8,68.4,79.8C68.4,79.8,68.4,79.8,68.4,79.8z"/>
				<path d="M69.6,70.3c-2.6-0.7-5.2,0.8-5.9,3.4c-0.7,2.6,0.8,5.2,3.4,5.9c2.6,0.7,5.2-0.8,5.9-3.4C73.8,73.6,72.2,71,69.6,70.3z"
					/>
				<path d="M68.4,114.5c-2.2,0-4.1-1.5-4.7-3.6c-0.3-1.3-0.2-2.6,0.5-3.7c0.7-1.1,1.7-1.9,3-2.3c0.4-0.1,0.8-0.2,1.3-0.2
					c2.2,0,4.1,1.5,4.7,3.6c0.3,1.3,0.2,2.6-0.5,3.7c-0.7,1.1-1.7,1.9-3,2.3C69.2,114.4,68.8,114.5,68.4,114.5L68.4,114.5z"/>
				<path d="M67.1,104.9c-2.6,0.7-4.1,3.3-3.4,5.9c0.7,2.6,3.3,4.1,5.9,3.4c2.6-0.7,4.1-3.3,3.4-5.9
					C72.4,105.8,69.7,104.2,67.1,104.9z"/>
				<path d="M85.7,144.5c-1.3,0-2.5-0.5-3.5-1.4c-1.9-1.9-1.9-5,0-6.9c0.9-0.9,2.1-1.4,3.5-1.4c1.3,0,2.5,0.5,3.5,1.4
					c0.9,0.9,1.4,2.1,1.4,3.5c0,1.3-0.5,2.5-1.4,3.5C88.3,144,87,144.5,85.7,144.5C85.7,144.5,85.7,144.5,85.7,144.5z"/>
				<path d="M89.1,136.2c-1.9-1.9-5-1.9-6.8,0c-1.9,1.9-1.9,5,0,6.8c1.9,1.9,5,1.9,6.8,0C91,141.2,91,138.1,89.1,136.2z"/>
				<path d="M115.7,161.8c-0.4,0-0.9-0.1-1.3-0.2c-1.3-0.3-2.3-1.1-3-2.3c-0.7-1.1-0.8-2.4-0.5-3.7c0.6-2.1,2.5-3.6,4.7-3.6
					c0.4,0,0.9,0.1,1.3,0.2c1.3,0.3,2.3,1.1,3,2.3c0.7,1.1,0.8,2.4,0.5,3.7C119.9,160.4,118,161.8,115.7,161.8L115.7,161.8z"/>
				<path d="M117,152.3c-2.6-0.7-5.2,0.8-5.9,3.4c-0.7,2.6,0.8,5.2,3.4,5.9c2.6,0.7,5.2-0.8,5.9-3.4
					C121.1,155.6,119.6,153,117,152.3z"/>
				<path d="M150.4,161.8c-2.2,0-4.1-1.5-4.7-3.6c-0.3-1.3-0.2-2.6,0.5-3.7c0.7-1.1,1.7-1.9,3-2.3c0.4-0.1,0.8-0.2,1.3-0.2
					c2.2,0,4.1,1.5,4.7,3.6c0.7,2.6-0.9,5.3-3.5,6C151.2,161.8,150.8,161.8,150.4,161.8L150.4,161.8z"/>
				<path d="M149.2,152.3c-2.6,0.7-4.1,3.3-3.4,5.9c0.7,2.6,3.3,4.1,5.9,3.4c2.6-0.7,4.1-3.3,3.4-5.9
					C154.4,153.1,151.7,151.6,149.2,152.3z"/>
				<path d="M180.4,144.5c-1.3,0-2.5-0.5-3.5-1.4c-0.9-0.9-1.4-2.1-1.4-3.5c0-1.3,0.5-2.5,1.4-3.5c0.9-0.9,2.1-1.4,3.5-1.4
					c1.3,0,2.5,0.5,3.4,1.4c0.9,0.9,1.4,2.1,1.4,3.4c0,1.3-0.5,2.5-1.4,3.5C182.9,144,181.7,144.5,180.4,144.5L180.4,144.5z"/>
				<path d="M183.8,136.2c-1.9-1.9-5-1.9-6.8,0c-1.9,1.9-1.9,4.9,0,6.8c1.9,1.9,5,1.9,6.8,0C185.7,141.2,185.7,138.1,183.8,136.2z"
					/>
			</g>
		</g>
		<g>
			<path class="st2" d="M128,83.8l5.1,0c-0.3,1.5-2.6,12.5-2.6,12.7c-0.1,0.6,0.1,1.1,0.4,1.4c0.2,0.3,0.6,0.4,1,0.4
				c0.2,0,0.4,0,0.6-0.1c0.6-0.2,1.1-0.5,1.6-0.8c0.2-0.1,0.3-0.2,0.5-0.3c0.1,0,0.1-0.2,0.1-0.3l2.6-12.5c0-0.1,0-0.2,0.1-0.2
				l5.1-0.1c-0.2,1.3-1.9,9.6-2.5,12.4c0,0.2-0.1,0.4-0.1,0.7c0,0.6,0.3,1,1,1.2c0.2,0.1,0.4,0.1,0.7,0.1l0,0c0.4,0,0.7-0.1,1-0.3
				c0.4-0.3,1-0.6,1.6-1c0.5-0.4,1-0.8,1.5-1.3c0.3-0.4,0.7-0.5,1.2-0.5c0.2,0,0.4,0,0.6,0.1l-1,1.1c-0.8,0.8-1.5,1.5-2.3,2.2
				c-0.8,0.7-1.7,1.5-2.7,2.2c-0.8,0.6-1.7,0.8-2.6,0.8c-0.6,0-1.3-0.1-2-0.3c-1.2-0.4-1.9-1.3-2.2-2.6c-0.2,0.2-0.4,0.4-0.6,0.6
				c-1.4,1.1-2.8,2.3-4.8,2.4l-0.3,1.4l-0.3,1.2l-0.1,0.4c-0.1,0.3-0.1,0.6-0.2,0.8c0,0.6-0.3,0.8-0.9,1c-1,0.2-2.8,0.6-3.9,0.9
				c-0.4,0.1-0.8,0.2-0.8,0.2L128,83.8z"/>
			<path class="st2" d="M147.5,95.2c-1.1,1.1-2.2,2.3-3.3,3.3c-0.9,0.8-1.8,1.5-2.7,2.2c-1.4,1-3,1-4.5,0.5
				c-1.2-0.4-1.9-1.3-2.1-2.6c-1.6,1.3-3.1,2.9-5.4,3c-0.2,0.9-0.4,1.8-0.6,2.7c-0.1,0.4-0.2,0.8-0.2,1.2c0,0.6-0.3,0.8-0.9,0.9
				c-1.4,0.3-4.4,1-4.6,1.1c1.7-7.9,3.3-15.7,5-23.5c1.7,0,3.4,0,5.1,0c-0.3,1.3-2.6,12.5-2.6,12.6c-0.1,1.3,0.7,2.1,2,1.7
				c0.7-0.2,1.4-0.7,2.1-1.1c0.1-0.1,0.1-0.3,0.2-0.4c0.9-4.2,1.8-8.3,2.6-12.5c0-0.1,0.1-0.2,0.1-0.3c1.7,0,3.3,0,5,0
				c-0.3,1.3-2,9.5-2.6,12.4c0,0.2-0.1,0.5-0.1,0.7c0,0.7,0.3,1.1,1,1.2c0.6,0.1,1.2,0.1,1.7-0.2c0.5-0.3,1.1-0.6,1.6-1
				c0.5-0.4,1.1-0.8,1.5-1.3C146.2,95.1,146.8,95.1,147.5,95.2z"/>
		</g>
	</g>
	<g class="st1">
		<path d="M24.5,205.8v-15.1h-0.1l-4.9,15.1h-2.5l-4.9-15.1H12v15.1H9.4v-18.2h4.1l4.7,14.4h0.1l4.6-14.4h4.3v18.2H24.5z"/>
		<path d="M44.1,205.8v-18.2h2.8v18.2H44.1z"/>
		<path d="M73.5,205.6c-0.9,0.4-1.9,0.7-3.2,0.7c-1.2,0-2.3-0.2-3.3-0.7c-1-0.5-1.8-1.1-2.5-2c-0.7-0.9-1.2-1.9-1.5-3
			c-0.4-1.2-0.5-2.4-0.5-3.8c0-1.4,0.2-2.6,0.5-3.8c0.4-1.2,0.9-2.2,1.6-3c0.7-0.8,1.5-1.5,2.5-2c1-0.5,2.1-0.7,3.3-0.7
			c1.1,0,2.2,0.2,3.1,0.5c0.9,0.4,1.7,0.9,2.3,1.6l-1.8,1.6c-0.5-0.5-1-1-1.6-1.2c-0.6-0.3-1.3-0.4-1.9-0.4c-0.9,0-1.6,0.2-2.2,0.6
			c-0.6,0.4-1.1,0.9-1.5,1.6s-0.7,1.5-0.9,2.4s-0.3,1.9-0.3,2.9s0.1,2,0.3,2.9c0.2,0.9,0.5,1.7,0.9,2.4c0.4,0.7,0.9,1.2,1.6,1.6
			c0.6,0.4,1.4,0.6,2.2,0.6c0.8,0,1.5-0.2,2-0.5c0.6-0.3,1.1-0.8,1.4-1.3l1.7,1.5C75.1,204.6,74.4,205.1,73.5,205.6z"/>
		<path d="M99.9,205.8l-3.8-8.1h-2.6v8.1h-2.8v-18.2h5.7c0.8,0,1.6,0.1,2.3,0.3c0.7,0.2,1.4,0.5,1.9,0.9c0.5,0.4,1,0.9,1.3,1.5
			c0.3,0.6,0.5,1.4,0.5,2.3c0,0.7-0.1,1.4-0.3,1.9c-0.2,0.5-0.5,1-0.9,1.4c-0.4,0.4-0.8,0.7-1.2,0.9c-0.4,0.2-0.9,0.4-1.3,0.4
			l4.2,8.6H99.9z M99.8,192.7c0-0.6-0.1-1.1-0.3-1.5c-0.2-0.4-0.5-0.7-0.8-1c-0.3-0.2-0.7-0.4-1.2-0.5c-0.4-0.1-0.9-0.1-1.3-0.1
			h-2.5v6.3h2.6c1.1,0,1.9-0.3,2.6-0.8C99.4,194.5,99.8,193.7,99.8,192.7z"/>
		<path d="M132.9,196.7c0,1.4-0.2,2.7-0.5,3.9c-0.3,1.2-0.8,2.2-1.5,3s-1.4,1.5-2.4,2c-0.9,0.5-2,0.7-3.2,0.7
			c-1.2,0-2.3-0.2-3.2-0.7c-0.9-0.5-1.7-1.1-2.4-2c-0.7-0.8-1.2-1.8-1.5-3c-0.3-1.2-0.5-2.5-0.5-3.9c0-1.4,0.2-2.7,0.5-3.9
			c0.3-1.2,0.8-2.2,1.5-3c0.6-0.8,1.4-1.5,2.4-1.9c0.9-0.5,2-0.7,3.2-0.7c1.2,0,2.2,0.2,3.2,0.7c0.9,0.5,1.7,1.1,2.4,1.9
			c0.7,0.8,1.2,1.8,1.5,3C132.7,194,132.9,195.3,132.9,196.7z M129.9,196.7c0-1-0.1-2-0.3-2.9c-0.2-0.9-0.5-1.7-0.9-2.4
			c-0.4-0.7-0.9-1.2-1.4-1.6c-0.6-0.4-1.2-0.6-2-0.6c-0.8,0-1.4,0.2-2,0.6s-1.1,0.9-1.5,1.6c-0.4,0.7-0.7,1.5-0.9,2.4
			c-0.2,0.9-0.3,1.9-0.3,2.9c0,1,0.1,2,0.3,2.9c0.2,0.9,0.5,1.7,0.9,2.4c0.4,0.7,0.9,1.2,1.5,1.6c0.6,0.4,1.3,0.6,2,0.6
			c0.8,0,1.4-0.2,2-0.6c0.6-0.4,1.1-0.9,1.4-1.6c0.4-0.7,0.7-1.5,0.9-2.4C129.8,198.7,129.9,197.7,129.9,196.7z"/>
		<path d="M158.8,205.8l-7.1-14.1h-0.1v14.1H149v-18.2h3.4l7,14.1h0.1v-14.1h2.6v18.2H158.8z"/>
		<path d="M188.9,205.8l-1.3-4.3h-6.4l-1.3,4.3h-2.8l5.6-18.2h3.7l5.4,18.2H188.9z M184.6,189.8h-0.1l-2.8,9.9h5.7L184.6,189.8z"/>
		<path d="M219.6,202.2c-0.2,0.8-0.6,1.5-1.1,2.1c-0.5,0.6-1.2,1.1-2,1.4c-0.8,0.4-1.9,0.5-3.1,0.5c-1.2,0-2.3-0.2-3.1-0.5
			c-0.8-0.4-1.5-0.8-2-1.4c-0.5-0.6-0.9-1.3-1.1-2.1c-0.2-0.8-0.3-1.7-0.3-2.6v-12h2.8v11.7c0,0.6,0.1,1.2,0.2,1.8
			c0.1,0.6,0.3,1.1,0.6,1.5c0.3,0.4,0.7,0.8,1.2,1.1c0.5,0.3,1.1,0.4,1.9,0.4c0.8,0,1.4-0.1,1.8-0.4s0.9-0.6,1.1-1.1
			c0.3-0.4,0.5-1,0.6-1.5c0.1-0.6,0.2-1.2,0.2-1.8v-11.7h2.8v12C219.9,200.5,219.8,201.3,219.6,202.2z"/>
		<path d="M242,189.6v16.2h-2.8v-16.2h-4.2v-2h11.3v2H242z"/>
	</g>
	<g class="st1">
		<path d="M254.9,188v3.4h-0.6V188h-0.9v-0.4h2.3v0.4H254.9z"/>
		<path d="M259.4,191.4v-3.2h0l-1,3.2h-0.5l-1-3.2h0v3.2h-0.5v-3.8h0.8l1,3h0l0.9-3h0.9v3.8H259.4z"/>
	</g>
	<g class="st1">
		<rect x="43.2" y="220.7" class="st3" width="175.8" height="23.5"/>
		<text transform="matrix(1 0 0 0.9 43.1838 235.8329)"><tspan x="0" y="0" class="st4 st5 st6">F</tspan><tspan x="16.8" y="0" class="st4 st5 st6">O</tspan><tspan x="36.7" y="0" class="st4 st5 st6">U</tspan><tspan x="56.6" y="0" class="st4 st5 st7">N</tspan><tspan x="76.9" y="0" class="st4 st5 st6">D</tspan><tspan x="96.1" y="0" class="st4 st5 st7">ATI</tspan><tspan x="144.3" y="0" class="st4 st5 st6">O</tspan><tspan x="164.6" y="0" class="st4 st5 st8">N</tspan></text>
	</g>
</g>
<g id="Ebene_1_Kopie_Kopie">
	<g>
		<g>
			<g>
				<path class="st9" d="M148.4,73.6c-0.3,0-0.5,0-0.7-0.1c-0.7-0.2-1.4-0.7-1.7-1.3c-0.4-0.7-0.5-1.4-0.3-2.2
					c0.3-1.3,1.5-2.1,2.8-2.1c0.3,0,0.5,0,0.7,0.1c1.5,0.4,2.4,2,2,3.5C150.8,72.7,149.7,73.6,148.4,73.6L148.4,73.6z"/>
				<path class="st9" d="M147.7,73.5c1.5,0.4,3.1-0.5,3.5-2c0.4-1.5-0.5-3.1-2-3.5c-1.5-0.4-3.1,0.5-3.5,2
					C145.3,71.5,146.2,73.1,147.7,73.5z"/>
				<path class="st9" d="M144.4,60.4c-1.3,0-2.4-0.9-2.8-2.1c-0.4-1.5,0.5-3.1,2-3.5c0.2-0.1,0.5-0.1,0.7-0.1c1.3,0,2.4,0.9,2.8,2.1
					c0.4,1.5-0.5,3.1-2,3.5C144.9,60.4,144.7,60.4,144.4,60.4C144.4,60.4,144.4,60.4,144.4,60.4z"/>
				<path class="st9" d="M145.2,60.3c1.5-0.4,2.4-2,2-3.5c-0.4-1.5-2-2.4-3.5-2c-1.5,0.4-2.4,2-2,3.5
					C142.1,59.8,143.6,60.7,145.2,60.3z"/>
				<path class="st9" d="M134.4,51c-0.8,0-1.5-0.3-2-0.8c-0.5-0.5-0.8-1.3-0.8-2c0-0.8,0.3-1.5,0.8-2c0.5-0.5,1.3-0.8,2-0.8
					c0.8,0,1.5,0.3,2,0.8c0.5,0.5,0.8,1.3,0.8,2c0,0.8-0.3,1.5-0.8,2C135.9,50.7,135.1,51,134.4,51L134.4,51z"/>
				<path class="st9" d="M132.4,46.1c-1.1,1.1-1.1,2.9,0,4c1.1,1.1,2.9,1.1,4,0c1.1-1.1,1.1-2.9,0-4C135.3,45,133.5,45,132.4,46.1z"
					/>
				<path class="st9" d="M121,47.8c-0.2,0-0.5,0-0.7-0.1c-1.5-0.4-2.4-2-2-3.5c0.3-1.3,1.5-2.1,2.8-2.1c0.3,0,0.5,0,0.7,0.1
					c0.7,0.2,1.4,0.7,1.7,1.3c0.4,0.7,0.5,1.4,0.3,2.2C123.4,47,122.3,47.8,121,47.8C121,47.8,121,47.8,121,47.8z"/>
				<path class="st9" d="M121.7,42.2c-1.5-0.4-3.1,0.5-3.5,2c-0.4,1.5,0.5,3.1,2,3.5c1.5,0.4,3.1-0.5,3.5-2
					C124.1,44.2,123.2,42.6,121.7,42.2z"/>
				<path class="st9" d="M107.8,51.8c-1.3,0-2.4-0.9-2.8-2.1c-0.4-1.5,0.5-3.1,2-3.5c0.2-0.1,0.5-0.1,0.7-0.1c1.3,0,2.4,0.9,2.8,2.1
					c0.4,1.5-0.5,3.1-2,3.5C108.3,51.8,108,51.8,107.8,51.8z"/>
				<path class="st9" d="M108.5,51.7c1.5-0.4,2.4-2,2-3.5c-0.4-1.5-2-2.4-3.5-2c-1.5,0.4-2.4,2-2,3.5
					C105.5,51.2,107,52.1,108.5,51.7z"/>
				<path class="st9" d="M98.3,61.9c-0.8,0-1.5-0.3-2-0.8c-0.5-0.5-0.8-1.3-0.8-2c0-0.8,0.3-1.5,0.8-2c0.5-0.5,1.3-0.8,2-0.8
					c0.8,0,1.5,0.3,2,0.8c1.1,1.1,1.1,2.9,0,4.1C99.8,61.6,99.1,61.9,98.3,61.9z"/>
				<path class="st9" d="M96.3,57c-1.1,1.1-1.1,2.9,0,4c1.1,1.1,2.9,1.1,4,0c1.1-1.1,1.1-2.9,0-4C99.2,55.9,97.5,55.9,96.3,57z"/>
				<path class="st9" d="M95.2,75.3c-0.3,0-0.5,0-0.7-0.1c-1.5-0.4-2.4-2-2-3.5c0.3-1.3,1.5-2.1,2.8-2.1c0.3,0,0.5,0,0.7,0.1
					c1.5,0.4,2.4,2,2,3.5C97.6,74.4,96.5,75.3,95.2,75.3L95.2,75.3z"/>
				<path class="st9" d="M95.9,69.7c-1.5-0.4-3.1,0.5-3.5,2c-0.4,1.5,0.5,3.1,2,3.5c1.5,0.4,3.1-0.5,3.5-2
					C98.3,71.6,97.4,70.1,95.9,69.7z"/>
				<path class="st9" d="M99.2,88.5c-1.3,0-2.4-0.9-2.8-2.1c-0.4-1.5,0.5-3.1,2-3.5c0.2-0.1,0.5-0.1,0.7-0.1c1.3,0,2.4,0.9,2.8,2.1
					c0.4,1.5-0.5,3.1-2,3.5C99.7,88.4,99.4,88.5,99.2,88.5L99.2,88.5z"/>
				<path class="st9" d="M98.5,82.9c-1.5,0.4-2.4,2-2,3.5c0.4,1.5,2,2.4,3.5,2c1.5-0.4,2.4-2,2-3.5C101.5,83.3,100,82.5,98.5,82.9z"
					/>
				<path class="st9" d="M109.2,97.9c-0.8,0-1.5-0.3-2-0.8c-0.5-0.5-0.8-1.3-0.8-2c0-0.8,0.3-1.5,0.8-2c0.5-0.5,1.3-0.8,2-0.8
					c0.8,0,1.5,0.3,2,0.8c1.1,1.1,1.1,2.9,0,4.1C110.7,97.6,110,97.9,109.2,97.9z"/>
				<path class="st9" d="M111.2,97c1.1-1.1,1.1-2.9,0-4c-1.1-1.1-2.9-1.1-4,0c-1.1,1.1-1.1,2.9,0,4C108.3,98.1,110.1,98.1,111.2,97z
					"/>
				<path class="st9" d="M122.6,101c-0.2,0-0.5,0-0.7-0.1c-0.7-0.2-1.4-0.7-1.7-1.3c-0.4-0.7-0.5-1.4-0.3-2.2
					c0.3-1.3,1.5-2.1,2.8-2.1c0.3,0,0.5,0,0.7,0.1c0.7,0.2,1.4,0.7,1.7,1.3c0.4,0.7,0.5,1.4,0.3,2.2
					C125.1,100.2,123.9,101,122.6,101L122.6,101z"/>
				<path class="st9" d="M121.9,100.9c1.5,0.4,3.1-0.5,3.5-2c0.4-1.5-0.5-3.1-2-3.5c-1.5-0.4-3.1,0.5-3.5,2
					C119.5,98.9,120.4,100.5,121.9,100.9z"/>
				<path class="st9" d="M135.8,97.1c-1.3,0-2.4-0.9-2.8-2.1c-0.2-0.7-0.1-1.5,0.3-2.2c0.4-0.7,1-1.1,1.7-1.3
					c0.2-0.1,0.5-0.1,0.8-0.1c1.3,0,2.4,0.9,2.8,2.1c0.4,1.5-0.5,3.1-2,3.5C136.3,97,136.1,97.1,135.8,97.1L135.8,97.1z"/>
				<path class="st9" d="M135.1,91.5c-1.5,0.4-2.4,2-2,3.5c0.4,1.5,2,2.4,3.5,2c1.5-0.4,2.4-2,2-3.5C138.2,91.9,136.6,91,135.1,91.5
					z"/>
				<path class="st9" d="M145.3,87c-0.8,0-1.5-0.3-2-0.8c-1.1-1.1-1.1-2.9,0-4.1c0.5-0.5,1.3-0.8,2-0.8c0.8,0,1.5,0.3,2,0.8
					c1.1,1.1,1.1,2.9,0,4.1C146.8,86.7,146,87,145.3,87z"/>
				<path class="st9" d="M147.3,86.1c1.1-1.1,1.1-2.9,0-4c-1.1-1.1-2.9-1.1-4,0c-1.1,1.1-1.1,2.9,0,4
					C144.4,87.2,146.2,87.2,147.3,86.1z"/>
				<g>
					<path class="st9" d="M161.8,75c-0.3,0-0.6,0-0.9-0.1c-1.8-0.5-2.9-2.3-2.4-4.1c0.4-1.5,1.7-2.5,3.2-2.5c0.3,0,0.6,0,0.9,0.1
						c1.8,0.5,2.9,2.3,2.4,4.1C164.7,74,163.3,75,161.8,75C161.8,75,161.8,75,161.8,75z"/>
					<path class="st9" d="M162.7,68.5c-1.8-0.5-3.6,0.6-4.1,2.3c-0.5,1.8,0.6,3.6,2.3,4.1c1.8,0.5,3.6-0.6,4.1-2.3
						C165.5,70.7,164.4,68.9,162.7,68.5z"/>
					<path class="st9" d="M156.5,55c-1.5,0-2.9-1-3.2-2.5c-0.2-0.9-0.1-1.8,0.3-2.5c0.4-0.8,1.2-1.3,2-1.6c0.3-0.1,0.6-0.1,0.9-0.1
						c1.5,0,2.8,1,3.2,2.5c0.2,0.9,0.1,1.8-0.3,2.5c-0.4,0.8-1.2,1.3-2,1.6C157.1,55,156.8,55,156.5,55C156.5,55,156.5,55,156.5,55z
						"/>
					<path class="st9" d="M157.3,54.8c1.8-0.5,2.8-2.3,2.3-4.1c-0.5-1.8-2.3-2.8-4.1-2.3c-1.8,0.5-2.8,2.3-2.3,4.1
						C153.8,54.3,155.6,55.3,157.3,54.8z"/>
					<path class="st9" d="M141.9,40.3c-0.9,0-1.7-0.3-2.4-1c-0.6-0.6-1-1.5-1-2.4c0-0.9,0.3-1.7,1-2.4c0.6-0.6,1.5-1,2.4-1
						c0.9,0,1.7,0.3,2.4,1c1.3,1.3,1.3,3.4,0,4.8C143.6,40,142.8,40.3,141.9,40.3C141.9,40.3,141.9,40.3,141.9,40.3z"/>
					<path class="st9" d="M139.5,39.3c1.3,1.3,3.4,1.3,4.7,0c1.3-1.3,1.3-3.4,0-4.7c-1.3-1.3-3.4-1.3-4.7,0
						C138.2,35.9,138.2,38,139.5,39.3z"/>
					<path class="st9" d="M121.9,34.9c-0.3,0-0.6,0-0.9-0.1c-1.8-0.5-2.9-2.3-2.4-4.1c0.4-1.5,1.7-2.5,3.2-2.5c0.3,0,0.6,0,0.9,0.1
						c1.8,0.5,2.9,2.3,2.4,4.1C124.8,33.9,123.4,34.9,121.9,34.9L121.9,34.9z"/>
					<path class="st9" d="M121,34.8c1.8,0.5,3.6-0.6,4.1-2.3c0.5-1.8-0.6-3.6-2.3-4.1c-1.8-0.5-3.6,0.6-4.1,2.3
						C118.2,32.5,119.3,34.3,121,34.8z"/>
					<path class="st9" d="M101.9,40.2c-1.5,0-2.8-1-3.2-2.5c-0.5-1.8,0.6-3.6,2.4-4.1c0.3-0.1,0.6-0.1,0.9-0.1c1.5,0,2.8,1,3.2,2.5
						c0.5,1.8-0.6,3.6-2.4,4.1C102.5,40.2,102.2,40.2,101.9,40.2z"/>
					<path class="st9" d="M101,33.7c-1.8,0.5-2.8,2.3-2.3,4.1c0.5,1.8,2.3,2.8,4.1,2.3c1.8-0.5,2.8-2.3,2.3-4.1
						C104.6,34.3,102.8,33.2,101,33.7z"/>
					<path class="st9" d="M87.2,54.8c-0.9,0-1.7-0.3-2.4-1c-0.6-0.6-1-1.5-1-2.4s0.4-1.7,1-2.4c0.6-0.6,1.5-1,2.4-1
						c0.9,0,1.7,0.3,2.4,1c0.6,0.6,1,1.5,1,2.4c0,0.9-0.3,1.7-1,2.4C89,54.5,88.1,54.8,87.2,54.8L87.2,54.8z"/>
					<path class="st9" d="M84.9,53.8c1.3,1.3,3.4,1.3,4.7,0c1.3-1.3,1.3-3.4,0-4.7c-1.3-1.3-3.4-1.3-4.7,0
						C83.6,50.4,83.6,52.5,84.9,53.8z"/>
					<path class="st9" d="M81.8,74.8c-0.3,0-0.6,0-0.9-0.1c-1.8-0.5-2.9-2.3-2.4-4.1c0.4-1.5,1.7-2.5,3.2-2.5c0.3,0,0.6,0,0.9,0.1
						c1.8,0.5,2.9,2.3,2.4,4.1C84.7,73.8,83.3,74.8,81.8,74.8L81.8,74.8z"/>
					<path class="st9" d="M80.9,74.7c1.8,0.5,3.6-0.6,4.1-2.3c0.5-1.8-0.6-3.6-2.3-4.1c-1.8-0.5-3.6,0.6-4.1,2.3
						C78.1,72.4,79.2,74.2,80.9,74.7z"/>
					<path class="st9" d="M87.1,94.8c-1.5,0-2.9-1-3.2-2.5c-0.5-1.8,0.6-3.6,2.4-4.1c0.3-0.1,0.6-0.1,0.9-0.1c1.5,0,2.9,1,3.2,2.5
						c0.5,1.8-0.6,3.6-2.4,4.1C87.7,94.8,87.4,94.8,87.1,94.8C87.1,94.8,87.1,94.8,87.1,94.8z"/>
					<path class="st9" d="M86.3,88.3c-1.8,0.5-2.8,2.3-2.3,4.1c0.5,1.8,2.3,2.8,4.1,2.3c1.8-0.5,2.8-2.3,2.3-4.1
						C89.8,88.9,88,87.8,86.3,88.3z"/>
					<path class="st9" d="M101.7,109.5c-0.9,0-1.7-0.4-2.4-1c-0.6-0.6-1-1.5-1-2.4c0-0.9,0.3-1.7,1-2.4c0.6-0.6,1.5-1,2.4-1
						c0.9,0,1.7,0.4,2.4,1c1.3,1.3,1.3,3.4,0,4.7C103.5,109.2,102.6,109.5,101.7,109.5L101.7,109.5z"/>
					<path class="st9" d="M104.1,103.8c-1.3-1.3-3.4-1.3-4.7,0c-1.3,1.3-1.3,3.4,0,4.7c1.3,1.3,3.4,1.3,4.7,0
						C105.4,107.2,105.4,105.1,104.1,103.8z"/>
					<path class="st9" d="M121.7,114.9c-0.3,0-0.6,0-0.9-0.1c-0.9-0.2-1.6-0.8-2-1.6c-0.4-0.8-0.6-1.7-0.3-2.5
						c0.4-1.5,1.7-2.5,3.2-2.5c0.3,0,0.6,0,0.9,0.1c0.9,0.2,1.6,0.8,2,1.6c0.4,0.8,0.6,1.7,0.3,2.5
						C124.6,113.9,123.2,114.9,121.7,114.9L121.7,114.9z"/>
					<path class="st9" d="M122.6,108.4c-1.8-0.5-3.6,0.6-4.1,2.3c-0.5,1.8,0.6,3.6,2.3,4.1c1.8,0.5,3.6-0.6,4.1-2.3
						C125.4,110.6,124.3,108.8,122.6,108.4z"/>
					<path class="st9" d="M141.7,109.6c-1.5,0-2.9-1-3.2-2.5c-0.2-0.9-0.1-1.8,0.3-2.6c0.4-0.8,1.2-1.3,2-1.6
						c0.3-0.1,0.6-0.1,0.9-0.1c1.5,0,2.8,1,3.2,2.5c0.5,1.8-0.6,3.6-2.4,4.1C142.3,109.6,142,109.6,141.7,109.6
						C141.7,109.6,141.7,109.6,141.7,109.6z"/>
					<path class="st9" d="M142.6,109.4c1.8-0.5,2.8-2.3,2.3-4.1c-0.5-1.8-2.3-2.8-4.1-2.3c-1.8,0.5-2.8,2.3-2.3,4.1
						C139,108.9,140.8,109.9,142.6,109.4z"/>
					<path class="st9" d="M156.4,95c-0.9,0-1.7-0.3-2.4-1c-1.3-1.3-1.3-3.4,0-4.8c0.6-0.6,1.5-1,2.4-1c0.9,0,1.7,0.3,2.4,1
						c1.3,1.3,1.3,3.4,0,4.7C158.1,94.7,157.3,95,156.4,95L156.4,95z"/>
					<path class="st9" d="M158.7,89.3c-1.3-1.3-3.4-1.3-4.7,0c-1.3,1.3-1.3,3.4,0,4.7c1.3,1.3,3.4,1.3,4.7,0
						C160,92.7,160,90.6,158.7,89.3z"/>
				</g>
				<g>
					<path class="st9" d="M175.5,82.1c-0.4,0-0.7,0-1.1-0.1c-2.3-0.6-3.7-3-3.1-5.3c0.5-1.9,2.2-3.2,4.2-3.2c0.4,0,0.8,0.1,1.1,0.1
						c1.1,0.3,2,1,2.6,2c0.6,1,0.7,2.2,0.4,3.3C179.2,80.7,177.4,82.1,175.5,82.1L175.5,82.1z"/>
					<path class="st9" d="M174.4,81.9c2.3,0.6,4.6-0.7,5.2-3c0.6-2.3-0.7-4.6-3-5.2c-2.3-0.6-4.6,0.7-5.2,3
						C170.8,78.9,172.1,81.2,174.4,81.9z"/>
					<path class="st9" d="M171.4,54.4c-2,0-3.7-1.3-4.2-3.2c-0.6-2.3,0.8-4.7,3.1-5.3c0.4-0.1,0.7-0.1,1.1-0.1
						c1.9,0,3.7,1.3,4.2,3.2c0.6,2.3-0.8,4.7-3,5.3C172.1,54.3,171.8,54.4,171.4,54.4L171.4,54.4z"/>
					<path class="st9" d="M175.5,49c-0.6-2.3-3-3.6-5.2-3c-2.3,0.6-3.6,3-3,5.2c0.6,2.3,2.9,3.6,5.2,3
						C174.8,53.6,176.1,51.2,175.5,49z"/>
					<path class="st9" d="M154,32.5c-1.2,0-2.2-0.4-3.1-1.3c-0.8-0.8-1.3-1.9-1.3-3.1c0-1.2,0.4-2.2,1.3-3.1c0.8-0.8,1.9-1.3,3-1.3
						s2.2,0.4,3.1,1.3c0.8,0.8,1.3,1.9,1.3,3.1c0,1.2-0.4,2.2-1.3,3.1C156.2,32,155.1,32.5,154,32.5z"/>
					<path class="st9" d="M157,25.1c-1.7-1.7-4.4-1.7-6,0c-1.7,1.7-1.7,4.4,0,6c1.7,1.7,4.4,1.7,6,0C158.7,29.5,158.7,26.8,157,25.1
						z"/>
					<path class="st9" d="M128,22.2c-0.4,0-0.8,0-1.1-0.1c-2.3-0.6-3.7-3-3.1-5.3c0.5-1.9,2.2-3.2,4.2-3.2c0.4,0,0.8,0.1,1.1,0.1
						c1.1,0.3,2,1,2.6,2c0.6,1,0.7,2.2,0.4,3.3C131.6,20.9,129.9,22.2,128,22.2L128,22.2z"/>
					<path class="st9" d="M126.9,22c2.3,0.6,4.6-0.7,5.2-3c0.6-2.3-0.7-4.6-3-5.2c-2.3-0.6-4.6,0.7-5.2,3S124.6,21.4,126.9,22z"/>
					<path class="st9" d="M100.3,26.3c-1.9,0-3.7-1.3-4.2-3.2c-0.6-2.3,0.8-4.7,3.1-5.3c0.4-0.1,0.7-0.1,1.1-0.1
						c1.9,0,3.7,1.3,4.2,3.2c0.3,1.1,0.1,2.3-0.4,3.3s-1.5,1.7-2.6,2C101.1,26.2,100.7,26.3,100.3,26.3z"/>
					<path class="st9" d="M101.4,26.1c2.3-0.6,3.6-3,3-5.2c-0.6-2.3-3-3.6-5.2-3c-2.3,0.6-3.6,3-3,5.2
						C96.8,25.4,99.1,26.7,101.4,26.1z"/>
					<path class="st9" d="M78.4,43.7c-1.2,0-2.2-0.4-3.1-1.3c-1.7-1.7-1.7-4.4,0-6.1c0.8-0.8,1.9-1.3,3.1-1.3c1.2,0,2.2,0.4,3.1,1.3
						c0.8,0.8,1.3,1.9,1.3,3.1s-0.4,2.2-1.3,3.1C80.6,43.2,79.5,43.7,78.4,43.7L78.4,43.7z"/>
					<path class="st9" d="M81.4,36.4c-1.7-1.7-4.4-1.7-6,0c-1.7,1.7-1.7,4.4,0,6c1.7,1.7,4.4,1.7,6,0C83.1,40.7,83.1,38,81.4,36.4z"
						/>
					<path class="st9" d="M68.1,69.7c-0.4,0-0.8-0.1-1.1-0.1c-1.1-0.3-2-1-2.6-2c-0.6-1-0.7-2.2-0.4-3.3c0.5-1.9,2.2-3.2,4.2-3.2
						c0.4,0,0.8,0,1.1,0.1c2.3,0.6,3.7,3,3.1,5.3C71.8,68.4,70.1,69.7,68.1,69.7L68.1,69.7z"/>
					<path class="st9" d="M69.2,61.3c-2.3-0.6-4.6,0.7-5.2,3c-0.6,2.3,0.7,4.6,3,5.2c2.3,0.6,4.6-0.7,5.2-3
						C72.8,64.2,71.5,61.9,69.2,61.3z"/>
					<path class="st9" d="M72.2,97.4c-2,0-3.7-1.3-4.2-3.2c-0.6-2.3,0.8-4.7,3-5.3c0.4-0.1,0.7-0.1,1.1-0.1c2,0,3.7,1.3,4.2,3.2
						c0.6,2.3-0.8,4.7-3.1,5.3C73,97.3,72.6,97.4,72.2,97.4L72.2,97.4z"/>
					<path class="st9" d="M71.1,88.9c-2.3,0.6-3.6,3-3,5.2c0.6,2.3,3,3.6,5.2,3c2.3-0.6,3.6-3,3-5.2C75.7,89.7,73.4,88.3,71.1,88.9z
						"/>
					<path class="st9" d="M89.6,119.3c-1.2,0-2.2-0.4-3-1.3c-0.8-0.8-1.3-1.9-1.3-3c0-1.2,0.4-2.2,1.3-3.1c0.8-0.8,1.9-1.3,3.1-1.3
						c1.2,0,2.2,0.4,3.1,1.3c1.7,1.7,1.7,4.4,0,6.1C91.9,118.8,90.8,119.3,89.6,119.3L89.6,119.3z"/>
					<path class="st9" d="M92.6,111.9c-1.7-1.7-4.4-1.7-6,0c-1.7,1.7-1.7,4.4,0,6c1.7,1.7,4.4,1.7,6,0
						C94.3,116.3,94.3,113.6,92.6,111.9z"/>
					<path class="st9" d="M115.6,129.6c-0.4,0-0.8-0.1-1.1-0.1c-2.3-0.6-3.7-3-3.1-5.3c0.5-1.9,2.2-3.2,4.2-3.2
						c0.4,0,0.8,0.1,1.1,0.1c1.1,0.3,2,1,2.6,2c0.6,1,0.7,2.2,0.4,3.3C119.3,128.3,117.6,129.6,115.6,129.6L115.6,129.6z"/>
					<path class="st9" d="M116.7,121.1c-2.3-0.6-4.6,0.7-5.2,3c-0.6,2.3,0.7,4.6,3,5.2c2.3,0.6,4.6-0.7,5.2-3
						C120.4,124.1,119,121.7,116.7,121.1z"/>
					<path class="st9" d="M143.3,125.5c-1.9,0-3.7-1.3-4.2-3.2c-0.3-1.1-0.1-2.3,0.4-3.3c0.6-1,1.5-1.7,2.6-2
						c0.4-0.1,0.7-0.1,1.1-0.1c1.9,0,3.7,1.3,4.2,3.2c0.6,2.3-0.8,4.7-3.1,5.3C144.1,125.4,143.7,125.5,143.3,125.5L143.3,125.5z"/>
					<path class="st9" d="M142.2,117c-2.3,0.6-3.6,2.9-3,5.2c0.6,2.3,3,3.6,5.2,3c2.3-0.6,3.6-3,3-5.2
						C146.8,117.8,144.5,116.4,142.2,117z"/>
					<path class="st9" d="M165.2,108.1c-1.2,0-2.2-0.4-3.1-1.3c-0.8-0.8-1.3-1.9-1.3-3.1c0-1.2,0.4-2.2,1.3-3.1
						c0.8-0.8,1.9-1.3,3.1-1.3c1.2,0,2.2,0.4,3.1,1.3c1.7,1.7,1.7,4.4,0,6.1C167.4,107.6,166.4,108.1,165.2,108.1z"/>
					<path class="st9" d="M168.2,106.8c1.7-1.7,1.7-4.4,0-6c-1.7-1.7-4.4-1.7-6,0c-1.7,1.7-1.7,4.4,0,6
						C163.9,108.4,166.6,108.4,168.2,106.8z"/>
				</g>
				<g>
					<path class="st9" d="M188.3,94.4c-0.4,0-0.9-0.1-1.3-0.2c-1.3-0.3-2.4-1.2-3.1-2.3c-0.7-1.2-0.8-2.5-0.5-3.8
						c0.6-2.2,2.6-3.7,4.8-3.7c0.4,0,0.9,0.1,1.3,0.2c2.7,0.7,4.3,3.5,3.6,6.1C192.6,92.9,190.6,94.4,188.3,94.4L188.3,94.4z"/>
					<path class="st9" d="M189.6,84.6c-2.7-0.7-5.4,0.9-6.1,3.5c-0.7,2.7,0.9,5.4,3.5,6.1c2.7,0.7,5.4-0.9,6.1-3.5
						C193.9,88,192.3,85.3,189.6,84.6z"/>
					<path class="st9" d="M188.3,58.8c-2.3,0-4.3-1.5-4.9-3.7c-0.3-1.3-0.2-2.7,0.5-3.8c0.7-1.2,1.8-2,3.1-2.3
						c0.4-0.1,0.9-0.2,1.3-0.2c2.3,0,4.3,1.5,4.8,3.7c0.3,1.3,0.2,2.6-0.5,3.8c-0.7,1.2-1.8,2-3.1,2.3
						C189.2,58.7,188.8,58.8,188.3,58.8L188.3,58.8z"/>
					<path class="st9" d="M189.6,58.5c2.7-0.7,4.2-3.4,3.5-6.1c-0.7-2.7-3.4-4.2-6.1-3.5c-2.7,0.7-4.2,3.4-3.5,6.1
						C184.2,57.7,187,59.3,189.6,58.5z"/>
					<path class="st9" d="M170.5,27.9c-1.3,0-2.6-0.5-3.6-1.5c-0.9-0.9-1.5-2.2-1.5-3.5c0-1.3,0.5-2.6,1.5-3.6
						c0.9-0.9,2.2-1.5,3.6-1.5s2.6,0.5,3.6,1.5c2,2,2,5.1,0,7.1C173.1,27.4,171.9,27.9,170.5,27.9L170.5,27.9z"/>
					<path class="st9" d="M167,26.4c1.9,1.9,5.1,1.9,7,0c1.9-1.9,1.9-5.1,0-7c-1.9-1.9-5.1-1.9-7,0C165,21.3,165,24.4,167,26.4z"/>
					<path class="st9" d="M139.6,10.1c-0.4,0-0.9-0.1-1.3-0.2c-2.7-0.7-4.3-3.5-3.6-6.2c0.6-2.2,2.6-3.7,4.9-3.7
						c0.4,0,0.9,0.1,1.3,0.2c2.7,0.7,4.3,3.5,3.6,6.2C143.9,8.5,141.9,10.1,139.6,10.1C139.6,10.1,139.6,10.1,139.6,10.1z"/>
					<path class="st9" d="M138.3,9.8c2.7,0.7,5.4-0.9,6.1-3.5c0.7-2.7-0.9-5.4-3.5-6.1c-2.7-0.7-5.4,0.9-6.1,3.5
						C134.1,6.4,135.7,9.1,138.3,9.8z"/>
					<path class="st9" d="M104,10.1c-2.3,0-4.3-1.5-4.8-3.7C98.8,5,99,3.7,99.6,2.5c0.7-1.2,1.8-2,3.1-2.3c0.4-0.1,0.9-0.2,1.3-0.2
						c2.3,0,4.3,1.5,4.8,3.7c0.7,2.7-0.9,5.4-3.6,6.2C104.8,10,104.4,10.1,104,10.1C104,10.1,104,10.1,104,10.1z"/>
					<path class="st9" d="M105.3,9.8c2.7-0.7,4.2-3.4,3.5-6.1c-0.7-2.7-3.4-4.2-6.1-3.5c-2.7,0.7-4.2,3.4-3.5,6.1
						C99.9,9,102.6,10.5,105.3,9.8z"/>
					<path class="st9" d="M73.1,27.9c-1.3,0-2.6-0.5-3.6-1.5c-0.9-0.9-1.5-2.2-1.5-3.6c0-1.3,0.5-2.6,1.5-3.6
						c0.9-0.9,2.2-1.5,3.6-1.5s2.6,0.5,3.6,1.5c0.9,0.9,1.5,2.2,1.5,3.6c0,1.3-0.5,2.6-1.5,3.6C75.7,27.4,74.4,27.9,73.1,27.9
						L73.1,27.9z"/>
					<path class="st9" d="M69.6,26.4c1.9,1.9,5.1,1.9,7,0c1.9-1.9,1.9-5.1,0-7c-1.9-1.9-5.1-1.9-7,0C67.6,21.3,67.6,24.4,69.6,26.4z
						"/>
					<path class="st9" d="M55.3,58.8c-0.4,0-0.9-0.1-1.3-0.2c-2.7-0.7-4.3-3.5-3.6-6.2c0.6-2.2,2.6-3.7,4.9-3.7
						c0.4,0,0.9,0.1,1.3,0.2c1.3,0.3,2.4,1.2,3,2.3c0.7,1.2,0.8,2.5,0.5,3.8C59.5,57.2,57.5,58.8,55.3,58.8
						C55.3,58.8,55.3,58.8,55.3,58.8z"/>
					<path class="st9" d="M56.6,48.9c-2.7-0.7-5.4,0.9-6.1,3.5c-0.7,2.7,0.9,5.4,3.5,6.1c2.7,0.7,5.4-0.9,6.1-3.5
						C60.8,52.4,59.2,49.6,56.6,48.9z"/>
					<path class="st9" d="M55.3,94.4c-2.3,0-4.3-1.5-4.9-3.7c-0.3-1.3-0.2-2.6,0.5-3.8c0.7-1.2,1.8-2,3.1-2.3
						c0.4-0.1,0.9-0.2,1.3-0.2c2.3,0,4.3,1.5,4.8,3.7c0.3,1.3,0.2,2.7-0.5,3.8c-0.7,1.2-1.8,2-3,2.3C56.1,94.4,55.7,94.4,55.3,94.4
						L55.3,94.4z"/>
					<path class="st9" d="M54,84.6c-2.7,0.7-4.2,3.4-3.5,6.1c0.7,2.7,3.4,4.2,6.1,3.5c2.7-0.7,4.2-3.4,3.5-6.1
						C59.4,85.4,56.6,83.9,54,84.6z"/>
					<path class="st9" d="M73.1,125.3c-1.3,0-2.6-0.5-3.6-1.5c-2-2-2-5.1,0-7.1c0.9-0.9,2.2-1.5,3.5-1.5c1.3,0,2.6,0.5,3.6,1.5
						c0.9,0.9,1.5,2.2,1.5,3.6c0,1.3-0.5,2.6-1.5,3.6C75.7,124.8,74.4,125.3,73.1,125.3C73.1,125.3,73.1,125.3,73.1,125.3z"/>
					<path class="st9" d="M76.6,116.7c-1.9-1.9-5.1-1.9-7,0c-1.9,1.9-1.9,5.1,0,7c1.9,1.9,5.1,1.9,7,0
						C78.6,121.8,78.6,118.7,76.6,116.7z"/>
					<path class="st9" d="M104,143.1c-0.4,0-0.9-0.1-1.3-0.2c-1.3-0.3-2.4-1.2-3.1-2.3s-0.9-2.5-0.5-3.8c0.6-2.2,2.6-3.7,4.8-3.7
						c0.4,0,0.9,0.1,1.3,0.2c1.3,0.3,2.4,1.2,3.1,2.3c0.7,1.2,0.8,2.5,0.5,3.8C108.2,141.6,106.2,143.1,104,143.1L104,143.1z"/>
					<path class="st9" d="M105.3,133.3c-2.7-0.7-5.4,0.9-6.1,3.5c-0.7,2.7,0.9,5.4,3.5,6.1c2.7,0.7,5.4-0.9,6.1-3.5
						C109.5,136.7,107.9,134,105.3,133.3z"/>
					<path class="st9" d="M139.6,143.1c-2.3,0-4.3-1.5-4.8-3.7c-0.3-1.3-0.2-2.7,0.5-3.8c0.7-1.2,1.8-2,3-2.3
						c0.4-0.1,0.9-0.2,1.3-0.2c2.3,0,4.3,1.5,4.8,3.7c0.7,2.7-0.9,5.4-3.6,6.1C140.5,143.1,140.1,143.1,139.6,143.1L139.6,143.1z"/>
					<path class="st9" d="M138.3,133.3c-2.7,0.7-4.2,3.4-3.5,6.1c0.7,2.7,3.4,4.2,6.1,3.5c2.7-0.7,4.2-3.4,3.5-6.1
						C143.7,134.2,141,132.6,138.3,133.3z"/>
					<path class="st9" d="M170.5,125.3c-1.3,0-2.6-0.5-3.5-1.5c-0.9-0.9-1.5-2.2-1.5-3.6c0-1.3,0.5-2.6,1.5-3.6s2.2-1.5,3.6-1.5
						c1.3,0,2.6,0.5,3.5,1.5c0.9,0.9,1.5,2.2,1.5,3.5c0,1.3-0.5,2.6-1.5,3.6C173.1,124.8,171.8,125.3,170.5,125.3L170.5,125.3z"/>
					<path class="st9" d="M174,116.7c-1.9-1.9-5.1-1.9-7,0c-1.9,1.9-1.9,5.1,0,7c1.9,1.9,5.1,1.9,7,0C176,121.8,176,118.7,174,116.7
						z"/>
				</g>
			</g>
			<g>
				<path class="st10" d="M116.6,62.8l5.3,0c-0.3,1.5-2.6,12.8-2.7,13c-0.1,0.6,0.1,1.1,0.4,1.4c0.2,0.3,0.6,0.4,1,0.4
					c0.2,0,0.4,0,0.6-0.1c0.6-0.2,1.1-0.5,1.6-0.8c0.2-0.1,0.4-0.2,0.5-0.3c0.1,0,0.1-0.2,0.1-0.4l2.7-12.9c0-0.1,0-0.2,0.1-0.2
					l5.3-0.1c-0.2,1.4-2,9.9-2.6,12.8c0,0.2-0.1,0.4-0.1,0.7c0,0.7,0.3,1.1,1,1.2c0.2,0.1,0.5,0.1,0.7,0.1l0,0c0.4,0,0.7-0.1,1-0.3
					c0.5-0.3,1.1-0.6,1.6-1.1c0.5-0.4,1.1-0.8,1.6-1.4c0.3-0.4,0.7-0.5,1.3-0.5c0.2,0,0.4,0,0.6,0.1l-1,1.2
					c-0.8,0.8-1.5,1.6-2.3,2.3c-0.8,0.8-1.8,1.5-2.8,2.2c-0.8,0.6-1.7,0.9-2.7,0.9c-0.6,0-1.3-0.1-2-0.4c-1.2-0.4-2-1.3-2.2-2.7
					c-0.2,0.2-0.4,0.4-0.6,0.6c-1.4,1.2-2.8,2.4-4.9,2.5l-0.3,1.5l-0.3,1.3l-0.1,0.4c-0.1,0.3-0.1,0.6-0.2,0.9c0,0.6-0.3,0.9-0.9,1
					c-1,0.2-2.9,0.7-4,0.9c-0.4,0.1-0.9,0.2-0.9,0.2L116.6,62.8z"/>
				<path class="st10" d="M136.6,74.5c-1.2,1.2-2.2,2.3-3.4,3.4c-0.9,0.8-1.8,1.5-2.8,2.2c-1.4,1-3,1-4.7,0.5
					c-1.3-0.4-2-1.3-2.2-2.7c-1.7,1.4-3.2,2.9-5.6,3c-0.2,0.9-0.4,1.8-0.6,2.7c-0.1,0.4-0.2,0.8-0.2,1.2c0,0.6-0.3,0.8-0.9,0.9
					c-1.4,0.3-4.5,1.1-4.7,1.1c1.7-8.1,3.4-16.1,5.1-24.2c1.7,0,3.4,0,5.2,0c-0.3,1.3-2.7,12.8-2.7,13c-0.1,1.4,0.7,2.2,2.1,1.8
					c0.8-0.2,1.4-0.7,2.1-1.2c0.1-0.1,0.1-0.3,0.2-0.4c0.9-4.3,1.8-8.6,2.7-12.9c0-0.1,0.1-0.2,0.1-0.3c1.7,0,3.4,0,5.2,0
					c-0.3,1.3-2,9.8-2.6,12.7c0,0.2-0.1,0.5-0.1,0.7c0,0.7,0.3,1.1,1,1.3c0.6,0.2,1.2,0.1,1.7-0.2c0.6-0.3,1.1-0.7,1.6-1.1
					c0.6-0.4,1.1-0.9,1.6-1.4C135.3,74.5,135.9,74.4,136.6,74.5z"/>
			</g>
		</g>
		<polygon class="st9" points="33.8,209.9 33.7,209.8 33.4,209.8 27.1,209.8 26.7,210 26.6,210.2 26.5,210.5 26.5,224.5 26.7,224.9 
			26.9,225 27.2,225.1 28.7,225.1 28.9,225.1 29,225 29.2,224.9 29.3,224.7 29.4,224.4 29.3,218.6 33.2,218.5 33.6,218.3 
			33.7,218.2 33.8,217.9 33.7,216.6 33.5,216.2 33.3,216.1 33.1,216 29.4,216.1 29.3,212.4 29.3,212.4 33.5,212.3 33.9,212.1 
			34,212 34.1,211.7 34,210.3 		"/>
		<path class="st9" d="M54.5,211.7c-0.5-0.7-1.1-1.3-1.8-1.7c-0.7-0.4-1.6-0.6-2.5-0.6c-0.9,0-1.8,0.2-2.5,0.6
			c-0.7,0.4-1.3,1-1.8,1.7c-0.5,0.7-0.9,1.6-1.1,2.5c-0.2,1-0.4,2-0.4,3.1c0,1.1,0.1,2.2,0.4,3.2c0.3,1,0.6,1.8,1.1,2.5
			c0.5,0.7,1.1,1.3,1.9,1.7c0.7,0.4,1.6,0.6,2.5,0.6c0.9,0,1.8-0.2,2.5-0.6c0.7-0.4,1.3-1,1.8-1.7c0.5-0.7,0.9-1.6,1.1-2.5
			c0.2-0.9,0.4-2,0.4-3.2c0-1.1-0.1-2.2-0.4-3.1C55.3,213.3,54.9,212.5,54.5,211.7z M52.7,219.7c-0.1,0.7-0.3,1.3-0.6,1.7
			c-0.2,0.5-0.5,0.8-0.9,1.1c-0.3,0.2-0.7,0.3-1.1,0.3c-0.4,0-0.8-0.1-1.2-0.3c-0.4-0.3-0.7-0.6-0.9-1.1c-0.3-0.5-0.5-1.1-0.6-1.7
			c-0.1-0.7-0.2-1.4-0.2-2.2c0-0.8,0.1-1.5,0.2-2.2c0.1-0.7,0.3-1.2,0.6-1.7c0.2-0.4,0.5-0.8,0.9-1c0.3-0.2,0.7-0.3,1.2-0.3
			c0.4,0,0.8,0.1,1.1,0.3c0.4,0.3,0.7,0.6,0.9,1.1c0.3,0.5,0.5,1.1,0.6,1.7c0.1,0.7,0.2,1.4,0.2,2.2C52.9,218.2,52.9,219,52.7,219.7
			z"/>
		<path class="st9" d="M76.6,209.9l-0.2-0.1l-0.3-0.1l-1.7,0.1l-0.4,0.2l-0.1,0.2l-0.1,0.3v8.9c0,0.5,0,1-0.1,1.4
			c-0.1,0.4-0.2,0.8-0.4,1.1c-0.2,0.3-0.4,0.5-0.6,0.7c-0.3,0.2-0.6,0.3-1.1,0.3c-0.5,0-0.8-0.1-1.1-0.2c-0.3-0.2-0.5-0.4-0.6-0.7
			c-0.2-0.3-0.3-0.7-0.4-1.1c-0.1-0.5-0.1-0.9-0.1-1.4l0-9l-0.2-0.4l-0.2-0.1l-0.3-0.1l-1.7,0.1l-0.4,0.2l-0.1,0.2l-0.1,0.3v9.1
			c0,0.8,0.1,1.5,0.2,2.2c0.2,0.7,0.5,1.4,0.9,1.9c0.4,0.6,1,1,1.6,1.3c0.7,0.3,1.5,0.5,2.4,0.5c0.9,0,1.7-0.2,2.4-0.5
			c0.7-0.3,1.2-0.8,1.6-1.3c0.4-0.5,0.7-1.2,0.9-1.9c0.2-0.7,0.2-1.4,0.2-2.2l0-9.2L76.6,209.9z"/>
		<polygon class="st9" points="98.6,209.9 98.4,209.8 98.1,209.8 96.6,209.8 96.2,210 96.1,210.2 96,210.5 96.1,215.2 96.2,219.4 
			91.7,210 91.3,209.8 89.3,209.8 88.9,210 88.8,210.2 88.7,210.5 88.7,224.6 89,224.9 89.1,225 89.4,225.1 91,225.1 91.3,224.9 
			91.5,224.7 91.5,224.4 91.5,219.7 91.4,215.5 95.9,224.9 96.3,225.1 98.1,225.1 98.3,225.1 98.5,225 98.6,224.9 98.8,224.7 
			98.8,224.4 98.8,210.3 		"/>
		<path class="st9" d="M119.7,211.8c-0.6-0.7-1.2-1.2-2-1.5c-0.8-0.3-1.7-0.5-2.6-0.5l-3.5,0.1l-0.4,0.2l-0.1,0.2l-0.1,0.3l0,14.1
			l0.2,0.4l0.2,0.1l0.3,0.1h3.3c0.9,0,1.8-0.2,2.6-0.5c0.8-0.3,1.5-0.8,2-1.5c0.6-0.7,1-1.5,1.3-2.4c0.3-0.9,0.4-2,0.4-3.2
			c0-1.2-0.1-2.3-0.4-3.2C120.6,213.3,120.2,212.4,119.7,211.8z M118.1,219.8c-0.2,0.6-0.4,1.2-0.8,1.6c-0.3,0.4-0.7,0.7-1.1,0.9
			c-0.4,0.2-0.9,0.3-1.4,0.3l-1,0.1l0,0v-10.3h1.1c0.5,0,0.9,0.1,1.3,0.3c0.4,0.2,0.8,0.5,1.1,0.9c0.3,0.4,0.6,0.9,0.8,1.6
			c0.2,0.7,0.3,1.5,0.3,2.4C118.4,218.4,118.3,219.2,118.1,219.8z"/>
		<path class="st9" d="M137.2,209.8l-2.3,0.2l-0.4,0.3l-3.9,14.1l0.2,0.5l0.2,0.2l0.3,0.1l1.8-0.2l0.4-0.4l0.7-3l3.9-0.2l1.1,3.4
			l0.4,0.3h1.6l0.2-0.1l0.1-0.1l0.2-0.2l0.1-0.2l0-0.3l-4.1-14.2L137.2,209.8z M135.5,219.2l-0.4,0h-0.2l1.3-5l1.1,3.9l0,0.1
			l0.2,0.9L135.5,219.2z"/>
		<polygon class="st9" points="158.9,209.9 158.7,209.8 158.5,209.7 150.8,209.8 150.4,210 150.3,210.2 150.2,210.5 150.3,211.8 
			150.5,212.2 150.7,212.3 151,212.4 153.2,212.2 153.2,212.2 153.3,224.6 153.5,225 153.7,225.1 153.9,225.2 155.5,225.2 
			155.7,225.1 155.8,225 156,224.9 156.1,224.7 156.2,224.4 156.1,212.4 158.6,212.3 159,212.1 159.1,211.9 159.2,211.6 
			159.1,210.3 		"/>
		<polygon class="st9" points="172.3,209.9 172.1,209.8 171.9,209.7 170.2,209.8 169.8,210 169.7,210.2 169.6,210.5 169.7,224.6 
			169.9,225 170.1,225.1 170.3,225.2 171.9,225.2 172.1,225.1 172.2,225 172.4,224.9 172.5,224.7 172.6,224.4 172.5,210.3 		"/>
		<path class="st9" d="M194.3,211.7c-0.5-0.7-1.1-1.3-1.8-1.7c-0.7-0.4-1.6-0.6-2.5-0.6c-0.9,0-1.8,0.2-2.5,0.6
			c-0.7,0.4-1.4,1-1.9,1.7c-0.5,0.7-0.9,1.6-1.1,2.5c-0.2,0.9-0.4,2-0.4,3.1c0,1.1,0.1,2.2,0.4,3.2c0.3,1,0.6,1.8,1.1,2.5
			c0.5,0.7,1.1,1.3,1.9,1.7c0.7,0.4,1.6,0.6,2.5,0.6c0.9,0,1.8-0.2,2.5-0.6c0.7-0.4,1.3-1,1.8-1.7c0.5-0.7,0.9-1.6,1.1-2.5
			c0.2-1,0.4-2,0.4-3.2c0-1.1-0.1-2.2-0.4-3.1C195.2,213.3,194.8,212.5,194.3,211.7z M192.6,219.7c-0.1,0.7-0.3,1.3-0.6,1.7
			c-0.2,0.5-0.5,0.8-0.9,1.1c-0.3,0.2-0.7,0.3-1.1,0.3c-0.4,0-0.8-0.1-1.2-0.3c-0.4-0.3-0.7-0.6-0.9-1.1c-0.3-0.5-0.5-1.1-0.6-1.7
			c-0.1-0.7-0.2-1.4-0.2-2.2c0-0.8,0.1-1.5,0.2-2.2c0.1-0.7,0.3-1.2,0.6-1.7c0.2-0.4,0.5-0.8,0.9-1c0.3-0.2,0.7-0.3,1.2-0.3
			c0.4,0,0.8,0.1,1.1,0.3c0.3,0.3,0.7,0.6,0.9,1.1c0.3,0.5,0.5,1,0.6,1.7c0.1,0.7,0.2,1.4,0.2,2.2
			C192.8,218.2,192.8,219,192.6,219.7z"/>
		<polygon class="st9" points="217.1,210.3 216.9,209.9 216.7,209.8 216.4,209.8 214.9,209.8 214.5,210 214.4,210.2 214.3,210.5 
			214.4,215.2 214.4,219.4 210,210 209.6,209.8 207.5,209.8 207.2,210 207,210.2 207,210.5 207,224.5 207.2,224.9 207.4,225 
			207.7,225.1 209.3,225.1 209.6,224.9 209.7,224.7 209.8,224.4 209.7,219.7 209.7,215.5 214.2,224.9 214.6,225.1 216.4,225.1 
			216.6,225.1 216.7,225 216.9,224.9 217,224.7 217.1,224.4 		"/>
		<path class="st9" d="M15.5,188.3v-15.3h-0.1l-5.1,15.5H7.7l-4.9-15.5H2.7v15.5H0v-18.7h4.3l4.8,14.8h0.1l4.8-14.8h4.4v18.7h-2.9
			V188.3z"/>
		<path class="st9" d="M35.5,188.3v-18.7h2.9v18.7H35.5z"/>
		<path class="st9" d="M65.7,188.1c-0.9,0.4-2,0.7-3.2,0.7c-1.2,0-2.4-0.3-3.3-0.8c-1.1-0.5-1.9-1.2-2.5-2c-0.7-0.9-1.2-1.9-1.6-3.1
			c-0.4-1.2-0.5-2.5-0.5-3.9c0-1.5,0.1-2.7,0.5-3.9c0.4-1.2,0.9-2.3,1.6-3.1c0.7-0.9,1.6-1.6,2.5-2c0.9-0.5,2.1-0.8,3.3-0.8
			c1.2,0,2.3,0.1,3.2,0.5c0.9,0.4,1.7,0.9,2.4,1.7l-1.7,1.6c-0.5-0.5-1.1-0.9-1.6-1.2c-0.7-0.3-1.3-0.4-2-0.4
			c-0.9,0-1.6,0.3-2.3,0.7s-1.2,0.9-1.6,1.6c-0.4,0.7-0.7,1.5-0.9,2.4s-0.3,1.9-0.3,2.9c0,1.1,0.1,2,0.3,2.9
			c0.3,0.9,0.5,1.7,0.9,2.4c0.4,0.7,0.9,1.2,1.6,1.6s1.5,0.7,2.3,0.7c0.8,0,1.5-0.1,2.1-0.5s1.1-0.8,1.5-1.3l1.7,1.6
			C67.3,187,66.6,187.6,65.7,188.1z"/>
		<path class="st9" d="M92.8,188.3l-3.9-8.3h-2.7v8.3h-2.8v-18.7h5.9c0.8,0,1.6,0.1,2.4,0.3c0.8,0.1,1.3,0.5,2,0.9
			c0.5,0.4,0.9,0.9,1.3,1.6c0.3,0.7,0.5,1.5,0.5,2.4c0,0.8-0.1,1.5-0.4,2c-0.3,0.5-0.5,1.1-0.9,1.5s-0.8,0.7-1.2,0.9
			c-0.4,0.3-0.9,0.4-1.3,0.4l4.3,8.8h-3.2V188.3z M92.5,174.8c0-0.7-0.1-1.2-0.3-1.6c-0.3-0.4-0.5-0.7-0.8-0.9
			c-0.4-0.3-0.8-0.4-1.2-0.5c-0.4-0.1-0.9-0.1-1.3-0.1h-2.5v6.5H89c1.1,0,2-0.3,2.7-0.8C92.2,176.6,92.5,175.8,92.5,174.8z"/>
		<path class="st9" d="M126.5,178.9c0,1.5-0.1,2.8-0.5,4c-0.4,1.2-0.8,2.3-1.6,3.1c-0.7,0.8-1.5,1.5-2.4,2c-0.9,0.5-2,0.7-3.2,0.7
			c-1.2,0-2.3-0.3-3.2-0.7c-0.9-0.5-1.7-1.2-2.4-2s-1.2-1.9-1.6-3.1c-0.4-1.2-0.5-2.5-0.5-4c0-1.5,0.1-2.8,0.5-4
			c0.4-1.2,0.8-2.3,1.5-3.1c0.7-0.8,1.5-1.5,2.4-2c0.9-0.4,2.1-0.7,3.3-0.7s2.3,0.3,3.2,0.7c0.9,0.4,1.7,1.1,2.4,2
			c0.7,0.8,1.2,1.9,1.6,3.1C126.3,176.1,126.5,177.4,126.5,178.9z M123.5,178.9c0-1.1-0.1-2-0.3-2.9c-0.3-0.9-0.5-1.7-0.9-2.4
			c-0.4-0.7-0.9-1.2-1.5-1.6c-0.5-0.4-1.2-0.5-2-0.5c-0.8,0-1.5,0.1-2.1,0.5c-0.5,0.4-1.1,0.9-1.5,1.6c-0.4,0.7-0.7,1.5-0.9,2.4
			c-0.1,0.9-0.3,1.9-0.3,2.9c0,1.1,0.1,2,0.3,2.9c0.1,0.9,0.5,1.7,0.9,2.4c0.4,0.7,0.9,1.2,1.5,1.6c0.5,0.4,1.3,0.5,2.1,0.5
			c0.8,0,1.5-0.1,2-0.5c0.5-0.4,1.1-0.9,1.5-1.6c0.4-0.7,0.7-1.5,0.9-2.4C123.3,181,123.5,180,123.5,178.9z"/>
		<path class="st9" d="M153.1,188.3l-7.3-14.4h-0.1v14.4h-2.7v-18.7h3.5l7.2,14.5h0.1v-14.4h2.7v18.7h-3.3V188.3z"/>
		<path class="st9" d="M183.9,188.3l-1.3-4.4h-6.5l-1.3,4.4h-2.9l5.7-18.7h3.9l5.6,18.7H183.9z M179.5,171.8L179.5,171.8l-3.1,10.1
			h5.7L179.5,171.8z"/>
		<path class="st9" d="M215.4,184.5c-0.3,0.8-0.7,1.6-1.2,2.1c-0.5,0.7-1.2,1.1-2.1,1.5c-0.8,0.4-1.9,0.5-3.2,0.5
			c-1.2,0-2.3-0.1-3.2-0.5c-0.8-0.4-1.5-0.8-2-1.5c-0.5-0.7-0.9-1.3-1.2-2.1c-0.3-0.8-0.4-1.7-0.4-2.7v-12.3h2.9v12
			c0,0.7,0,1.2,0.1,1.9c0.1,0.5,0.3,1.1,0.7,1.6c0.3,0.4,0.7,0.8,1.2,1.1c0.5,0.3,1.2,0.4,1.9,0.4c0.8,0,1.3-0.1,1.9-0.4
			c0.5-0.3,0.9-0.7,1.2-1.1c0.3-0.4,0.5-0.9,0.7-1.6c0.1-0.5,0.1-1.2,0.1-1.9v-12h2.9v12.3C215.7,182.9,215.6,183.7,215.4,184.5z"/>
		<path class="st9" d="M238.4,171.7v16.7h-2.9v-16.7h-4.3v-2h11.5v2H238.4z"/>
		<g>
			<path class="st9" d="M224.3,210.3v2.8h-0.7v-2.8h-1v-0.5h2.8v0.5H224.3z M229,213.1l-0.2-2l-1,2l-0.4,0l-1-2l-0.2,2h-0.7l0.3-3.3
				h0.6l1.2,2.4l1.2-2.4h0.6l0.3,3.3H229z"/>
		</g>
	</g>
</g>
</svg>
