<?xml version="1.0" encoding="UTF-8"?>
<!DOCTYPE svg PUBLIC "-//W3C//DTD SVG 1.1//EN" "http://www.w3.org/Graphics/SVG/1.1/DTD/svg11.dtd">
<!-- Creator: CorelDRAW -->
<svg xmlns="http://www.w3.org/2000/svg" xml:space="preserve" width="46.8367mm" height="27.4332mm" style="shape-rendering:geometricPrecision; text-rendering:geometricPrecision; image-rendering:optimizeQuality; fill-rule:evenodd; clip-rule:evenodd"
viewBox="0 0 30.7667 18.0207"
 xmlns:xlink="http://www.w3.org/1999/xlink">
 <defs>
  <style type="text/css">
   <![CDATA[
    .fil0 {fill:#0D99DA}
    .fil1 {fill:#2B2A29;fill-rule:nonzero}
   ]]>
  </style>
 </defs>
 <g id="Ebene_x0020_1">
  <metadata id="CorelCorpID_0Corel-Layer"/>
  <path class="fil0" d="M14.4641 8.3763c0.232868,-0.0732435 0.538652,-0.0628646 0.604998,-0.0595145 11.5776,0.537864 7.61227,-9.61579 -3.73108,-7.71737 16.3058,-3.95068 18.1327,13.0403 3.9049,9.86554 -2.03229,-0.502654 -1.38348,-1.67081 -1.2253,-1.81703 0,0 0.162252,-0.182616 0.44649,-0.271625zm3.33682 -3.18619c-0.000197068,0 -0.000394136,-0.000197068 -0.000591203,-0.000591203 -0.00229912,-0.00118241 -0.0042698,-0.00216775 -0.00643755,-0.00348153 -0.0336329,-0.0197725 -0.0547848,-0.032122 -0.0583321,-0.0338957 -0.000394136,-0.000394136 -0.000985339,0.000394136 -0.00118241,0.000394136 -9.21706,-5.33686 -11.7109,6.95912 0.591532,7.84737 -8.14724,-1.18536 -8.8601,-8.76846 -1.53161,-6.46546l1.03934 0.372458c0.316688,0.102738 0.513821,0.126452 0.592451,0.132692 0.310053,0.024108 0.623851,-0.0543907 0.714239,-0.303156 0.211979,-0.582138 -1.03677,-1.36601 -1.3394,-1.54633zm-9.56922 8.76886c-0.0913738,-0.159691 -0.205082,-0.31925 -0.319447,-0.501866 -0.342504,-0.548243 -0.570905,-1.07395 -0.753718,-1.73558 -0.274056,-0.914066 -0.342569,-2.01016 -0.205739,-2.99234 0.251721,-1.84948 1.07382,-3.1969 2.30694,-4.38423 1.14148,-1.14214 3.10566,-1.87319 4.77292,-1.89586 1.62147,-0.0229255 3.17443,0.50226 4.43028,1.43899 0.159691,0.114299 0.343095,0.273858 0.479926,0.365626 -0.068711,-0.251327 -0.707999,-0.822429 -0.913475,-1.00524 -0.297572,-0.273858 -0.730924,-0.616362 -1.09694,-0.822298 -1.07297,-0.616362 -2.21491,-0.959063 -3.37932,-1.00452l-0.822298 0c-1.1648,0.0683168 -2.30668,0.411083 -3.3114,1.02745 -2.12393,1.3243 -3.40303,3.4946 -3.49401,5.93811l0 0.547717c0.0226628,0.433943 0.0683168,0.913278 0.182419,1.37047 0.18301,0.91354 0.662542,1.91819 1.18766,2.64892 0.182485,0.228204 0.708196,0.890549 0.936203,1.00465z"/>
  <path class="fil1" d="M29.896 15.9659c0.164026,0 0.301776,0.0142546 0.413317,0.0430265 0.111343,0.0286405 0.201338,0.0736377 0.270114,0.134794 0.0684482,0.0610253 0.116795,0.139721 0.14491,0.235693 0.0283121,0.0961691 0.0423696,0.211519 0.0423696,0.346314l0 1.21269c0,0.0547848 -0.0269983,0.0822429 -0.0809292,0.0822429l-0.359977 0c-0.0539309,0 -0.0809292,-0.0274581 -0.0809292,-0.0822429l0 -1.08545c0,-0.0773819 -0.004861,-0.14294 -0.0146487,-0.196477 -0.00972201,-0.0536024 -0.0282464,-0.0961691 -0.0551133,-0.12724 -0.0269983,-0.0312681 -0.0650324,-0.0536681 -0.113971,-0.0673972 -0.0489385,-0.0137291 -0.113774,-0.0206264 -0.194703,-0.0206264l-0.646711 0 0 1.49719c0,0.0547848 -0.028115,0.0822429 -0.084345,0.0822429l-0.360108 0c-0.0539966,0 -0.0809292,-0.0274581 -0.0809292,-0.0822429l0 -1.49719 -0.624573 0c-0.0783673,0 -0.143268,0.00689737 -0.1949,0.0206264 -0.051369,0.0137291 -0.0922934,0.0361291 -0.123036,0.0673972 -0.0305455,0.031071 -0.0519602,0.0736377 -0.0642441,0.12724 -0.0122182,0.0535367 -0.018393,0.119095 -0.018393,0.196477l0 1.08545c0,0.0547848 -0.0269983,0.0822429 -0.0807978,0.0822429l-0.360108 0c-0.0563614,0 -0.0845421,-0.0274581 -0.0845421,-0.0822429l0 -1.21269c0,-0.134794 0.0146487,-0.250145 0.0442089,-0.346314 0.0294288,-0.095972 0.0776447,-0.174668 0.144976,-0.235693 0.0674629,-0.0611567 0.156866,-0.106154 0.268341,-0.134794 0.111409,-0.0287719 0.250473,-0.0430265 0.417061,-0.0430265l1.87766 0zm-3.88959 1.64309c0.0392165,0 0.0667403,-0.00932787 0.0827028,-0.0281807 0.0158968,-0.0185901 0.0239109,-0.0516318 0.0239109,-0.0990594l0 -0.329432 -1.34486 0c-0.0759368,0 -0.129145,0.0156997 -0.159756,0.0467707 -0.0306769,0.0312024 -0.0459168,0.076725 -0.0459168,0.136699l0 0.0785643c0,0.0673972 0.0152399,0.116598 0.0459168,0.147867 0.0306112,0.0312024 0.0838195,0.0467707 0.159756,0.0467707l1.23824 0zm-0.242525 -1.64309c0.164157,0 0.302499,0.0142546 0.415353,0.0430265 0.112657,0.0286405 0.202586,0.0736377 0.270049,0.134794 0.0673315,0.0610253 0.115547,0.139721 0.145108,0.235693 0.0294288,0.0961691 0.0440775,0.211519 0.0440775,0.346314l0 0.995455c0,0.06004 -0.00433549,0.109241 -0.0129408,0.147867 -0.00847391,0.0387567 -0.023254,0.0693679 -0.0440775,0.0917679 -0.0207578,0.0224 -0.0483473,0.0380998 -0.0825057,0.0467707 -0.0344212,0.00867098 -0.07863,0.0130722 -0.132298,0.0130722l-1.74904 0c-0.107796,0 -0.197922,-0.0106417 -0.270114,-0.0317279 -0.0723239,-0.0212833 -0.130459,-0.0531426 -0.174471,-0.0955122 -0.0440775,-0.0423696 -0.0753456,-0.0973515 -0.0937386,-0.164749 -0.018393,-0.0673315 -0.0275895,-0.14721 -0.0275895,-0.239437l0 -0.179726c0,-0.0772506 0.0091965,-0.146618 0.0275895,-0.207775 0.018393,-0.0610253 0.0496611,-0.112854 0.0937386,-0.155224 0.0440118,-0.0423696 0.102147,-0.0742289 0.174471,-0.0955122 0.0721925,-0.0210863 0.162318,-0.0317279 0.270114,-0.0317279l1.49542 0 0 -0.0711415c0,-0.0599086 -0.00617479,-0.111081 -0.0183273,-0.15345 -0.0123496,-0.0423696 -0.0330417,-0.076725 -0.0624705,-0.102869 -0.0294288,-0.02621 -0.0698934,-0.045654 -0.121394,-0.0580693 -0.051369,-0.0124153 -0.117518,-0.0186557 -0.198316,-0.0186557l-1.53595 0c-0.0438804,0 -0.0661491,-0.0225971 -0.0661491,-0.0673972l0 -0.314389c0,-0.0449314 0.0222687,-0.0673972 0.0661491,-0.0673972l1.58732 0zm-4.21278 0.849625l1.48826 0c0.041647,0 0.0626019,-0.0212833 0.0626019,-0.0636529l0 -0.157194c0,-0.0773819 -0.0160939,-0.132298 -0.0479532,-0.164683 -0.0317279,-0.0323848 -0.0905855,-0.04861 -0.176244,-0.04861l-0.922343 0c-0.159165,0 -0.266567,0.0255531 -0.321483,0.076725 -0.0551133,0.0510405 -0.0828341,0.136568 -0.0828341,0.256319l0 0.101096zm1.4296 -0.849625c0.124678,0 0.22827,0.0106417 0.310382,0.0317936 0.0819802,0.0212176 0.146815,0.05623 0.194769,0.10484 0.0476247,0.0485444 0.081389,0.112197 0.10103,0.190827 0.0195097,0.0785643 0.0292974,0.174077 0.0292974,0.286274l0 0.355576c0,0.0798124 -0.0170792,0.135451 -0.051369,0.166522 -0.0343555,0.0312681 -0.0869726,0.0467707 -0.158048,0.0467707l-1.85566 0 0 0.0899943c0,0.117255 0.0277209,0.201994 0.0828341,0.25448 0.0549162,0.0523543 0.162318,0.0785643 0.321483,0.0785643l1.53214 0c0.0442089,0 0.0661491,0.0224 0.0661491,0.0673315l0 0.314389c0,0.0449971 -0.0219402,0.0673972 -0.0661491,0.0673972l-1.58357 0c-0.166588,0 -0.305652,-0.0137291 -0.417061,-0.0411872 -0.111475,-0.0275238 -0.200878,-0.071667 -0.268209,-0.132824 -0.0674629,-0.0612224 -0.115679,-0.139721 -0.145108,-0.23589 -0.0294288,-0.0960377 -0.0442089,-0.211322 -0.0442089,-0.346117l0 -0.538915c0,-0.134794 0.0147801,-0.250145 0.0442089,-0.346314 0.0294288,-0.095972 0.0776447,-0.174668 0.145108,-0.235693 0.0673315,-0.0611567 0.156735,-0.106154 0.268209,-0.134794 0.111409,-0.0287719 0.250473,-0.0430265 0.417061,-0.0430265l1.07671 0zm-2.35371 0c0.0440775,0 0.0661491,0.0224657 0.0661491,0.0673972l0 0.314389c0,0.0448001 -0.0220716,0.0673972 -0.0661491,0.0673972l-0.977325 0c-0.0783673,0 -0.143203,0.00689737 -0.1949,0.0204294 -0.051369,0.0137291 -0.0922934,0.0363262 -0.12297,0.0673972 -0.0306112,0.0312681 -0.0519602,0.0736377 -0.0643098,0.12724 -0.0122182,0.0536681 -0.018393,0.119292 -0.018393,0.196608l0 1.11166c0,0.0547848 -0.0269326,0.0822429 -0.0807978,0.0822429l-0.360043 0c-0.0564271,0 -0.0845421,-0.0274581 -0.0845421,-0.0822429l0 -1.21269c0,-0.134794 0.0146487,-0.250145 0.0442089,-0.346314 0.0294288,-0.095972 0.0776447,-0.174668 0.14491,-0.235693 0.0674629,-0.0611567 0.156866,-0.106154 0.268406,-0.134794 0.111343,-0.0287719 0.250407,-0.0430265 0.417061,-0.0430265l1.02869 0zm-3.56969 0l0 -0.494115c0,-0.0547848 0.0268669,-0.0822429 0.0807978,-0.0822429l0.363721 0c0.0539309,0 0.0809292,0.0274581 0.0809292,0.0822429l0 0.494115 0.642966 0c0.0442089,0 0.0661491,0.0224657 0.0661491,0.0673972l0 0.3069c0,0.0449314 -0.0219402,0.0673972 -0.0661491,0.0673972l-0.642966 0 0 0.868215c0,0.10484 0.0208235,0.181499 0.0625362,0.230307 0.0415156,0.0485444 0.123561,0.0729151 0.246138,0.0729151l0.356364 0c0.0440775,0 0.0661491,0.0224 0.0661491,0.0673972l0 0.306834c0,0.0449971 -0.0220716,0.0673972 -0.0661491,0.0673972l-0.444453 0c-0.147144,0 -0.268406,-0.0137291 -0.363984,-0.0411872 -0.0954465,-0.0275238 -0.171909,-0.0710101 -0.229584,-0.13105 -0.0574124,-0.0598429 -0.0973515,-0.137225 -0.119292,-0.231949 -0.0222687,-0.0948553 -0.0331731,-0.208366 -0.0331731,-0.340664l0 -0.868215 -0.349007 0c-0.0442089,0 -0.0661491,-0.0224657 -0.0661491,-0.0673972l0 -0.3069c0,-0.0449314 0.0219402,-0.0673972 0.0661491,-0.0673972l0.349007 0zm-0.917745 -0.368845c0.0499238,0 0.0747544,0.0253561 0.0747544,0.0762652l0 0.328906c0,0.0507121 -0.0248305,0.0760682 -0.0747544,0.0760682l-1.70299 0c-0.0656893,0 -0.112066,0.017342 -0.139196,0.0520259 -0.027261,0.0344869 -0.0407273,0.0819145 -0.0407273,0.141954l0 0.117649c0,0.129342 0.0586605,0.19398 0.176638,0.19398l1.27457 0c0.197199,0 0.345591,0.051369 0.445307,0.154041 0.099782,0.102738 0.149574,0.249816 0.149574,0.4413l0 0.277143c0,0.168427 -0.0486757,0.304535 -0.146224,0.40839 -0.0974829,0.103855 -0.249159,0.155881 -0.455424,0.155881l-1.88305 0c-0.052223,0 -0.0782359,-0.0253561 -0.0782359,-0.0761995l0 -0.328972c0,-0.0507121 0.0260129,-0.0760682 0.0782359,-0.0760682l1.78445 0c0.0657549,0 0.112132,-0.0172763 0.139393,-0.0519602 0.027261,-0.0345525 0.0408587,-0.0819802 0.0408587,-0.14202l0 -0.141823c0,-0.129342 -0.0589889,-0.19398 -0.17677,-0.19398l-1.2747 0c-0.197068,0 -0.345591,-0.051369 -0.445373,-0.154041 -0.0995849,-0.102738 -0.149377,-0.249816 -0.149377,-0.4413l0 -0.252904c0,-0.168493 0.0486757,-0.304535 0.146093,-0.408456 0.0974172,-0.103855 0.249159,-0.155881 0.455489,-0.155881l1.80146 0zm-5.17533 1.57405c0,0.0798124 0.00617479,0.145896 0.0183273,0.198382 0.0122182,0.0523543 0.0337643,0.094067 0.0643098,0.125335 0.0305455,0.0312024 0.0716013,0.0536024 0.123167,0.0673972 0.051369,0.0137291 0.116336,0.0205607 0.194703,0.0205607l0.936926 0c0.0807978,0 0.146947,-0.00683168 0.198316,-0.0205607 0.0515004,-0.0137947 0.0925562,-0.0361948 0.123102,-0.0673972 0.0307426,-0.0312681 0.0521573,-0.0729808 0.0643098,-0.125335 0.0123496,-0.0524857 0.0185244,-0.118569 0.0185244,-0.198382l0 -0.355576c0,-0.0773819 -0.00617479,-0.142349 -0.0185244,-0.194637 -0.0121525,-0.0523543 -0.0335672,-0.094921 -0.0643098,-0.127306 -0.0305455,-0.0323848 -0.0716013,-0.0547848 -0.123102,-0.0673972 -0.051369,-0.0124153 -0.117518,-0.0185901 -0.198316,-0.0185901l-0.936926 0c-0.0783673,0 -0.143334,0.00617479 -0.194703,0.0185901 -0.0515661,0.0126123 -0.0926218,0.0350124 -0.123167,0.0673972 -0.0305455,0.0323848 -0.0520916,0.0749514 -0.0643098,0.127306 -0.0121525,0.0522886 -0.0183273,0.117255 -0.0183273,0.194637l0 0.355576zm1.3888 -1.2052c0.164157,0 0.302499,0.0142546 0.415287,0.0430265 0.112657,0.0286405 0.202651,0.0736377 0.270114,0.134794 0.0673315,0.0610253 0.115679,0.139721 0.144976,0.235693 0.0295602,0.0961691 0.0442089,0.211519 0.0442089,0.346314l0 0.538915c0,0.134794 -0.0146487,0.250079 -0.0442089,0.346117 -0.0292974,0.0961691 -0.0776447,0.174668 -0.144976,0.23589 -0.0674629,0.0611567 -0.157457,0.1053 -0.270114,0.132824 -0.112788,0.0274581 -0.25113,0.0411872 -0.415287,0.0411872l-1.03966 0c-0.166719,0 -0.305652,-0.0137291 -0.417192,-0.0411872 -0.111475,-0.0275238 -0.200746,-0.071667 -0.268209,-0.132824 -0.0673315,-0.0612224 -0.115679,-0.139721 -0.145108,-0.23589 -0.0294288,-0.0960377 -0.0440775,-0.211322 -0.0440775,-0.346117l0 -0.538915c0,-0.134794 0.0146487,-0.250145 0.0440775,-0.346314 0.0294288,-0.095972 0.0777761,-0.174668 0.145108,-0.235693 0.0674629,-0.0611567 0.156735,-0.106154 0.268209,-0.134794 0.11154,-0.0287719 0.250473,-0.0430265 0.417192,-0.0430265l1.03966 0zm-2.36442 0c0.0438804,0 0.0661491,0.0224657 0.0661491,0.0673972l0 0.314389c0,0.0448001 -0.0222687,0.0673972 -0.0661491,0.0673972l-0.977522 0c-0.0783673,0 -0.143203,0.00689737 -0.194769,0.0204294 -0.051369,0.0137291 -0.0922277,0.0363262 -0.12297,0.0673972 -0.0307426,0.0312681 -0.0520916,0.0736377 -0.0644412,0.12724 -0.0122182,0.0536681 -0.0181959,0.119292 -0.0181959,0.196608l0 1.11166c0,0.0547848 -0.0269983,0.0822429 -0.0807978,0.0822429l-0.36024 0c-0.0562957,0 -0.0844107,-0.0274581 -0.0844107,-0.0822429l0 -1.21269c0,-0.134794 0.0146487,-0.250145 0.0440775,-0.346314 0.0294288,-0.095972 0.0777761,-0.174668 0.145108,-0.235693 0.0673972,-0.0611567 0.156866,-0.106154 0.268209,-0.134794 0.11154,-0.0287719 0.250604,-0.0430265 0.417061,-0.0430265l1.02889 0zm-2.43077 0c0.0440775,0 0.0661491,0.0224657 0.0661491,0.0673972l0 0.314389c0,0.0448001 -0.0220716,0.0673972 -0.0661491,0.0673972l-1.42552 0c-0.0809292,0 -0.147144,0.00689737 -0.198513,0.0204294 -0.051369,0.0137291 -0.0918336,0.0363262 -0.121262,0.0673972 -0.0294288,0.0312681 -0.0502523,0.0736377 -0.0624048,0.12724 -0.0122182,0.0536681 -0.018393,0.119292 -0.018393,0.196608l0 0.333045c0,0.0798124 0.00617479,0.146093 0.018393,0.198447 0.0121525,0.0522886 0.032976,0.0941984 0.0624048,0.125269 0.0294288,0.0312024 0.0698934,0.0536681 0.121262,0.0673972 0.051369,0.0137291 0.117584,0.0206264 0.198513,0.0206264l1.42552 0c0.0440775,0 0.0661491,0.0224 0.0661491,0.0673315l0 0.314389c0,0.0449971 -0.0220716,0.0673972 -0.0661491,0.0673972l-1.47709 0c-0.166588,0 -0.305652,-0.0137291 -0.417061,-0.0411872 -0.111475,-0.0275238 -0.200878,-0.071667 -0.268209,-0.132824 -0.0674629,-0.0612224 -0.115679,-0.139721 -0.145108,-0.23589 -0.0294288,-0.0960377 -0.0442089,-0.211322 -0.0442089,-0.346117l0 -0.538915c0,-0.134794 0.0147801,-0.250145 0.0442089,-0.346314 0.0294288,-0.095972 0.0776447,-0.174668 0.145108,-0.235693 0.0673315,-0.0611567 0.156735,-0.106154 0.268209,-0.134794 0.111409,-0.0287719 0.250473,-0.0430265 0.417061,-0.0430265l1.47709 0zm-2.93401 0c0.0539309,0 0.0809292,0.0286405 0.0809292,0.0860529l0 1.88646c0,0.0547848 -0.0269983,0.0822429 -0.0809292,0.0822429l-0.360108 0c-0.0539309,0 -0.0807978,-0.0274581 -0.0807978,-0.0822429l0 -1.88646c0,-0.0574124 0.0268669,-0.0860529 0.0807978,-0.0860529l0.360108 0zm-3.95088 -0.368845c0.0499238,0 0.093016,0.00348153 0.129014,0.0105103 0.0363262,0.00683168 0.0681854,0.0201009 0.0953151,0.039742 0.0271297,0.0196411 0.0515004,0.0461139 0.0730464,0.0796811 0.0215461,0.0333045 0.0436177,0.0778418 0.0662805,0.133283l0.707145 1.66187c0.00886805,0.0207578 0.0248305,0.031071 0.0474933,0.031071l0.0407273 0c0.0226628,0 0.0386253,-0.0103132 0.0474933,-0.031071l0.707145 -1.66187c0.0225314,-0.0554417 0.0447344,-0.099979 0.0662805,-0.133283 0.0215461,-0.0335672 0.0459168,-0.06004 0.0730464,-0.0796811 0.0271297,-0.0196411 0.0582664,-0.0329103 0.0934101,-0.039742 0.0352094,-0.00702875 0.0775133,-0.0105103 0.127437,-0.0105103l0.363853 0c0.117649,0 0.197068,0.0271954 0.237795,0.0814547 0.040793,0.0541936 0.0611567,0.147078 0.0611567,0.278588l0 1.98736c0,0.0508435 -0.0260129,0.0761995 -0.0781045,0.0761995l-0.346576 0c-0.0499238,0 -0.0748857,-0.0253561 -0.0748857,-0.0761995l0 -1.80731c0,-0.0230569 -0.0091965,-0.0346182 -0.0273267,-0.0346182l-0.0305455 0c-0.0225314,0 -0.0373115,0.00932787 -0.0440775,0.0277866l-0.686715 1.55112c-0.0271297,0.0623391 -0.0547848,0.114825 -0.0832283,0.157523 -0.0282464,0.042698 -0.0588576,0.0778418 -0.0917022,0.105497 -0.032976,0.0277866 -0.0701561,0.0474276 -0.112197,0.0588576 -0.0419097,0.011627 -0.0913081,0.017342 -0.147867,0.017342l-0.163041 0c-0.0566898,0 -0.106022,-0.00571496 -0.147932,-0.017342 -0.0419097,-0.0114299 -0.0793526,-0.031071 -0.112263,-0.0588576 -0.0327132,-0.0276552 -0.0633901,-0.0627989 -0.0917022,-0.105497 -0.0282464,-0.042698 -0.0559672,-0.0951837 -0.0833597,-0.157523l-0.686453 -1.55112c-0.00689737,-0.0184587 -0.0215461,-0.0277866 -0.0443402,-0.0277866l-0.0304141 0c-0.0182616,0 -0.0271297,0.0115613 -0.0271297,0.0346182l0 1.80731c0,0.0508435 -0.0250933,0.0761995 -0.0749514,0.0761995l-0.346576 0c-0.052223,0 -0.0781702,-0.0253561 -0.0781702,-0.0761995l0 -1.98736c0,-0.13151 0.0203637,-0.224394 0.061091,-0.278588 0.040793,-0.0542593 0.121262,-0.0814547 0.241408,-0.0814547l0.370422 0z"/>
 </g>
</svg>
