<?xml version="1.0" encoding="utf-8"?>
<!-- Generator: Adobe Illustrator 25.0.1, SVG Export Plug-In . SVG Version: 6.00 Build 0)  -->
<svg version="1.1" id="Ebene_1" xmlns="http://www.w3.org/2000/svg" xmlns:xlink="http://www.w3.org/1999/xlink" x="0px" y="0px"
	 viewBox="0 0 60 60" style="enable-background:new 0 0 60 60;" xml:space="preserve">
<style type="text/css">
	.st0{fill:#FFFFFF;}
</style>
<circle cx="30" cy="30" r="30"/>
<g>
	<g>
		<path class="st0" d="M34.1,28.8c0-0.4,0-1.7,0-1.9c0.7,0.7,1.5,2.3,2.2,3.2c-0.6,0.8-1.4,2.4-2.2,3.2c0-0.3,0-1.6,0-2
			c-0.2,0-0.4,0-0.5,0c-1.6,0-2.2,0-3.8,0c-0.4,0-0.5-0.1-0.5-0.5c0-0.5,0-1,0-1.5c0-0.3,0.1-0.4,0.4-0.4c1.6,0,2.3,0,3.9,0
			C33.8,28.8,33.9,28.8,34.1,28.8z"/>
		<path class="st0" d="M5.8,30.7c0-0.5,0-0.9,0-1.3c2.3-0.8,2.4-0.9,2.5-3.5c0-1,0.2-2.1,0.5-3c0.4-1.1,1.2-1.8,2.4-1.9
			c0.2,0,0.6,0.2,0.7,0.4c0.1,0.2-0.1,0.7-0.3,0.7c-1.4,0.5-1.5,1.7-1.5,2.9c0,0.5,0,1,0,1.5c0,1.4-0.4,2.6-1.8,3.5
			c1.9,1,1.8,2.7,1.8,4.5c0,1.3,0.2,2.6,1.6,3.3c0.2,0.1,0.3,0.7,0.2,0.8c-0.2,0.2-0.6,0.4-0.9,0.3c-1.2-0.1-2.3-1.3-2.6-2.8
			c-0.2-0.8-0.2-1.7-0.2-2.6C8.2,31.6,7.8,31.1,5.8,30.7z"/>
		<path class="st0" d="M31.6,29.3c0,0.5,0,0.9,0,1.3c-2.3,0.8-2.4,0.9-2.5,3.5c0,1-0.2,2.1-0.5,3c-0.4,1.1-1.2,1.8-2.4,1.9
			c-0.2,0-0.6-0.2-0.7-0.4c-0.1-0.2,0.1-0.7,0.3-0.7c1.4-0.5,1.5-1.7,1.5-2.9c0-0.5,0-1,0-1.5c0-1.4,0.4-2.6,1.8-3.5
			c-1.9-1-1.8-2.7-1.8-4.5c0-1.3-0.2-2.6-1.6-3.3c-0.2-0.1-0.3-0.7-0.2-0.8c0.2-0.2,0.6-0.4,0.9-0.3c1.2,0.1,2.3,1.3,2.6,2.8
			c0.2,0.8,0.2,1.7,0.2,2.6C29.2,28.4,29.6,28.9,31.6,29.3z"/>
		<circle class="st0" cx="15.9" cy="33.5" r="1.8"/>
		<circle class="st0" cx="21.5" cy="33.5" r="1.8"/>
	</g>
	<g>
		<path class="st0" d="M43.7,23.2c-0.1-0.3-0.2-0.5-0.3-0.7c-0.1-0.2-0.3-0.5-0.5-0.6c-0.2-0.2-0.4-0.3-0.7-0.4
			c-0.3-0.1-0.6-0.2-0.9-0.2c-0.3,0-0.7,0.1-0.9,0.2c-0.3,0.1-0.5,0.3-0.7,0.4c-0.2,0.2-0.4,0.4-0.5,0.6c-0.1,0.2-0.2,0.5-0.3,0.7
			c-0.1,0.3-0.1,0.5-0.1,0.8c0,0.3,0,0.5,0,0.7c0,0.3,0,0.7,0.1,1.1c0.1,0.4,0.2,0.8,0.4,1.1c0.2,0.4,0.4,0.7,0.8,0.9
			c0.3,0.2,0.8,0.4,1.3,0.4c0.5,0,1-0.1,1.3-0.4c0.3-0.2,0.6-0.5,0.8-0.9c0.2-0.3,0.3-0.7,0.4-1.1c0.1-0.4,0.1-0.8,0.1-1.1
			c0-0.2,0-0.5,0-0.7C43.8,23.7,43.7,23.4,43.7,23.2z M40.3,24.2c0-0.2,0-0.3,0.1-0.5c0-0.2,0.1-0.3,0.1-0.5
			c0.1-0.1,0.1-0.3,0.2-0.4c0.1-0.1,0.2-0.2,0.3-0.2c0.1-0.1,0.2-0.1,0.4-0.1c0.2,0,0.3,0,0.4,0.1c0.1,0.1,0.2,0.1,0.3,0.2
			c0.1,0.1,0.2,0.2,0.2,0.4c0.1,0.2,0.1,0.3,0.1,0.5c0,0.2,0.1,0.3,0.1,0.5c0,0.2,0,0.3,0,0.5c0,0.2,0,0.4,0,0.7
			c0,0.3-0.1,0.5-0.2,0.7c-0.1,0.2-0.2,0.4-0.3,0.5c-0.1,0.1-0.3,0.2-0.5,0.2c-0.2,0-0.4-0.1-0.5-0.2c-0.1-0.1-0.3-0.3-0.3-0.5
			c-0.1-0.2-0.1-0.5-0.2-0.7c0-0.3,0-0.5,0-0.7C40.2,24.6,40.3,24.4,40.3,24.2z"/>
		<polygon class="st0" points="50.1,23.3 50.1,28.2 51.6,28.2 51.6,21.4 50.4,21.4 48.3,23.1 49.2,24.1 		"/>
		<polygon class="st0" points="39.1,33.6 40,34.6 40.9,33.8 40.9,38.7 42.4,38.7 42.4,31.9 41.2,31.9 		"/>
		<path class="st0" d="M53,34.6c0-0.3-0.1-0.5-0.1-0.8c-0.1-0.3-0.2-0.5-0.3-0.7c-0.1-0.2-0.3-0.5-0.5-0.6c-0.2-0.2-0.4-0.3-0.7-0.4
			c-0.3-0.1-0.6-0.2-0.9-0.2c-0.3,0-0.7,0.1-0.9,0.2c-0.3,0.1-0.5,0.3-0.7,0.4c-0.2,0.2-0.4,0.4-0.5,0.6c-0.1,0.2-0.2,0.5-0.3,0.7
			c-0.1,0.3-0.1,0.5-0.1,0.8c0,0.3,0,0.5,0,0.7c0,0.3,0,0.7,0.1,1.1c0.1,0.4,0.2,0.8,0.4,1.1c0.2,0.4,0.4,0.7,0.8,0.9
			c0.3,0.2,0.8,0.4,1.3,0.4s1-0.1,1.3-0.4c0.3-0.2,0.6-0.5,0.8-0.9c0.2-0.3,0.3-0.7,0.4-1.1C53,36,53,35.7,53,35.3
			C53,35.1,53,34.8,53,34.6z M49.4,34.9c0-0.2,0-0.3,0.1-0.5c0-0.2,0.1-0.3,0.1-0.5c0.1-0.1,0.1-0.3,0.2-0.4
			c0.1-0.1,0.2-0.2,0.3-0.2c0.1-0.1,0.2-0.1,0.4-0.1c0.2,0,0.3,0,0.4,0.1c0.1,0.1,0.2,0.1,0.3,0.2c0.1,0.1,0.2,0.2,0.2,0.4
			c0.1,0.2,0.1,0.3,0.1,0.5c0,0.2,0.1,0.3,0.1,0.5c0,0.2,0,0.3,0,0.5c0,0.2,0,0.4,0,0.7c0,0.3-0.1,0.5-0.2,0.7
			c-0.1,0.2-0.2,0.4-0.3,0.5c-0.1,0.1-0.3,0.2-0.5,0.2s-0.4-0.1-0.5-0.2c-0.2-0.2-0.3-0.3-0.3-0.5c-0.1-0.2-0.1-0.5-0.2-0.7
			c0-0.3,0-0.5,0-0.7C49.4,35.2,49.4,35,49.4,34.9z"/>
	</g>
</g>
</svg>
