<?xml version="1.0" encoding="utf-8"?>
<!-- Generator: Adobe Illustrator 25.0.1, SVG Export Plug-In . SVG Version: 6.00 Build 0)  -->
<svg version="1.1" id="Ebene_1" xmlns="http://www.w3.org/2000/svg" xmlns:xlink="http://www.w3.org/1999/xlink" x="0px" y="0px"
	 viewBox="0 0 60 60" style="enable-background:new 0 0 60 60;" xml:space="preserve">
<style type="text/css">
	.st0{fill:#FFFFFF;}
</style>
<path d="M30.3,0c16.6,0,30,13.4,30,30s-13.4,30-30,30s-30-13.4-30-30S13.7,0,30.3,0"/>
<g>
	<path class="st0" d="M14.3,21.4h24.4c0.1,0,0.2-0.1,0.2-0.2v-7.1c0-0.1-0.1-0.2-0.2-0.2H14.3c-0.1,0-0.2,0.1-0.2,0.2v7.1
		C14.2,21.4,14.2,21.4,14.3,21.4z M14.5,14.3h24.1v6.8H14.5V14.3z"/>
	<path class="st0" d="M47.7,22.2H23.3c-0.1,0-0.2,0.1-0.2,0.2v7.1c0,0.1,0.1,0.2,0.2,0.2h24.4c0.1,0,0.2-0.1,0.2-0.2v-7.1
		C47.8,22.3,47.8,22.2,47.7,22.2z"/>
	<path class="st0" d="M47.7,30.4H23.3c-0.1,0-0.2,0.1-0.2,0.2v7.1c0,0.1,0.1,0.2,0.2,0.2h24.4c0.1,0,0.2-0.1,0.2-0.2v-7.1
		C47.8,30.4,47.8,30.4,47.7,30.4z"/>
	<path class="st0" d="M38.7,38.6H14.3c-0.1,0-0.2,0.1-0.2,0.2v7.1c0,0.1,0.1,0.2,0.2,0.2h24.4c0.1,0,0.2-0.1,0.2-0.2v-7.1
		C38.9,38.6,38.8,38.6,38.7,38.6z M38.5,45.7H14.5v-6.8h24.1V45.7z"/>
</g>
</svg>
