<?xml version="1.0" encoding="utf-8"?>
<!-- Generator: Adobe Illustrator 25.0.1, SVG Export Plug-In . SVG Version: 6.00 Build 0)  -->
<svg version="1.1" id="Ebene_1" xmlns="http://www.w3.org/2000/svg" xmlns:xlink="http://www.w3.org/1999/xlink" x="0px" y="0px"
	 viewBox="0 0 60 60" style="enable-background:new 0 0 60 60;" xml:space="preserve">
<style type="text/css">
	.st0{fill:#FFFFFF;}
</style>
<g>
	<circle id="Oval_1_" cx="30" cy="30" r="30"/>
	<path class="st0" d="M51.2,33.4l-1.9-9.7c-0.1-0.5-0.2-1.1-0.3-1.6c-0.1-0.6-0.3-1.1-0.9-1.4l-13.7,2.7c-0.4,0.5-0.5,0.8-0.3,1.4
		c0.2,1.2,0.5,2.4,0.7,3.7c0.1,0.3,0,0.5-0.3,0.5c-0.2,0-0.4,0-0.5-0.1c-1.2-0.5-2.5,0.1-2.8,1.4c-0.1,0.7,0,1.3,0.3,1.9
		c0.4,0.7,0.9,1.1,1.8,1.1c0.6,0,1.1-0.2,1.5-0.7c0.2-0.2,0.4-0.3,0.7-0.2c0.3,0,0.2,0.3,0.3,0.4c0.2,1.2,0.5,2.4,0.7,3.6
		c0.2,0.9,0.8,1.4,1.7,1.2c1.4-0.2,2.7-0.5,4.1-0.8c0.2,0,0.4-0.2,0.4-0.4c0.2-0.5,0.1-1-0.3-1.3c-0.8-0.7-0.6-1.8,0.1-2.3
		c0.5-0.4,1.1-0.5,1.8-0.5c1.2,0.1,1.8,1.2,1.3,2.2c-0.2,0.4-0.1,0.8,0.1,1.2c0.2,0.3,0.4,0.4,0.7,0.3c0.6-0.1,1.2-0.2,1.8-0.4
		c0.7-0.1,1.5-0.3,2.2-0.5c0.8-0.2,1.2-0.8,1.1-1.5C51.3,33.6,51.2,33.5,51.2,33.4z"/>
	<g>
		<path d="M22.2,22.5c4.1,0,7.5-0.9,7.5-1.9c0-1.1-3.3-1.9-7.5-1.9s-7.5,0.9-7.5,1.9S18.1,22.5,22.2,22.5z"/>
		<path class="st0" d="M27.4,33.3c-0.4-1-0.5-2-0.1-3.1c0.1-0.3,0.2-0.5,0.4-0.8C26,29.8,24.2,30,22.2,30c-5.2,0-9.6-1.1-10.9-2.8
			c-0.1,0-0.1,0.2-0.2,0.3c-0.1,0.2-0.2,0.4-0.2,0.6c0,1.4,0,2.7,0,3.8c0,2.1,5,3.8,11.3,3.8c2.4,0,4.7-0.3,6.5-0.7
			C28.2,34.6,27.7,34.1,27.4,33.3z"/>
		<path class="st0" d="M22.2,37.6c-5.2,0-9.6-1.1-10.9-2.8c-0.3,0.2-0.4,0.6-0.4,0.9c0,1.4,0,2.7,0,3.8c0,2.1,5,3.8,11.3,3.8
			s11.3-1.7,11.3-3.8c0-1.6,0-2.7,0-3.8c0-0.3-0.1-0.6-0.4-0.9C31.8,36.4,27.5,37.6,22.2,37.6z"/>
		<path class="st0" d="M22.2,28.2c6.3,0,11.3-1.7,11.3-3.8c0-0.7,0-1.3,0-1.9c0-0.7,0-1.3,0-1.9c0-2.1-5.1-3.8-11.3-3.8
			s-11.3,1.7-11.3,3.8c0,0.6,0,1.3,0,1.9c0,0.6,0,1.3,0,1.9C10.9,26.5,15.9,28.2,22.2,28.2z M22.2,18.8c4.2,0,7.5,0.8,7.5,1.9
			c0,1-3.4,1.9-7.5,1.9s-7.5-0.9-7.5-1.9S18,18.8,22.2,18.8z"/>
		<path class="st0" d="M33.7,34.6l0,0.5C33.7,34.9,33.8,34.7,33.7,34.6z"/>
	</g>
</g>
</svg>
