<?xml version="1.0" encoding="utf-8"?>
<!-- Generator: Adobe Illustrator 25.0.1, SVG Export Plug-In . SVG Version: 6.00 Build 0)  -->
<svg version="1.1" id="Ebene_1" xmlns="http://www.w3.org/2000/svg" xmlns:xlink="http://www.w3.org/1999/xlink" x="0px" y="0px"
	 viewBox="0 0 60 60" style="enable-background:new 0 0 60 60;" xml:space="preserve">
<style type="text/css">
	.st0{fill:#FFFFFF;}
	.st1{fill:none;stroke:#FFFFFF;stroke-width:2;stroke-linecap:round;stroke-linejoin:round;stroke-miterlimit:10;}
</style>
<g>
	<path d="M30,0c16.6,0,30,13.4,30,30S46.6,60,30,60S0,46.6,0,30S13.4,0,30,0"/>
	<g>
		<g>
			<path class="st0" d="M22.2,30.9c-0.2,0-0.4-0.2-0.5-0.3l-0.1-0.1c-0.3-0.3-0.6-0.6-0.9-0.9s-0.3-0.5-0.1-0.8
				c0.1-0.1,0.2-0.2,0.4-0.2c0.2,0,0.3,0.1,0.4,0.2s0.2,0.2,0.3,0.3l0.1,0.1l0.3,0.3l0.6-0.6c0.4-0.5,0.9-0.9,1.3-1.3
				c0.1-0.1,0.2-0.2,0.3-0.2c0.1,0,0.1,0,0.2,0c0.2,0,0.3,0.1,0.4,0.2c0.1,0.2,0.2,0.4,0,0.6c0,0.1-0.1,0.1-0.2,0.2
				c-0.7,0.7-1.4,1.4-2.1,2.1C22.6,30.7,22.4,30.9,22.2,30.9z"/>
		</g>
		<g>
			<path class="st0" d="M38.3,30.3h-11c-0.2,0-0.4-0.2-0.4-0.4s0.2-0.4,0.4-0.4h11c0.2,0,0.4,0.2,0.4,0.4S38.5,30.3,38.3,30.3z"/>
		</g>
	</g>
	<g>
		<g>
			<path class="st0" d="M22.2,36.3c-0.2,0-0.4-0.2-0.5-0.3l-0.1-0.1c-0.3-0.3-0.6-0.6-0.9-0.9c-0.3-0.3-0.3-0.5-0.1-0.8
				c0.1-0.1,0.2-0.2,0.4-0.2c0.2,0,0.3,0.1,0.4,0.2c0.1,0.1,0.2,0.2,0.3,0.3l0.1,0.1l0.3,0.3l0.6-0.6c0.4-0.5,0.9-0.9,1.3-1.3
				c0.1-0.1,0.2-0.2,0.3-0.2c0.1,0,0.1,0,0.2,0c0.2,0,0.3,0.1,0.4,0.2c0.1,0.2,0.2,0.4,0,0.6c0,0.1-0.1,0.1-0.2,0.2
				c-0.7,0.7-1.4,1.4-2.1,2.1C22.6,36.1,22.4,36.3,22.2,36.3z"/>
		</g>
		<g>
			<path class="st0" d="M38.3,35.7h-11c-0.2,0-0.4-0.2-0.4-0.4s0.2-0.4,0.4-0.4h11c0.2,0,0.4,0.2,0.4,0.4S38.5,35.7,38.3,35.7z"/>
		</g>
	</g>
	<g>
		<g>
			<path class="st0" d="M22.2,41.6c-0.2,0-0.4-0.2-0.5-0.3l-0.1-0.1c-0.3-0.3-0.6-0.6-0.9-0.9c-0.3-0.3-0.3-0.5-0.1-0.8
				c0.1-0.1,0.2-0.2,0.4-0.2c0.2,0,0.3,0.1,0.4,0.2c0.1,0.1,0.2,0.2,0.3,0.3l0.1,0.1l0.3,0.3l0.6-0.6c0.4-0.5,0.9-0.9,1.3-1.3
				c0.1-0.1,0.2-0.2,0.3-0.2c0.1,0,0.1,0,0.2,0c0.2,0,0.3,0.1,0.4,0.2c0.1,0.2,0.2,0.4,0,0.6c0,0.1-0.1,0.1-0.2,0.2
				c-0.7,0.7-1.4,1.4-2.1,2.1C22.6,41.4,22.4,41.6,22.2,41.6z"/>
		</g>
		<g>
			<path class="st0" d="M38.3,41h-11c-0.2,0-0.4-0.2-0.4-0.4s0.2-0.4,0.4-0.4h11c0.2,0,0.4,0.2,0.4,0.4S38.5,41,38.3,41z"/>
		</g>
	</g>
	<rect x="18.5" y="19.5" class="st1" width="23.1" height="26.9"/>
	<path class="st0" d="M34.9,17.4h-1.2c-0.6,0-1.1-0.5-1.1-1.1v0c0-1.4-1.2-2.6-2.6-2.6H30c-1.4,0-2.6,1.2-2.6,2.6v0
		c0,0.6-0.5,1.1-1.1,1.1h-1.2c-1.2,0-2.2,1-2.2,2.2v0c0,1.2,1,2.2,2.2,2.2h9.9c1.2,0,2.2-1,2.2-2.2v0C37.2,18.4,36.2,17.4,34.9,17.4
		z M30,17.4c-0.6,0-1.1-0.5-1.1-1.1c0-0.6,0.5-1.1,1.1-1.1c0.6,0,1.1,0.5,1.1,1.1C31.1,16.8,30.6,17.4,30,17.4z"/>
</g>
</svg>
