<?xml version="1.0" encoding="utf-8"?>
<!-- Generator: Adobe Illustrator 25.0.1, SVG Export Plug-In . SVG Version: 6.00 Build 0)  -->
<svg version="1.1" id="Ebene_1" xmlns="http://www.w3.org/2000/svg" xmlns:xlink="http://www.w3.org/1999/xlink" x="0px" y="0px"
	 viewBox="0 0 60 60" style="enable-background:new 0 0 60 60;" xml:space="preserve">
<style type="text/css">
	.st0{fill:#FFFFFF;}
</style>
<path class="st0" d="M30,0c16.6,0,30,13.4,30,30S46.6,60,30,60S0,46.6,0,30S13.4,0,30,0"/>
<g>
	<path d="M47.1,43H12.9c-0.1,0-0.1,0-0.2-0.1c-0.8-0.1-1.4-0.6-1.6-1.4c-0.2-0.4-0.1-0.8,0.2-1.1c0.9-1.1,1.9-2.2,2.8-3.3
		c0.3-0.3,0.4-0.7,0.4-1.1c0-4.4,0-8.8,0-13.2c0-1.4,0-2.8,0-4.3c0-0.8,0.4-1.4,1.1-1.6c0.3-0.1,0.6-0.1,0.8-0.1c3.2,0,6.4,0,9.5,0
		c4,0,8.1,0,12.1,0c1.9,0,3.8,0,5.7,0c1.1,0,1.7,0.6,1.7,1.7c0,0.6,0,1.2,0,1.8c0,2.2,0,4.5,0,6.7c0,2.9,0,5.9,0,8.8
		c0,0.4,0.1,0.8,0.4,1.1c1,1.1,1.9,2.3,2.9,3.4c0.2,0.2,0.3,0.5,0.2,0.8c-0.2,0.7-0.7,1.3-1.5,1.6L47.1,43z M30,35.4h11.6
		c0.2,0,0.5,0,0.7,0c0.6,0,1.1-0.5,1.1-1.1c0-0.2,0-0.3,0-0.5c0-2,0-4.1,0-6.1c0-2.7,0-5.4,0-8c0.1-0.7-0.5-1.4-1.2-1.4
		c-0.1,0-0.1,0-0.2,0c-0.2,0-0.4,0-0.6,0H18.3c-0.3,0-0.5,0-0.8,0.1c-0.5,0-1,0.5-1,1c0,0.2,0,0.4,0,0.6v13.9c0,0.2,0,0.3,0,0.5
		c0,0.7,0.6,1.2,1.3,1.2c0.6,0,1.1,0,1.7,0h5.8L30,35.4z M35.7,40.9c-0.3-0.4-0.5-0.7-0.8-1c-0.1-0.1-0.3-0.2-0.5-0.2
		c-2.9,0-5.9,0-8.8,0c-0.1,0-0.2,0-0.3,0.1c-0.3,0.4-0.7,0.7-1.1,1.2L35.7,40.9z M29.9,41.6L29.9,41.6h-2.7c-0.2,0-0.4,0-0.4,0.3
		s0.2,0.3,0.4,0.4c0.1,0,0.1,0,0.2,0c1.7,0,3.4,0,5.1,0c0.1,0,0.2,0,0.4-0.1c0.1-0.1,0.2-0.2,0.2-0.3c0-0.1-0.1-0.2-0.2-0.3
		s-0.2,0-0.3,0L29.9,41.6z"/>
	<path d="M28.4,26.4c0,0.2-0.1,0.5-0.1,0.7s-0.1,0.3-0.3,0.3c-0.2,0-0.4,0-0.5,0c-0.4,0-0.6,0.4-0.3,0.7c0.5,0.7,0.5,0.6-0.2,1.2
		s-0.5,0.6-1.2,0c-0.4-0.3-0.7-0.2-0.8,0.2c-0.2,0.8-0.2,0.8-1,0.7c-0.8,0-0.7,0-0.8-0.8c0-0.2,0-0.4-0.2-0.5s-0.4,0-0.6,0.1
		c-0.7,0.5-0.6,0.4-1.1-0.2c-0.6-0.7-0.5-0.6,0-1.2c0.2-0.2,0.2-0.5,0-0.7c-0.1-0.1-0.1-0.1-0.2-0.1c-0.2-0.1-0.4-0.1-0.6-0.1
		c-0.2,0-0.2-0.1-0.2-0.3c0-0.3,0-0.6,0.1-0.9c0-0.2,0.1-0.3,0.3-0.3c0,0,0,0,0,0c0.2,0,0.4,0,0.6-0.1c0.2,0,0.4-0.2,0.4-0.4
		c0-0.1,0-0.2-0.1-0.3c-0.1-0.1-0.2-0.3-0.3-0.4c-0.1-0.1-0.1-0.3,0-0.4c0,0,0,0,0.1,0c0.3-0.2,0.5-0.4,0.8-0.7
		c0.1-0.1,0.3-0.1,0.4,0c0,0,0,0,0,0c0.1,0.1,0.2,0.2,0.3,0.3c0.1,0.1,0.2,0.1,0.4,0.1c0.2,0,0.4-0.2,0.4-0.4c0.2-0.8,0.2-0.8,1-0.7
		s0.7,0,0.8,0.8c0,0.6,0.3,0.7,0.8,0.4c0.7-0.4,0.6-0.4,1.1,0.2s0.5,0.6,0,1.2c-0.2,0.2-0.2,0.5,0,0.7c0.1,0.1,0.2,0.1,0.3,0.2
		c0.1,0,0.3,0.1,0.4,0.1c0.3,0,0.4,0.1,0.4,0.4C28.4,26.3,28.4,26.3,28.4,26.4L28.4,26.4z M24.3,27.9c0.9,0,1.6-0.6,1.6-1.5
		c0,0,0-0.1,0-0.1c0-0.9-0.7-1.5-1.6-1.6c-0.9,0-1.6,0.7-1.6,1.6C22.8,27.2,23.5,27.8,24.3,27.9z"/>
	<path d="M39.5,23l0.2,0.2l-0.1-0.1c-0.5,0.6-1.1,1.1-1.6,1.7c-1.1,1.2-2,2.5-2.7,4c-0.1,0.1-0.2,0.3-0.3,0.4
		c-0.2,0.2-0.5,0.4-0.8,0.6c-0.5-0.9-0.6-2-1.6-2.6c0.2-0.3,0.5-0.4,0.8-0.5c0.2-0.1,0.5,0,0.6,0.2l0.7,1.1
		C35.9,25.9,37.6,24.3,39.5,23z"/>
</g>
</svg>
