<?xml version="1.0" encoding="utf-8"?>
<!-- Generator: Adobe Illustrator 25.0.1, SVG Export Plug-In . SVG Version: 6.00 Build 0)  -->
<svg version="1.1" id="Ebene_1" xmlns="http://www.w3.org/2000/svg" xmlns:xlink="http://www.w3.org/1999/xlink" x="0px" y="0px"
	 viewBox="0 0 60 60" style="enable-background:new 0 0 60 60;" xml:space="preserve">
<style type="text/css">
	.st0{fill:#FFFFFF;}
</style>
<path d="M30,0c16.6,0,30,13.4,30,30S46.6,60,30,60S0,46.6,0,30S13.4,0,30,0"/>
<g>
	<g>
		<path class="st0" d="M32.8,30.4c0.2,0,0.3,0,0.4-0.2s0-0.3-0.2-0.4c-0.2,0-0.3,0-0.4,0.2C32.5,30.2,32.6,30.3,32.8,30.4"/>
	</g>
	<g>
		<path class="st0" d="M32.5,29c0.2,0,0.2-0.2,0.2-0.4s-0.2-0.2-0.4-0.2s-0.2,0.2-0.2,0.4C32.2,29,32.3,29.1,32.5,29"/>
	</g>
	<g>
		<path class="st0" d="M31.1,27.6c-0.1,0.1-0.1,0.3,0,0.4s0.3,0.1,0.4,0s0.1-0.3,0-0.4C31.5,27.5,31.3,27.5,31.1,27.6"/>
	</g>
	<g>
		<path class="st0" d="M30,27.2c-0.2,0-0.3,0-0.4,0.2c0,0.2,0,0.3,0.2,0.4c0.2,0,0.3,0,0.4-0.2C30.3,27.4,30.2,27.2,30,27.2"/>
	</g>
	<g>
		<path class="st0" d="M28.6,28.2c0.2,0,0.2-0.2,0.2-0.4c0-0.2-0.2-0.2-0.4-0.2c-0.2,0-0.2,0.2-0.2,0.4
			C28.3,28.1,28.5,28.2,28.6,28.2"/>
	</g>
	<g>
		<path class="st0" d="M27.4,28.7c-0.1,0.1-0.1,0.3,0,0.4s0.3,0.1,0.4,0s0.1-0.3,0-0.4S27.5,28.6,27.4,28.7"/>
	</g>
	<g>
		<path class="st0" d="M27.3,30c-0.2,0-0.3,0-0.4,0.2s0,0.3,0.2,0.4c0.2,0,0.3,0,0.4-0.2C27.6,30.2,27.5,30,27.3,30"/>
	</g>
	<g>
		<path class="st0" d="M27.6,31.3c-0.2,0-0.2,0.2-0.2,0.4c0,0.2,0.2,0.2,0.4,0.2c0.2,0,0.2-0.2,0.2-0.4
			C27.9,31.3,27.7,31.3,27.6,31.3"/>
	</g>
	<g>
		<path class="st0" d="M28.9,32.7c0.1-0.1,0.1-0.3,0-0.4s-0.3-0.1-0.4,0s-0.1,0.3,0,0.4C28.6,32.8,28.8,32.8,28.9,32.7"/>
	</g>
	<g>
		<path class="st0" d="M30,33.1c0.2,0,0.3,0,0.4-0.2c0-0.2,0-0.3-0.2-0.4c-0.2,0-0.3,0-0.4,0.2C29.8,32.9,29.9,33.1,30,33.1"/>
	</g>
	<g>
		<path class="st0" d="M31.4,32.2c-0.2,0-0.2,0.2-0.2,0.4s0.2,0.2,0.4,0.2c0.2,0,0.2-0.2,0.2-0.4C31.7,32.2,31.6,32.1,31.4,32.2"/>
	</g>
	<g>
		<path class="st0" d="M32.7,31.6c0.1-0.1,0.1-0.3,0-0.4s-0.3-0.1-0.4,0c-0.1,0.1-0.1,0.3,0,0.4S32.6,31.7,32.7,31.6"/>
	</g>
	<g>
		<path class="st0" d="M34.3,29.8c-0.2,0-0.4,0-0.4,0.2s0,0.4,0.2,0.4s0.4,0,0.4-0.2C34.6,30.1,34.5,29.9,34.3,29.8"/>
	</g>
	<g>
		<path class="st0" d="M33.7,28.5c0.2,0,0.3-0.2,0.2-0.4c0-0.2-0.2-0.3-0.4-0.2c-0.2,0-0.3,0.2-0.2,0.4
			C33.4,28.4,33.6,28.5,33.7,28.5"/>
	</g>
	<g>
		<path class="st0" d="M31.9,26.9c0.1,0.1,0.4,0.1,0.5,0s0.1-0.3,0-0.5c-0.1-0.1-0.4-0.1-0.5,0C31.7,26.6,31.7,26.8,31.9,26.9"/>
	</g>
	<g>
		<path class="st0" d="M30,26.4c0.2,0,0.4,0,0.4-0.2s0-0.4-0.2-0.4s-0.4,0-0.4,0.2C29.7,26.2,29.7,26.4,30,26.4"/>
	</g>
	<g>
		<path class="st0" d="M27.9,26.3c-0.2,0-0.3,0.2-0.2,0.4c0,0.2,0.2,0.3,0.4,0.2c0.2,0,0.3-0.2,0.2-0.4C28.2,26.4,28,26.3,27.9,26.3
			"/>
	</g>
	<g>
		<path class="st0" d="M26.2,28.4c0.1,0.1,0.4,0.1,0.5,0s0.1-0.3,0-0.5c-0.1-0.1-0.4-0.1-0.5,0C26,28,26,28.2,26.2,28.4"/>
	</g>
	<g>
		<path class="st0" d="M25.8,30.5c0.2,0,0.4,0,0.4-0.2s0-0.4-0.2-0.4s-0.4,0-0.4,0.2C25.5,30.2,25.5,30.4,25.8,30.5"/>
	</g>
	<g>
		<path class="st0" d="M26.3,31.8c-0.2,0-0.3,0.2-0.2,0.4c0,0.2,0.2,0.3,0.4,0.2c0.2,0,0.3-0.2,0.2-0.4
			C26.7,31.9,26.5,31.8,26.3,31.8"/>
	</g>
	<g>
		<path class="st0" d="M28.2,33.4c-0.1-0.1-0.4-0.1-0.5,0s-0.1,0.3,0,0.5c0.1,0.1,0.4,0.1,0.5,0C28.3,33.7,28.3,33.5,28.2,33.4"/>
	</g>
	<g>
		<path class="st0" d="M30.1,33.9c-0.2,0-0.4,0-0.4,0.2s0,0.4,0.2,0.4s0.4,0,0.4-0.2C30.4,34.1,30.3,33.9,30.1,33.9"/>
	</g>
	<g>
		<path class="st0" d="M32.2,34c0.2,0,0.3-0.2,0.2-0.4c0-0.2-0.2-0.3-0.4-0.2c-0.2,0-0.3,0.2-0.2,0.4C31.8,33.9,32,34,32.2,34"/>
	</g>
	<g>
		<path class="st0" d="M33.9,31.9c-0.1-0.1-0.4-0.1-0.5,0s-0.1,0.3,0,0.5c0.1,0.1,0.4,0.1,0.5,0C34,32.3,34,32.1,33.9,31.9"/>
	</g>
	<g>
		<path class="st0" d="M35.5,31.2c0.2,0.1,0.5-0.1,0.5-0.3c0.1-0.2-0.1-0.4-0.3-0.5c-0.2,0-0.5,0.1-0.5,0.3S35.3,31.1,35.5,31.2"/>
	</g>
	<g>
		<path class="st0" d="M35.7,27.9c-0.1-0.2-0.3-0.4-0.5-0.3c-0.2,0-0.4,0.3-0.3,0.5c0,0.2,0.3,0.4,0.5,0.3
			C35.6,28.4,35.7,28.1,35.7,27.9"/>
	</g>
	<g>
		<path class="st0" d="M33.7,25.5c-0.2-0.2-0.4-0.2-0.7,0c-0.2,0.2-0.2,0.4,0,0.6s0.4,0.2,0.7,0C33.9,25.9,33.9,25.6,33.7,25.5"/>
	</g>
	<g>
		<path class="st0" d="M30.6,25.1c0.2,0.1,0.5-0.1,0.5-0.3c0.1-0.2-0.1-0.4-0.3-0.5c-0.2-0.1-0.5,0.1-0.5,0.3
			C30.2,24.9,30.3,25.1,30.6,25.1"/>
	</g>
	<g>
		<path class="st0" d="M27.9,25.6c0.2,0,0.4-0.3,0.3-0.5s-0.3-0.4-0.5-0.3s-0.4,0.3-0.3,0.5C27.4,25.5,27.7,25.6,27.9,25.6"/>
	</g>
	<g>
		<path class="st0" d="M25.8,26.6c-0.2-0.2-0.4-0.2-0.7,0c-0.2,0.2-0.2,0.4,0,0.6s0.4,0.2,0.7,0C26,27.1,26,26.8,25.8,26.6"/>
	</g>
	<g>
		<path class="st0" d="M24.5,29.1c-0.2,0-0.5,0.1-0.5,0.3c0,0.2,0.1,0.4,0.3,0.5c0.2,0.1,0.5-0.1,0.5-0.3
			C24.9,29.4,24.8,29.2,24.5,29.1"/>
	</g>
	<g>
		<path class="st0" d="M24.7,31.9c-0.2,0.1-0.4,0.3-0.3,0.5s0.3,0.4,0.5,0.3c0.2-0.1,0.4-0.3,0.3-0.5C25.2,32,24.9,31.8,24.7,31.9"
			/>
	</g>
	<g>
		<path class="st0" d="M27,34.2c-0.2-0.2-0.4-0.2-0.7,0c-0.2,0.2-0.2,0.4,0,0.6c0.2,0.2,0.4,0.2,0.7,0C27.1,34.7,27.1,34.4,27,34.2"
			/>
	</g>
	<g>
		<path class="st0" d="M29.5,35.2c-0.2-0.1-0.5,0.1-0.5,0.3c-0.1,0.2,0.1,0.4,0.3,0.5c0.2,0.1,0.5-0.1,0.5-0.3
			C29.9,35.5,29.7,35.2,29.5,35.2"/>
	</g>
	<g>
		<path class="st0" d="M32.2,34.7c-0.3,0.1-0.4,0.3-0.4,0.5c0.1,0.2,0.3,0.4,0.5,0.3c0.2-0.1,0.4-0.3,0.3-0.5
			C32.6,34.8,32.4,34.7,32.2,34.7"/>
	</g>
	<g>
		<path class="st0" d="M34.9,33.7c0.2-0.2,0.2-0.4,0-0.6c-0.2-0.2-0.4-0.2-0.7,0c-0.2,0.2-0.2,0.4,0,0.6
			C34.4,33.9,34.7,33.9,34.9,33.7"/>
	</g>
	<g>
		<path class="st0" d="M37.1,31.5c-0.3-0.1-0.6,0.1-0.7,0.4c-0.1,0.3,0.1,0.5,0.4,0.6c0.3,0.1,0.6-0.1,0.7-0.4
			C37.6,31.8,37.4,31.5,37.1,31.5"/>
	</g>
	<g>
		<path class="st0" d="M37.1,28.9c0.3-0.1,0.4-0.4,0.4-0.6c-0.1-0.3-0.4-0.4-0.7-0.4c-0.3,0.1-0.4,0.4-0.4,0.6
			C36.6,28.8,36.9,28.9,37.1,28.9"/>
	</g>
	<g>
		<path class="st0" d="M34.8,25.6c0.2,0.2,0.5,0.2,0.7,0s0.2-0.5,0-0.7s-0.5-0.2-0.7,0S34.6,25.4,34.8,25.6"/>
	</g>
	<g>
		<path class="st0" d="M31.8,23.9c0.3,0.1,0.6-0.1,0.7-0.4c0.1-0.3-0.1-0.5-0.4-0.6c-0.3-0.1-0.6,0.1-0.7,0.4
			C31.3,23.6,31.5,23.9,31.8,23.9"/>
	</g>
	<g>
		<path class="st0" d="M28.3,23.9c0.3-0.1,0.4-0.4,0.4-0.6c-0.1-0.3-0.4-0.4-0.7-0.4c-0.3,0.1-0.4,0.4-0.4,0.6
			C27.7,23.8,28,24,28.3,23.9"/>
	</g>
	<g>
		<path class="st0" d="M24.6,25.6c0.2,0.2,0.5,0.2,0.7,0s0.2-0.5,0-0.7s-0.5-0.2-0.7,0C24.4,25.1,24.4,25.4,24.6,25.6"/>
	</g>
	<g>
		<path class="st0" d="M23.2,27.9c-0.3-0.1-0.6,0.1-0.7,0.4s0.1,0.5,0.4,0.6s0.6-0.1,0.7-0.4S23.5,28,23.2,27.9"/>
	</g>
	<g>
		<path class="st0" d="M22.9,31.5c-0.3,0.1-0.4,0.4-0.4,0.6c0.1,0.3,0.4,0.4,0.7,0.4c0.3-0.1,0.4-0.4,0.4-0.6
			C23.5,31.5,23.2,31.4,22.9,31.5"/>
	</g>
	<g>
		<path class="st0" d="M25.3,34.7c-0.2-0.2-0.5-0.2-0.7,0s-0.2,0.5,0,0.7s0.5,0.2,0.7,0S25.5,34.9,25.3,34.7"/>
	</g>
	<g>
		<path class="st0" d="M31.8,36.4c-0.3,0.1-0.4,0.4-0.4,0.6c0.1,0.3,0.4,0.4,0.7,0.4c0.3-0.1,0.4-0.3,0.4-0.6
			C32.3,36.5,32,36.3,31.8,36.4"/>
	</g>
	<g>
		<path class="st0" d="M35.5,34.7c-0.2-0.2-0.5-0.2-0.7,0s-0.2,0.5,0,0.7s0.5,0.2,0.7,0S35.7,34.9,35.5,34.7"/>
	</g>
	<g>
		<path class="st0" d="M31.6,30.4c-0.1,0.1-0.2,0.2-0.4,0.3c-0.1,0.1-0.2,0.2-0.3,0.2c-0.2,0.1-0.3,0.1-0.5,0
			c-0.1,0-0.2-0.1-0.2-0.3c-0.2,0.1-0.3,0.3-0.6,0.3c0,0.1,0,0.2,0,0.3v0.1c0,0,0,0.1-0.1,0.1c-0.2,0-0.5,0.1-0.5,0.1
			c0.2-0.8,0.4-1.6,0.5-2.4H30c0,0.1-0.3,1.3-0.3,1.3c0,0.1,0.1,0.2,0.2,0.2s0.2-0.1,0.2-0.1l0,0c0.1-0.4,0.2-0.9,0.3-1.3l0,0H31
			c0,0.1-0.2,1-0.3,1.3c0,0,0,0,0,0.1s0,0.1,0.1,0.1s0.1,0,0.2,0c0,0,0.1-0.1,0.2-0.1c0,0,0.1-0.1,0.2-0.1
			C31.5,30.4,31.5,30.4,31.6,30.4"/>
	</g>
</g>
<path class="st0" d="M13.3,42.3c-2.2,0-4.1-0.8-5.5-2.5c-1-1.3-1.7-2.5-1.9-4.2V34c0-0.1,0-0.2,0.1-0.3c-0.1-0.2-0.1-0.4-0.1-0.5
	c0.2-1.4,0.9-2.7,2-3.9c0.9-1,2.2-1.8,3.7-2.2c0.2-0.1,0.4-0.1,0.6-0.1c0.2,0,0.4-0.1,0.6-0.1c0.3,0,0.5-0.2,0.5-0.5
	c0.3-1.2,0.9-2.2,1.9-3.4c1.3-1.6,2.9-2.5,5.1-3c0.9-0.2,1.8-0.2,2.8-0.2c0.5,0,0.6-0.2,0.7-0.4c1.9-2.5,4.2-4.1,7.1-4.7
	c0.6-0.1,1.5-0.2,2.2-0.2c0.5,0,1,0,1.6,0.1c2.2,0.4,4,1.2,5.5,2.4c2,1.7,3.3,3.7,3.9,6.3c0,0.3,0.3,0.5,0.5,0.5
	c2.5,0.7,4.3,2.1,5.7,4.5c0.6,1.2,1,2.4,1.3,3.9c0.2,2.7-0.5,5-2.5,7.1c-1.4,1.5-3,2.4-5.1,2.9h-0.2c-0.5,0.1-0.9,0.2-1.4,0.2H13.3z
	 M13.4,29.5c-0.2,0-0.5,0-0.7,0.1c-1.5,0.2-2.7,0.9-3.6,2.2C8.2,33,8,34.5,8.5,36c0.5,2.2,2.5,3.7,4.8,3.7h29.5
	c1.2-0.2,2.1-0.5,2.8-0.9c1.5-0.8,2.4-2,3-3.7c0.4-1.2,0.3-2.5,0.1-3.5c-0.4-2.1-1.7-3.8-3.6-4.7c-1-0.6-2.1-0.7-3-0.7
	c-0.1,0-0.1,0-0.2,0h-0.1v-0.8c0-0.5,0-0.9-0.1-1.6c-0.6-2.8-2.4-4.8-5.1-6.1c-0.9-0.4-2.1-0.6-3.3-0.6c-0.5,0-1,0-1.6,0.1
	c-1.5,0.2-2.9,0.8-4.2,1.9c-1.3,1-2,2.1-2.5,3.3l-0.1,0.3l0.1,0.1l0,0l0,0c-0.1,0-0.2,0-0.3-0.1c-0.8-0.2-1.6-0.3-2.3-0.3
	c-0.3,0-0.5,0-0.8,0.1c-1.9,0.3-3.5,1.2-4.7,2.6c-0.8,1.2-1.4,2.4-1.6,4.1c0,0.2,0,0.4-0.1,0.6v0.1c-0.1,0-0.3,0-0.4,0
	C14.5,29.6,14,29.5,13.4,29.5z"/>
</svg>
