<?xml version="1.0" encoding="utf-8"?>
<!-- Generator: Adobe Illustrator 24.3.0, SVG Export Plug-In . SVG Version: 6.00 Build 0)  -->
<svg version="1.1" id="Ebene_1" xmlns="http://www.w3.org/2000/svg" xmlns:xlink="http://www.w3.org/1999/xlink" x="0px" y="0px"
	 viewBox="0 0 60 60" style="enable-background:new 0 0 60 60;" xml:space="preserve">
<style type="text/css">
	.st0{fill:#FFFFFF;}
</style>
<path d="M30,0c16.6,0,30,13.4,30,30S46.6,60,30,60S0,46.6,0,30S13.4,0,30,0"/>
<path class="st0" d="M22.1,46.4c-1.3-0.2-2.3-0.9-2.8-2.1c-0.6-1.3-0.8-2.6-0.6-4c0.1-0.8,0.2-1.6,0.4-2.2c0.1-0.3,0.1-0.6,0.2-1
	c0.1-0.3,0.1-0.7,0.2-1c0.1-0.7,0.1-1.4,0.1-2.2c0-0.7-0.6-1.3-0.8-1.4c-0.3-0.3-0.7-0.6-1.1-0.8c-0.3-0.2-0.5-0.3-0.8-0.5l-0.2-0.1
	c-0.2-0.1-0.2-0.1-0.2-0.4v-1.5c0-0.3,0-0.4,0.1-0.5c0.7-0.3,1.6-0.7,2.3-1.6c0.4-0.4,0.6-1,0.6-1.6c0-1.2-0.1-2.4-0.5-4l-0.1-0.5
	c-0.3-1.6-0.5-2.8-0.1-4.2c0.4-1.5,1-2.3,2-2.7c0.3-0.2,0.8-0.5,1.3-0.5h4.6v3.8l-0.1,0c-0.1,0.1-0.3,0.1-0.4,0.1
	c-0.2,0.1-0.4,0.1-0.6,0.1c-0.2,0-0.4,0-0.6,0.1c0,0,0,0,0,0c-0.3,0-0.6,0.1-0.9,0.3c-0.9,0.5-1.3,1.1-1.2,2
	c0.1,0.9,0.2,1.8,0.4,2.7l0.1,0.8c0,0.2,0.1,0.4,0.1,0.5c0,0.2,0,0.3,0.1,0.5c0,0.4,0.1,0.7,0.2,1.2l0,0.2c0.1,1-0.3,2-1.1,2.9
	c-0.2,0.3-0.4,0.5-0.7,0.8L21.6,30l0.1,0.3l0.5,0.5c0.6,0.7,1.6,1.9,1.4,3.5c-0.1,0.9-0.2,1.7-0.4,2.6L23,38.6
	c-0.2,0.6-0.2,1.3-0.2,1.8c0,1.1,1,1.5,1.4,1.6l0.2,0c0.4,0.1,0.7,0.2,1.2,0.2c0.1,0.1,0.3,0.1,0.5,0.1h0.4l0.1,4.1H22.1z"/>
<path class="st0" d="M34.7,40.9v-3.8h0.2C35,37,35.2,37,35.3,37c0.4,0,0.7,0,1-0.2c1-0.2,1.3-0.4,1.2-1.2c-0.1-0.5-0.2-0.8-0.3-1
	c0-0.1-0.1-0.2-0.1-0.2c0-0.1-0.1-0.2-0.1-0.3c-0.1-0.2-0.2-0.3-0.2-0.6c-0.1-0.9,0.2-1.7,1-2.8l0.8-0.8l-0.3-0.3
	c0,0-0.1-0.1-0.1-0.1c-0.1-0.1-0.3-0.3-0.5-0.5c-0.8-0.9-1.1-1.8-1.1-2.7c0-0.3,0.1-0.4,0.2-0.6c0-0.1,0.1-0.1,0.1-0.1
	c0-0.1,0.1-0.2,0.1-0.3c0.1-0.2,0.2-0.4,0.3-0.8c0.1-0.9-0.3-1.4-1.2-1.6l-0.2,0c-0.3-0.1-0.6-0.1-0.9-0.1c-0.1-0.1-0.3-0.1-0.5-0.1
	h-0.2v-3.8h4c0.2,0,0.4,0,0.6,0.1c1.3,0.3,2.9,2.3,2.5,4.8c-0.1,0.4-0.2,0.6-0.3,0.8c0,0.1-0.1,0.2-0.1,0.3l0,0.1
	c-0.1,0.2-0.2,0.5-0.2,1.1c0,0.5,0.1,0.8,0.4,1.1c0.3,0.5,0.8,0.8,1.3,1.1c0.2,0.1,0.3,0.2,0.5,0.3c0.3,0.1,0.4,0.2,0.4,0.6v1.3
	c0,0.1,0,0.2,0.1,0.2c0,0.2-0.2,0.3-0.4,0.5c-0.6,0.3-1.3,0.8-1.8,1.4c-0.3,0.4-0.4,0.6-0.4,1.1c0,0.8,0.1,1,0.3,1.4
	c0.1,0.4,0.2,0.7,0.3,1.2c0.5,2.5-1.2,4.2-2.5,4.5c-0.2,0.1-0.4,0.1-0.7,0.1H34.7z"/>
</svg>
