<?xml version="1.0" encoding="utf-8"?>
<!-- Generator: Adobe Illustrator 25.0.1, SVG Export Plug-In . SVG Version: 6.00 Build 0)  -->
<svg version="1.1" id="Ebene_1" xmlns="http://www.w3.org/2000/svg" xmlns:xlink="http://www.w3.org/1999/xlink" x="0px" y="0px"
	 viewBox="0 0 60 60" style="enable-background:new 0 0 60 60;" xml:space="preserve">
<style type="text/css">
	.st0{fill:#FFFFFF;}
	.st1{fill:none;stroke:#FFFFFF;stroke-linecap:round;stroke-linejoin:round;stroke-miterlimit:10;}
</style>
<circle id="Oval_6_" cx="30" cy="30" r="30"/>
<g>
	<path class="st0" d="M15,45.3c-0.4,0-0.8-0.3-0.8-0.8V15c0-0.4,0.3-0.8,0.8-0.8s0.8,0.3,0.8,0.8v29.6C15.8,45,15.4,45.3,15,45.3z"
		/>
</g>
<g>
	<path class="st0" d="M44.6,45.3H15c-0.4,0-0.7-0.3-0.7-0.7s0.3-0.7,0.7-0.7h29.6c0.4,0,0.7,0.3,0.7,0.7S45,45.3,44.6,45.3z"/>
</g>
<g>
	<g>
		<path class="st0" d="M44.4,18.5c0.1-0.4,0-1-0.6-1.1c-0.4-0.1-1,0-1.2,0.5c-0.1,0.4,0,1,0.6,1.1C43.7,19.3,44.1,19,44.4,18.5
			 M41.1,25.1c-0.3-0.1-0.8-0.3-1-0.4c-0.1,0-0.1-0.2-0.1-0.2c0.2-3,1-5.8,3-8.3c0.2-0.1,0.4-0.2,0.5-0.1c0.6,0.3,1.1,0.4,1.8,0.7
			c0.1,0.1,0.1,0.2,0.2,0.4c0,1.7-0.3,3.4-0.8,4.9c-0.4,1.1-1.2,2.4-1.8,3.3c-0.2,0.1-0.4,0.2-0.6,0.1
			C41.7,25.2,41.5,25.2,41.1,25.1L41.1,25.1z"/>
	</g>
	<g>
		<path class="st0" d="M39.8,21.5c0,0.6-0.3,1.4-0.2,1.9c-0.1,0.5-1.4,2.3-1.8,2.6c0-0.4,0.3-1,0.4-1.4c0.1-0.8,0.4-1.7,0.5-2.5
			c0-0.3,0.1-0.4,0.4-0.5C39.1,21.7,39.5,21.6,39.8,21.5"/>
	</g>
	<g>
		<path d="M44.4,18.5c-0.1,0.4-0.8,0.7-1.1,0.6s-0.7-0.8-0.6-1.1c0.1-0.4,0.8-0.7,1.2-0.5C44.3,17.7,44.5,18,44.4,18.5"/>
	</g>
	<g>
		<path class="st0" d="M45,14.2c-0.6,0.5-1.3,0.7-1.7,1.5l1,0.4l1,0.4C45.4,15.8,45.2,15,45,14.2"/>
	</g>
	<g>
		<path class="st0" d="M44.3,23.1c-0.4,0.6-0.8,1.1-1,1.6c-0.4,0.5-0.3,2.8-0.2,3.3c0.1-0.3,0.4-0.9,0.7-1.3
			c0.4-0.8,0.8-1.5,1.2-2.3c0.1-0.1,0.1-0.4,0-0.6C44.7,23.7,44.6,23.4,44.3,23.1"/>
	</g>
	<g>
		<path class="st0" d="M40.7,27.9c0.1-0.1,0-0.4-0.3-0.4c-0.1-0.1-0.4,0-0.4,0.3l-0.1,1.4L40.7,27.9z"/>
	</g>
	<g>
		<path class="st0" d="M40.3,26.1c0.1-0.1,0-0.4-0.3-0.4c-0.1-0.1-0.4,0-0.4,0.3l0,1.3L40.3,26.1z"/>
	</g>
	<g>
		<path class="st0" d="M41.8,26.9c0.1-0.1,0-0.4-0.3-0.4c-0.1-0.1-0.4,0-0.4,0.3l0,1.5L41.8,26.9z"/>
	</g>
</g>
<path class="st1" d="M39.5,30.2c0,0-3.5,10.5-21.5,11"/>
</svg>
