<svg version="1.0" xmlns="http://www.w3.org/2000/svg"
 width="233pt" height="226pt" viewBox="0 0 233 226"
 preserveAspectRatio="xMidYMid meet">
  <g transform="translate(0,226) scale(0.1,-0.1)"
  fill="#2559a7" stroke="none">
    <path d="M1056 2229 c-393 -35 -745 -268 -916 -609 -118 -235 -148 -525 -79
    -780 44 -167 169 -372 306 -506 310 -302 835 -396 1244 -223 403 171 643 493
    690 926 34 321 -92 647 -348 894 -169 163 -363 258 -604 293 -114 17 -153 18
    -293 5z m306 -831 c251 -150 457 -276 457 -279 1 -4 -59 -42 -131 -86 -73 -44
    -294 -177 -490 -296 l-358 -216 0 596 0 595 33 -21 c17 -11 238 -143 489 -293z"/>
  </g>
</svg>