<?xml version="1.0" encoding="UTF-8"?>
<!-- Generated by Pixelmator Pro 3.6.14 -->
<svg width="710" height="410" viewBox="0 0 710 410" xmlns="http://www.w3.org/2000/svg">
    <path id="Path" fill="#c74634" stroke="none" d="M 306.099152 218.861328 L 352.940704 218.861328 L 328.198303 178.994675 L 282.709106 251 L 262.023804 251 L 317.34848 164.612 C 319.795776 161.114059 323.790955 159.017181 328.066345 158.98671 C 332.341736 158.956238 336.366547 160.995972 338.863647 164.458664 L 394.34201 251 L 373.656708 251 L 363.913422 234.899994 L 316.518616 234.899994 L 306.191345 218.861328 M 521.127686 234.899994 L 521.127686 159.858673 L 503.546753 159.858673 L 503.546753 242.290665 C 503.540344 244.605545 504.484467 246.822037 506.159271 248.423996 C 507.840393 250.140244 510.147186 251.102936 512.552368 251.091995 L 592.465759 251.091995 L 602.885254 234.992004 L 521.035461 234.992004 M 230.458023 221.498657 C 247.517883 221.498657 261.347626 207.700089 261.347626 190.678665 C 261.347626 173.657242 247.517883 159.858673 230.458023 159.858673 L 153.618179 159.858673 L 153.618179 251 L 171.168396 251 L 171.168396 175.989334 L 229.382263 175.989334 C 237.547226 175.989334 244.166245 182.59343 244.166245 190.740005 C 244.166245 198.886566 237.547226 205.490662 229.382263 205.490662 L 179.866669 205.490662 L 232.30217 251 L 257.782257 251 L 222.558884 221.498657 L 230.458023 221.498657 M 45.673592 251 L 98.754547 251 C 123.509552 250.359116 143.243408 230.152206 143.243408 205.444672 C 143.243408 180.737122 123.509552 160.530228 98.754547 159.889343 L 45.673592 159.889343 C 29.079037 159.459717 13.557399 168.047318 5.133325 182.318924 C -3.290748 196.590515 -3.290748 214.298813 5.133325 228.570419 C 13.557399 242.84201 29.079037 251.429626 45.673592 251 M 97.555847 234.961334 L 46.841557 234.961334 C 30.890991 234.448029 18.226778 221.398224 18.226778 205.475327 C 18.226778 189.552444 30.890991 176.50264 46.841557 175.989334 L 97.555847 175.989334 C 108.341248 175.642242 118.459633 181.185104 123.955269 190.450943 C 129.450897 199.716766 129.450897 211.233887 123.955269 220.499725 C 118.459633 229.765564 108.341248 235.308426 97.555847 234.961334 M 431.009949 251 L 485.197418 251 L 495.463196 234.961334 L 432.208649 234.961334 C 421.423248 235.308426 411.304871 229.765564 405.809204 220.499725 C 400.313599 211.233887 400.313599 199.716766 405.809204 190.450943 C 411.304871 181.185104 421.423248 175.642242 432.208649 175.989334 L 483.691315 175.989334 L 494.080078 159.889343 L 431.009949 159.889343 C 414.415375 159.459717 398.893768 168.047318 390.469696 182.318924 C 382.045624 196.590515 382.045624 214.298813 390.469696 228.570419 C 398.893768 242.84201 414.415375 251.429626 431.009949 251 M 645.761902 234.961334 C 632.529175 234.966339 620.904358 226.198471 617.300415 213.494675 L 692.357544 213.494675 L 702.684814 197.425323 L 617.300415 197.425323 C 620.895264 184.715347 632.525696 175.943253 645.761902 175.958664 L 697.27533 175.958664 L 707.571838 159.858673 L 644.563171 159.858673 C 619.808167 160.499557 600.07428 180.706467 600.07428 205.414001 C 600.07428 230.121536 619.808167 250.328445 644.563171 250.96933 L 698.75061 250.96933 L 709.04718 234.930664 L 645.73114 234.930664"/>
</svg>
