<?xml version="1.0" encoding="UTF-8"?>
<!-- Generated by Pixelmator Pro 3.6.15 -->
<svg width="224" height="86" viewBox="0 0 224 86" xmlns="http://www.w3.org/2000/svg">
    <g id="Group">
        <path id="Path" fill="#929292" stroke="none" d="M 74.900002 39.150002 C 74.900002 34.959999 74.139999 30.93 72.629997 27.18 C 72.330002 27.310001 72.089996 27.43 71.93 27.509998 C 71.93 27.509998 71.93 27.509998 71.919998 27.509998 C 71.230003 27.860001 70.849998 28.610001 70.940002 29.369999 C 71.120003 30.93 71.230003 32.75 71.230003 34.389999 C 71.230003 42.060001 68.75 49.41 64.260002 55.100002 C 60.009998 60.48 54.310001 63.93 48.110001 64.919998 C 48.130001 64.919998 48.139999 64.940002 48.16 64.950005 C 51.790001 67.020004 56.23 67.150002 59.970001 65.309998 C 68.730003 61 74.900002 50.900002 74.900002 39.150002 Z"/>
        <path id="path1" fill="#929292" stroke="none" d="M 76.610001 26.400002 C 76.029999 26.380001 75.489998 26.419998 74.980003 26.5 C 76.540001 30.48 77.339996 34.73 77.339996 39.150002 C 77.339996 52.32 70 64.020004 59.279999 68.279999 C 59.82 68.309998 60.369999 68.330002 60.919998 68.330002 C 60.950001 68.330002 60.970001 68.330002 61 68.330002 C 66.160004 68.309998 71.059998 65.950005 74.300003 61.940002 C 78.400002 56.860001 80.919998 50.02 80.919998 42.52 C 80.919998 36.709999 79.43 31.150002 76.610001 26.400002 Z"/>
        <path id="path2" fill="#929292" stroke="none" d="M 86.730003 42.52 C 86.730003 39.010002 86.029999 35.670002 84.760002 32.620003 C 84.18 31.220001 83.360001 29.919998 82.279999 28.860001 C 81.68 28.259998 81.029999 27.759998 80.330002 27.400002 C 80.150002 27.299999 79.959999 27.220001 79.779999 27.139999 C 82.120003 31.799999 83.349998 37.09 83.349998 42.52 C 83.349998 50.139999 80.870003 57.490002 76.459999 63.120003 C 82.690002 58.41 86.720001 50.93 86.720001 42.52 Z"/>
        <path id="path3" fill="#290042" stroke="none" d="M 79.440002 24.540001 C 74.75 19.709999 68.190002 16.709999 60.919998 16.709999 C 46.650002 16.709999 34.959999 28.529999 35.110001 42.790001 C 35.150002 46.280003 35.869999 49.600002 37.16 52.630001 C 36.740002 52.57 36.310001 52.549999 35.880001 52.57 C 34.720001 52.620003 33.09 52.209999 32.349998 52 C 31.629999 51.799999 30.950001 52.389999 31.25 53.080002 C 31.25 53.080002 31.25 53.09 31.25 53.100002 C 33.810001 58.970001 39.5 62.790001 44.919998 62.780003 C 44.919998 62.780003 44.919998 62.780003 44.919998 62.780003 C 44.919998 62.780003 44.919998 62.780003 44.93 62.780003 C 45.290001 62.780003 45.650002 62.760002 46.009998 62.720001 C 58.709999 61.75 68.790001 49.420002 68.790001 34.400002 C 68.790001 33.450001 68.75 32.510002 68.669998 31.57 C 68.629997 31.060001 67.970001 30.869999 67.669998 31.280003 C 67.669998 31.280003 67.669998 31.280003 67.669998 31.280003 C 64.160004 35.93 58.950001 44.100002 52.439999 39.84 C 49.939999 38.209999 48.599998 34.690002 49.349998 31.110001 C 50.709999 24.68 58.200001 20.459999 61.5 21.779999 C 61.759998 21.879997 62.689999 22.25 63 23.099998 C 63.48 24.389999 62.029999 25.459999 61.290001 27.75 C 60.490002 30.23 60.939999 32.850002 61.5 32.970001 C 62.119999 33.100002 63.18 30.799999 65.769997 28.709999 C 67.650002 27.189999 69.07 26.77 69.959999 25.16 C 70.82 23.610001 69.290001 21.940002 69.809998 21.790001 C 70.339996 21.639999 70.82 23.450001 72.370003 24.349998 C 73.669998 25.099998 74.82 24.630001 76.519997 24.560001 C 76.519997 24.560001 77.25 24.529999 78.410004 24.700001 C 78.410004 24.700001 78.739998 24.75 79.269997 24.860001 C 79.459999 24.900002 79.580002 24.669998 79.449997 24.540001 Z M 60.200001 44.440002 C 60.400002 44.220001 60.759998 43.799999 61.369999 43.73 C 61.490002 43.720001 62.110001 43.66 62.52 44.060001 C 63.130001 44.639999 62.959999 45.760002 62.419998 46.41 C 61.919998 47.010002 60.93 47.400002 60.240002 46.950001 C 59.66 46.57 59.630001 45.780003 59.630001 45.709999 C 59.630001 45.09 59.990002 44.670002 60.18 44.440002 Z"/>
    </g>
    <g id="g1">
        <path id="path4" fill="#290042" stroke="none" d="M 101.440002 54.610001 C 100.169998 54.060001 99.18 53.27 98.449997 52.25 C 97.809998 51.350002 97.449997 50.32 97.379997 49.150002 C 97.360001 48.900002 97.580002 48.690002 97.830002 48.690002 L 99.5 48.690002 C 100.489998 48.690002 101.449997 49.190002 101.879997 50.080002 C 102.080002 50.5 102.360001 50.870003 102.720001 51.200001 C 103.43 51.860001 104.43 52.18 105.720001 52.18 C 107.010002 52.18 108.089996 51.860001 108.839996 51.209999 C 109.589996 50.57 109.959999 49.73 109.959999 48.720001 C 109.959999 47.93 109.730003 47.280003 109.269997 46.790001 C 108.800003 46.290001 108.230003 45.91 107.540001 45.639999 C 106.849998 45.370003 105.900002 45.07 104.669998 44.760002 C 103.129997 44.350002 101.879997 43.940002 100.919998 43.52 C 99.959999 43.100002 99.139999 42.450001 98.459999 41.57 C 97.779999 40.690002 97.440002 39.510002 97.440002 38.040001 C 97.440002 36.68 97.779999 35.5 98.459999 34.48 C 99.139999 33.459999 100.089996 32.68 101.309998 32.139999 C 102.529999 31.600002 103.949997 31.330002 105.550003 31.330002 C 107.830002 31.330002 109.709999 31.900002 111.169998 33.040001 C 112.510002 34.09 113.300003 35.490002 113.540001 37.240002 C 113.580002 37.5 113.360001 37.740002 113.099998 37.740002 L 109.699997 37.740002 C 109.480003 37.740002 109.309998 37.580002 109.269997 37.360001 C 109.129997 36.66 108.739998 36.049999 108.099998 35.530003 C 107.349998 34.920002 106.370003 34.610001 105.150002 34.610001 C 104.040001 34.610001 103.139999 34.889999 102.440002 35.459999 C 101.739998 36.030003 101.389999 36.84 101.389999 37.900002 C 101.389999 38.620003 101.610001 39.220001 102.050003 39.68 C 102.489998 40.139999 103.050003 40.510002 103.730003 40.780003 C 104.410004 41.049999 105.330002 41.350002 106.510002 41.66 C 108.07 42.09 109.339996 42.52 110.330002 42.950001 C 111.32 43.380001 112.150002 44.040001 112.839996 44.93 C 113.529999 45.82 113.870003 47.02 113.870003 48.510002 C 113.870003 49.709999 113.550003 50.84 112.900002 51.900002 C 112.25 52.959999 111.32 53.82 110.080002 54.459999 C 108.849998 55.110001 107.389999 55.43 105.720001 55.43 C 104.139999 55.43 102.709999 55.150002 101.449997 54.600002 Z"/>
        <path id="path5" fill="#290042" stroke="none" d="M 121.25 54.310001 C 119.82 53.510002 118.709999 52.380001 117.889999 50.920002 C 117.080002 49.459999 116.669998 47.77 116.669998 45.850002 C 116.669998 43.93 117.089996 42.260002 117.93 40.790001 C 118.769997 39.32 119.910004 38.190002 121.360001 37.400002 C 122.809998 36.610001 124.43 36.209999 126.209999 36.209999 C 127.989998 36.209999 129.610001 36.610001 131.059998 37.400002 C 132.509995 38.190002 133.649994 39.32 134.490005 40.790001 C 135.330002 42.260002 135.75 43.950001 135.75 45.850002 C 135.75 47.75 135.320007 49.43 134.460007 50.900002 C 133.600006 52.370003 132.429993 53.510002 130.949997 54.310001 C 129.470001 55.110001 127.830002 55.510002 126.050003 55.510002 C 124.269997 55.510002 122.690002 55.110001 121.269997 54.310001 Z M 128.839996 51.440002 C 129.710007 50.970001 130.419998 50.25 130.960007 49.299999 C 131.5 48.350002 131.770004 47.200001 131.770004 45.84 C 131.770004 44.48 131.509995 43.330002 130.990005 42.400002 C 130.470001 41.459999 129.779999 40.75 128.919998 40.280003 C 128.059998 39.810001 127.129997 39.57 126.139999 39.57 C 125.150002 39.57 124.220001 39.810001 123.379997 40.280003 C 122.529999 40.75 121.860001 41.459999 121.360001 42.400002 C 120.860001 43.34 120.610001 44.490002 120.610001 45.84 C 120.610001 47.850002 121.120003 49.41 122.150002 50.510002 C 123.18 51.610001 124.470001 52.16 126.029999 52.16 C 127.019997 52.16 127.959999 51.920002 128.830002 51.450001 Z"/>
        <path id="path6" fill="#290042" stroke="none" d="M 160.740005 40.780003 C 161.520004 39.330002 162.580002 38.209999 163.929993 37.400002 C 165.279999 36.59 166.759995 36.200001 168.389999 36.200001 C 169.860001 36.200001 171.139999 36.490002 172.240005 37.07 C 173.339996 37.650002 174.210007 38.370003 174.869995 39.220001 L 174.869995 39.150002 C 174.869995 37.690002 176.059998 36.5 177.520004 36.5 L 178.330002 36.5 C 178.570007 36.5 178.770004 36.700001 178.770004 36.940002 L 178.770004 54.75 C 178.770004 54.990002 178.570007 55.190002 178.330002 55.190002 L 175.309998 55.190002 C 175.070007 55.190002 174.869995 54.990002 174.869995 54.75 L 174.869995 52.41 C 174.210007 53.290001 173.320007 54.030003 172.190002 54.620003 C 171.059998 55.209999 169.770004 55.5 168.320007 55.5 C 166.710007 55.5 165.240005 55.09 163.910004 54.260002 C 162.580002 53.43 161.520004 52.280003 160.740005 50.799999 C 159.960007 49.32 159.570007 47.639999 159.570007 45.760002 C 159.570007 43.880001 159.960007 42.220001 160.740005 40.77 Z M 174.080002 42.48 C 173.550003 41.530003 172.850006 40.810001 171.990005 40.310001 C 171.130005 39.810001 170.199997 39.560001 169.210007 39.560001 C 168.220001 39.560001 167.289993 39.799999 166.429993 40.290001 C 165.570007 40.780003 164.869995 41.490002 164.339996 42.43 C 163.809998 43.370003 163.539993 44.48 163.539993 45.77 C 163.539993 47.060001 163.809998 48.190002 164.339996 49.16 C 164.869995 50.130001 165.570007 50.870003 166.440002 51.380001 C 167.309998 51.889999 168.229996 52.139999 169.199997 52.139999 C 170.169998 52.139999 171.119995 51.889999 171.979996 51.389999 C 172.839996 50.889999 173.529999 50.16 174.070007 49.200001 C 174.600006 48.240002 174.869995 47.110001 174.869995 45.82 C 174.869995 44.530003 174.600006 43.41 174.070007 42.459999 Z"/>
        <path id="path7" fill="#290042" stroke="none" d="M 190.240005 37 C 191.059998 36.530003 192.029999 36.27 193.119995 36.209999 C 193.369995 36.200001 193.580002 36.41 193.580002 36.66 L 193.580002 40.209999 C 193.580002 40.209999 192.600006 40.209999 192.600006 40.209999 C 191.089996 40.209999 189.940002 40.600002 189.160004 41.360001 C 188.380005 42.130001 187.990005 43.459999 187.990005 45.360001 L 187.990005 54.760002 C 187.990005 55 187.789993 55.200001 187.550003 55.200001 L 184.559998 55.200001 C 184.320007 55.200001 184.119995 55 184.119995 54.760002 L 184.119995 36.950001 C 184.119995 36.709999 184.320007 36.510002 184.559998 36.510002 L 185.339996 36.510002 C 186.800003 36.510002 187.990005 37.700001 187.990005 39.16 L 187.990005 39.23 C 188.559998 38.280003 189.309998 37.540001 190.25 37.010002 Z"/>
        <path id="path8" fill="#290042" stroke="none" d="M 155.149994 39.830002 C 154.490005 38.630001 153.580002 37.73 152.419998 37.120003 C 151.259995 36.510002 149.940002 36.200001 148.470001 36.200001 C 148.339996 36.200001 148.220001 36.209999 148.089996 36.220001 C 148.080002 36.220001 148.059998 36.220001 148.050003 36.220001 C 147.990005 36.220001 147.929993 36.23 147.869995 36.240002 C 147.720001 36.25 147.570007 36.27 147.429993 36.290001 C 147.320007 36.299999 147.210007 36.32 147.100006 36.34 C 146.919998 36.370003 146.729996 36.41 146.559998 36.450001 C 146.529999 36.450001 146.5 36.470001 146.470001 36.470001 C 146 36.600002 145.570007 36.780003 145.169998 37 C 144.229996 37.530003 143.479996 38.27 142.910004 39.220001 L 142.910004 39.150002 C 142.910004 37.690002 141.720001 36.5 140.259995 36.5 L 139.479996 36.5 C 139.240005 36.5 139.039993 36.700001 139.039993 36.940002 L 139.039993 54.75 C 139.039993 54.990002 139.240005 55.190002 139.479996 55.190002 L 142.470001 55.190002 C 142.710007 55.190002 142.910004 54.990002 142.910004 54.75 L 142.910004 45.350002 C 142.910004 45.350002 142.910004 45.32 142.910004 45.299999 L 142.910004 44.740002 C 142.910004 43.07 143.330002 41.780003 144.179993 40.889999 C 145.029999 40 146.179993 39.549999 147.630005 39.549999 C 149.080002 39.549999 150.220001 40 151.059998 40.889999 C 151.899994 41.780003 152.320007 43.07 152.320007 44.740002 L 152.320007 54.75 C 152.320007 54.990002 152.520004 55.190002 152.759995 55.190002 L 155.710007 55.190002 C 155.949997 55.190002 156.149994 54.990002 156.149994 54.75 L 156.149994 44.16 C 156.149994 42.459999 155.820007 41.02 155.169998 39.82 Z"/>
    </g>
</svg>
