<?xml version="1.0" encoding="UTF-8" standalone="no"?>
<svg
   xmlns:dc="http://purl.org/dc/elements/1.1/"
   xmlns:cc="http://creativecommons.org/ns#"
   xmlns:rdf="http://www.w3.org/1999/02/22-rdf-syntax-ns#"
   xmlns:svg="http://www.w3.org/2000/svg"
   xmlns="http://www.w3.org/2000/svg"
   viewBox="0 0 670.41269 227.94545"
   height="227.94545"
   width="670.41266"
   xml:space="preserve"
   id="svg2"
   version="1.1"><metadata
     id="metadata8"><rdf:RDF><cc:Work
         rdf:about=""><dc:format>image/svg+xml</dc:format><dc:type
           rdf:resource="http://purl.org/dc/dcmitype/StillImage" /><dc:title></dc:title></cc:Work></rdf:RDF></metadata><defs
     id="defs6" /><g
     transform="matrix(1.3333333,0,0,-1.3333333,-215.24519,315.22013)"
     id="g10"><g
       id="g32"><g
         id="g3764"><path
           d="m 664.2434,227.7 v 6.1557 c -35.6783,0 -71.3566,0 -107.0348,0 V 106.3216 h 44.21 v 6.1557 c 0,3.6581 -2.9835,6.6419 -6.6419,6.6419 h -21.2803 v 47.5954 h 25.5952 v 11.6342 h -25.5952 v 42.7093 c 15.5124,0 31.0247,0 46.537,0 V 112.9635 c 0,-3.655 2.9835,-6.6419 6.6418,-6.6419 h 9.6461 v 114.7365 h 21.2802 c 3.6584,0 6.6419,2.9835 6.6419,6.6419"
           style="fill:#4f4c4d;fill-opacity:1;fill-rule:nonzero;stroke:none"
           id="path34" /><path
           d="m 543.2477,106.3216 v 127.5341 h -9.6461 c -3.6533,0 -6.6418,-2.9886 -6.6418,-6.6418 v -68.021 l -25.5955,74.6628 H 487.4034 V 106.3216 h 9.646 c 3.6584,0 6.6419,2.9835 6.6419,6.6419 v 68.2568 l 25.5952,-74.8987 z"
           style="fill:#4f4c4d;fill-opacity:1;fill-rule:nonzero;stroke:none"
           id="path36" /><path
           d="M 426.6933,106.3216 V 233.8557 H 410.4054 V 106.3216 Z"
           style="fill:#f89c0e;fill-opacity:1;fill-rule:nonzero;stroke:none"
           id="path38" /><path
           d="m 380.1563,191.9996 c 0,-8.564 -3.4931,-13.6508 -9.3073,-13.6508 h -9.307 v 42.7093 h 9.307 c 6.05,0 9.3073,-5.0836 9.3073,-13.651 z m 16.2885,-85.678 v 45.5015 c 0,9.0742 -3.0252,15.8221 -7.9115,20.0106 5.3515,4.1882 7.9115,11.1299 7.9115,20.1659 v 15.4075 c 0,16.4429 -9.311,26.4486 -25.5958,26.4486 H 345.2542 V 106.3216 h 9.6457 c 3.6584,0 6.6421,2.9835 6.6421,6.6419 v 52.5877 h 6.9806 c 7.2131,0 11.6337,-5.1207 11.6337,-13.7281 v -38.8596 c 0,-3.6567 2.9838,-6.6419 6.6419,-6.6419 z"
           style="fill:#f89c0e;fill-opacity:1;fill-rule:nonzero;stroke:none"
           id="path40" /><path
           d="m 335.9469,227.7 v 6.1557 h -44.21 V 106.3216 h 9.646 c 3.6581,0 6.6419,2.9835 6.6419,6.6419 v 53.7511 h 25.5951 v 11.6342 h -25.5951 v 42.7093 h 21.2802 c 3.6581,0 6.6419,2.9835 6.6419,6.6419"
           style="fill:#f89c0e;fill-opacity:1;fill-rule:nonzero;stroke:none"
           id="path42" /><path
           d="m 261.4878,178.3488 h -18.6145 v 31.5403 c 0,8.3766 3.2573,13.7284 9.3073,13.7284 6.0497,0 9.3072,-5.1224 9.3072,-13.7284 z m 16.2882,-72.0272 v 103.5675 c 0,16.5206 -9.3076,26.526 -25.5954,26.526 -16.2879,0 -25.5952,-10.0085 -25.5952,-26.526 V 106.3216 h 9.646 c 3.6581,0 6.6419,2.9835 6.6419,6.6419 v 53.7511 h 18.6145 v -53.7511 c 0,-3.6567 2.9835,-6.6419 6.6419,-6.6419 z"
           style="fill:#f89c0e;fill-opacity:1;fill-rule:nonzero;stroke:none"
           id="path44" /><path
           d="m 212.6245,130.5204 v 22.466 c 0,18.3818 -9.54,23.5009 -19.7782,27.2239 l -5.5845,2.0943 c -5.5811,2.0931 -9.54,5.1188 -9.54,11.6342 v 15.9503 c 0,8.3766 3.2576,13.7284 9.3073,13.7284 6.0497,0 9.3072,-5.1224 9.3072,-13.7284 v -6.2839 c 0,-3.655 2.9835,-6.6418 6.6419,-6.6418 h 9.6463 v 12.9257 c 0,16.5206 -9.3076,26.526 -25.5954,26.526 -16.2879,0 -25.5952,-10.0085 -25.5952,-26.526 v -15.9503 c 0,-17.6808 8.6091,-23.2685 17.4512,-26.526 l 5.8173,-2.0943 c 6.9803,-2.5594 11.6339,-5.5862 11.6339,-13.0303 v -21.7678 c 0,-8.3747 -3.2575,-13.7279 -9.3072,-13.7279 -6.0497,0 -9.3073,5.1188 -9.3073,13.7279 v 13.2645 c 0,3.6583 -2.9852,6.6418 -6.6419,6.6418 h -9.646 v -19.9063 c 0,-16.5186 9.3073,-26.5258 25.5952,-26.5258 16.2878,0 25.5954,10.0055 25.5954,26.5258"
           style="fill:#f89c0e;fill-opacity:1;fill-rule:nonzero;stroke:none"
           id="path46" /><path
           d="m 470.8074,108.6134 c 2.1362,1.844 4.106,4.3115 5.3827,6.8207 1.4406,2.8307 2.236,6.2499 2.261,9.417 0.0292,3.6859 -1.3119,7.4041 -3.2327,10.5157 -1.241,2.0101 -3.3063,3.6153 -5.6579,4.0425 -2.7607,0.502 -5.6985,-0.1023 -7.8579,-1.9483 -3.2004,-2.7354 -4.1457,-7.6563 -2.2539,-11.4032 2.2023,-4.3625 7.0229,-3.3049 8.9354,-10.7467 0.841,-3.2712 0.1732,-6.889 -2.7102,-9.8918 1.9684,0.544 3.4838,2.0747 5.1335,3.1941 z m -30.7125,4.2421 c 1.7317,-2.6632 4.2951,-5.0613 7.0254,-6.6666 3.1773,-1.8683 7.0682,-2.5662 10.7232,-2.4582 2.3612,0.0695 4.7837,1.0557 6.3297,2.8786 1.8176,2.1424 2.761,4.9822 2.2417,7.7791 -0.7708,4.1497 -4.5496,7.418 -8.7486,7.6536 -3.0311,0.1698 -5.2886,-2.3108 -8.8333,-2.715 -5.0726,-0.5783 -10.5319,1.9012 -12.1527,7.643 -1.0092,-3.8869 1.2929,-10.851 3.4146,-14.1145 z m 24.4281,31.2329 c -2.6648,0.9284 -5.7869,1.4001 -8.598,1.2513 -3.172,-0.1679 -6.5305,-1.1886 -9.2858,-2.7502 -3.2068,-1.8179 -5.7566,-4.8385 -7.4908,-8.0575 -1.1202,-2.0801 -1.4777,-4.6709 -0.6721,-6.9214 0.9474,-2.6467 2.933,-4.8818 5.6166,-5.8311 3.9691,-1.4037 8.7035,0.2384 11.0024,3.7502 1.8805,2.8721 0.3234,6.2277 2.7558,10.3604 2.3176,3.9382 6.7728,6.5832 12.0047,5.3495 -1.455,1.4329 -3.5384,1.9797 -5.3328,2.8488"
           style="fill:#4f4c4d;fill-opacity:1;fill-rule:evenodd;stroke:none"
           id="path48" /><path
           d="m 334.76,68.5894 h 0.0774 c 1.2759,-2.513 3.0541,-3.1318 4.9099,-3.1318 5.7991,0 6.6113,6.6113 6.6113,12.7197 0,4.4073 -1.3148,9.936 -6.7658,9.936 -1.8944,0 -3.2865,-0.8507 -4.4847,-2.7837 h -0.0776 v 9.7042 h -3.0541 V 66.0376 h 2.7836 z m 0.0774,7.6549 c 0,3.1314 -0.2707,9.2787 4.2528,9.2787 3.9048,0 4.0978,-5.5287 4.0978,-8.3509 0,-5.7991 -0.8889,-9.1239 -4.0592,-9.1239 -4.3302,0 -4.2914,5.0644 -4.2914,8.1961 z m 26.9082,-10.2067 h 3.0543 v 21.4957 h -3.0543 V 73.7314 c 0,-1.2373 -0.1931,-2.7062 -0.8893,-3.7891 -0.8503,-1.237 -2.2036,-1.8941 -3.6728,-1.8941 -2.1648,0 -2.7448,0.9664 -2.7448,2.7834 v 16.7017 h -3.0543 V 70.9475 c 0,-3.7888 1.9718,-5.4899 5.1806,-5.4899 2.0877,0 4.0595,1.1985 5.1035,3.4022 h 0.0771 z m 20.6841,15.7354 c 0.0771,4.4073 -2.3973,6.3403 -6.6498,6.3403 -3.7117,0 -6.302,-2.3585 -6.302,-6.0699 0,-3.7499 1.9332,-4.8713 5.258,-6.1083 2.2037,-0.9281 5.2965,-1.1985 5.2965,-4.2529 0,-2.6288 -1.6236,-3.634 -4.098,-3.634 -2.861,0 -3.75,1.6237 -3.634,4.2526 h -2.8999 c 0,-1.4692 -0.0771,-2.8996 1.1985,-4.6007 1.1211,-1.6237 3.441,-2.281 5.3354,-2.2425 4.4076,-0.0385 7.2683,2.5132 7.2683,6.6113 0,4.0209 -3.0929,4.7939 -6.1858,6.1857 -2.0877,0.8893 -4.3687,1.2371 -4.3687,4.021 0,2.2422 1.2373,3.2474 3.4021,3.2474 2.5903,0 3.5184,-1.1985 3.4025,-3.75 z m 8.312,-15.7354 v 21.4957 h -3.054 V 66.0376 Z m 0,25.13 v 3.8662 h -3.054 v -3.8662 z m 8.5442,-3.6343 H 396.309 V 66.0376 h 3.0543 v 14.3821 c 0,1.5463 0.1548,2.7837 1.3918,3.9048 0.8121,0.7733 1.8944,1.1985 3.0158,1.1985 2.4744,0 3.2088,-1.5078 3.2088,-3.75 V 66.0376 h 3.0541 v 16.5858 c 0,3.7888 -2.0875,5.4899 -5.2966,5.4899 -2.3196,0 -3.9047,-1.0826 -5.3739,-2.9384 h -0.0774 z M 425.0733,73.19 c 0.1933,-2.4355 -0.6188,-5.1418 -3.557,-5.1418 -4.2913,0 -3.7887,5.5673 -3.8661,8.4665 h 10.4386 c -0.1548,5.0262 0.2321,11.5986 -6.7272,11.5986 -5.6832,0 -6.8817,-6.7658 -6.8817,-11.289 0,-8.6601 2.8996,-11.3667 6.9593,-11.3667 4.5233,0 6.6881,3.5181 6.4948,7.7324 z m -7.4231,5.8379 c 0.1159,2.5515 0.1933,6.4951 3.7502,6.4951 3.5566,0 3.4022,-3.9821 3.5181,-6.4951 z m 27.0244,2.7451 c 0.0773,4.4073 -2.397,6.3403 -6.6498,6.3403 -3.7114,0 -6.3017,-2.3585 -6.3017,-6.0699 0,-3.7499 1.9332,-4.8713 5.2579,-6.1083 2.2037,-0.9281 5.2966,-1.1985 5.2966,-4.2529 0,-2.6288 -1.6237,-3.634 -4.0981,-3.634 -2.861,0 -3.7502,1.6237 -3.6343,4.2526 h -2.8995 c 0,-1.4692 -0.0771,-2.8996 1.1985,-4.6007 1.1211,-1.6237 3.4407,-2.281 5.3353,-2.2425 4.4073,-0.0385 7.2683,2.5132 7.2683,6.6113 0,4.0209 -3.0928,4.7939 -6.186,6.1857 -2.0874,0.8893 -4.3685,1.2371 -4.3685,4.021 0,2.2422 1.2373,3.2474 3.4022,3.2474 2.5903,0 3.5183,-1.1985 3.4021,-3.75 z m 17.1657,0 c 0.0774,4.4073 -2.397,6.3403 -6.6498,6.3403 -3.7114,0 -6.3017,-2.3585 -6.3017,-6.0699 0,-3.7499 1.9332,-4.8713 5.258,-6.1083 2.2037,-0.9281 5.2965,-1.1985 5.2965,-4.2529 0,-2.6288 -1.6236,-3.634 -4.098,-3.634 -2.861,0 -3.7502,1.6237 -3.6343,4.2526 h -2.8996 c 0,-1.4692 -0.0774,-2.8996 1.1985,-4.6007 1.1211,-1.6237 3.4407,-2.281 5.3354,-2.2425 4.4073,-0.0385 7.2683,2.5132 7.2683,6.6113 0,4.0209 -3.0929,4.7939 -6.186,6.1857 -2.0875,0.8893 -4.3685,1.2371 -4.3685,4.021 0,2.2422 1.237,3.2474 3.4021,3.2474 2.5903,0 3.5181,-1.1985 3.4022,-3.75 z M 480.9779,66.0376 V 95.0338 H 477.769 V 66.0376 Z m 4.3302,26.0966 h 7.5002 V 66.0376 h 3.2088 v 26.0966 h 7.5004 v 2.8996 H 485.3081 Z M 528.4157,81.773 c 0.0771,4.4073 -2.3973,6.3403 -6.6498,6.3403 -3.7114,0 -6.3017,-2.3585 -6.3017,-6.0699 0,-3.7499 1.9329,-4.8713 5.2577,-6.1083 2.2036,-0.9281 5.2965,-1.1985 5.2965,-4.2529 0,-2.6288 -1.6237,-3.634 -4.0978,-3.634 -2.861,0 -3.7502,1.6237 -3.6343,4.2526 h -2.8995 c 0,-1.4692 -0.0774,-2.8996 1.1985,-4.6007 1.1211,-1.6237 3.4407,-2.281 5.3353,-2.2425 4.4073,-0.0385 7.2683,2.5132 7.2683,6.6113 0,4.0209 -3.0928,4.7939 -6.186,6.1857 -2.0874,0.8893 -4.3688,1.2371 -4.3688,4.021 0,2.2422 1.2374,3.2474 3.4025,3.2474 2.5903,0 3.518,-1.1985 3.4021,-3.75 z m 14.7302,-8.583 c 0.193,-2.4355 -0.6188,-5.1418 -3.5572,-5.1418 -4.2914,0 -3.7888,5.5673 -3.8659,8.4665 h 10.4383 c -0.1545,5.0262 0.2322,11.5986 -6.7269,11.5986 -5.6832,0 -6.8819,-6.7658 -6.8819,-11.289 0,-8.6601 2.8998,-11.3667 6.9593,-11.3667 4.5232,0 6.6883,3.5181 6.495,7.7324 z m -7.4231,5.8379 c 0.1159,2.5515 0.193,6.4951 3.75,6.4951 3.5569,0 3.4024,-3.9821 3.5183,-6.4951 z m 18.4028,8.5054 h -2.9384 V 66.0376 h 3.0543 v 13.0289 c 0,3.9047 2.3196,6.3791 6.2632,5.6832 v 3.0157 c -3.2088,0.2705 -5.0258,-0.9277 -6.3017,-3.7502 h -0.0774 z m 14.3821,-21.4957 h 3.3248 l 6.4568,21.4957 h -3.1706 l -4.871,-18.9054 h -0.0774 l -4.8714,18.9054 h -3.1702 z m 16.1218,0 v 21.4957 h -3.054 V 66.0376 Z m 0,25.13 v 3.8662 h -3.054 v -3.8662 z m 11.8307,-5.6446 c 2.8995,0 3.5181,-2.397 3.5569,-4.7554 h 2.8607 c 0.0386,3.9821 -2.0491,7.3457 -6.3791,7.3457 -6.5724,0 -7.423,-6.3403 -7.423,-11.5986 0,-5.5672 0.928,-11.0571 7.5004,-11.0571 4.794,0 6.3403,3.9436 6.4562,8.0802 h -2.8993 c -0.1547,-2.6289 -0.464,-5.4896 -3.789,-5.4896 -3.9048,0 -4.0981,4.987 -4.0981,7.8095 0,3.0543 -0.2319,9.6653 4.2143,9.6653 z m 20.336,-12.333 c 0.1931,-2.4355 -0.6188,-5.1418 -3.5569,-5.1418 -4.2916,0 -3.7891,5.5673 -3.8662,8.4665 h 10.4383 c -0.1545,5.0262 0.2322,11.5986 -6.7269,11.5986 -5.6831,0 -6.8816,-6.7658 -6.8816,-11.289 0,-8.6601 2.8995,-11.3667 6.959,-11.3667 4.5235,0 6.6884,3.5181 6.495,7.7324 z m -7.4231,5.8379 c 0.116,2.5515 0.1931,6.4951 3.7503,6.4951 3.5566,0 3.4021,-3.9821 3.518,-6.4951 z m 27.0244,2.7451 c 0.0771,4.4073 -2.3972,6.3403 -6.6498,6.3403 -3.7114,0 -6.3017,-2.3585 -6.3017,-6.0699 0,-3.7499 1.933,-4.8713 5.2577,-6.1083 2.2037,-0.9281 5.2966,-1.1985 5.2966,-4.2529 0,-2.6288 -1.6234,-3.634 -4.0978,-3.634 -2.861,0 -3.7502,1.6237 -3.6343,4.2526 h -2.8996 c 0,-1.4692 -0.0774,-2.8996 1.1985,-4.6007 1.1211,-1.6237 3.4407,-2.281 5.3354,-2.2425 4.4073,-0.0385 7.2683,2.5132 7.2683,6.6113 0,4.0209 -3.0929,4.7939 -6.186,6.1857 -2.0875,0.8893 -4.3688,1.2371 -4.3688,4.021 0,2.2422 1.2373,3.2474 3.4024,3.2474 2.5903,0 3.5181,-1.1985 3.4022,-3.75 z"
           style="fill:#4f4c4d;fill-opacity:1;fill-rule:nonzero;stroke:none"
           id="path50" /></g></g></g></svg>