<?xml version="1.0" encoding="utf-8"?>
<!-- Generator: Adobe Illustrator 24.3.0, SVG Export Plug-In . SVG Version: 6.00 Build 0)  -->
<svg version="1.1" id="Ebene_1" xmlns="http://www.w3.org/2000/svg" xmlns:xlink="http://www.w3.org/1999/xlink" x="0px" y="0px"
	 viewBox="0 0 60 60" style="enable-background:new 0 0 60 60;" xml:space="preserve">
<style type="text/css">
	.st0{fill:#FFFFFF;}
</style>
<circle id="Oval_27_" class="st0" cx="30" cy="30" r="30"/>
<g>
	<path d="M48.6,19.3c-0.3-0.7-0.7-1.2-1.4-1.6c-0.5-0.3-0.9-0.4-1.5-0.4c-2.8,0-5.7,0-8.5,0l-12.8,0c-3.4,0-6.7,0-10.1,0
		c-0.3,0-0.6,0-0.9,0.1c-0.6,0.1-1.1,0.5-1.5,1c-0.5,0.6-0.7,1.3-0.7,2.1c0,3.8,0,16.4,0,16.4c0,0.8,0,1.7,0,2.5
		c0,0.7,0.2,1.4,0.6,1.9c0.6,0.8,1.5,1.2,2.5,1.2c1.6,0,3.2,0,4.8,0l5.8,0c0,0,0.2,0,0.2,0c0,0,0,0,0,0.1l-0.6,2.3
		c0,0-0.5,1.9-0.7,2.4c-0.1,0.3,0,0.6,0.1,0.8c0.2,0.2,0.4,0.3,0.7,0.3h9.8c0.3,0,0.5-0.1,0.7-0.3c0.2-0.2,0.2-0.5,0.1-0.8
		c-0.1-0.4-0.2-0.9-0.4-1.3l-0.7-2.5c-0.1-0.3-0.2-0.6-0.2-0.8c0,0,0-0.1,0-0.1c0,0,0.1,0,0.2,0l11.5,0v-0.1l0.1,0.1
		c0.2,0,0.3,0,0.5,0c0.9-0.2,1.6-0.6,2.1-1.4c0.3-0.5,0.5-1,0.5-1.5c0-1,0-2,0-3l0-16C48.8,20.2,48.8,19.7,48.6,19.3z M13.3,19.4
		c0.3-0.3,0.6-0.4,1-0.4l4.9,0c0,0,19.2,0,26.5,0c0.5,0,0.8,0.1,1,0.3c0.3,0.3,0.5,0.6,0.5,1.1c0,4.1,0,8,0,12.1c0,0,0,1.9,0,1.9
		c0,0,0,0,0,0c-0.8-0.8-1.7-1.6-2.5-2.3c-0.8-0.7-1.6-1.5-2.4-2.3c-0.1-0.1-0.1-0.2-0.1-0.3c0.4-1.4-0.3-2.7-1.6-3.2
		c-0.3-0.1-0.6-0.2-0.9-0.2c-1.1,0-2.1,0.7-2.5,1.7c-0.1,0.4-0.2,0.7-0.2,1c0,0.1,0,0.2-0.1,0.3c-0.9,0.6-1.8,1.3-2.7,2l-2.5,1.8
		c-0.1,0-0.1,0.1-0.1,0.1c0,0-0.1-0.1-0.1-0.1c-0.5-0.4-1.1-0.7-1.8-0.7l-0.1,0c-0.5,0-1,0.2-1.4,0.5c0,0-0.1,0-0.1,0
		c0,0-0.1,0-0.1,0c-0.6-0.4-1.3-0.8-1.9-1.2l-1-0.6c-0.5-0.3-1-0.6-1.5-1c-0.1,0-0.1-0.1-0.1-0.2c0.2-0.7,0.1-1.6-0.3-2.2
		c-0.4-0.6-1.1-1.1-1.8-1.2c-0.1,0-0.3,0-0.4,0c-1.1,0-2,0.6-2.5,1.7c-0.2,0.5-0.2,1.1-0.1,1.6c0,0.1,0,0.1,0,0.1l-5.4,3.4l0-11.3
		l0-0.5c0-0.3,0-0.7,0-1C12.9,20,13,19.7,13.3,19.4z M47.2,39.5c0,0.5-0.2,0.9-0.6,1.1c-0.2,0.2-0.5,0.3-0.8,0.3l-9.5,0
		c0,0-18.7,0-22,0c-0.5,0-0.9-0.2-1.2-0.5c-0.2-0.2-0.3-0.5-0.3-0.8c0-1.2,0-2.8,0-4c0-0.1,0-0.1,0.1-0.2c0.4-0.3,0.8-0.5,1.2-0.7
		c0.4-0.2,0.8-0.4,1.2-0.7l3.8-2.8c0.1-0.1,0.2-0.1,0.2-0.1c0,0,0.1,0,0.2,0.1c0.4,0.3,0.9,0.4,1.4,0.4c0.1,0,0.3,0,0.4,0
		c0.3,0,0.7-0.2,1-0.4c0,0,0.1,0,0.1,0c0,0,0.1,0,0.1,0c1.1,0.7,4.4,2.8,4.4,2.8c0,0,0.1,0,0.1,0.1c0.1,0,0.1,0.1,0.1,0.2
		c-0.2,0.9-0.1,1.7,0.5,2.4c0.4,0.6,1,0.9,1.7,1c0.1,0,0.2,0,0.4,0c0.8,0,1.4-0.3,2-0.9c0.5-0.6,0.7-1.3,0.6-2c0-0.1,0-0.1,0.1-0.2
		c1.3-1,2.6-1.9,4-2.9c0,0,1.1-0.8,1.3-0.9c0,0,0.1,0,0.1,0c0,0,0,0,0.1,0c0.4,0.5,1,0.7,1.7,0.8c0.1,0,0.2,0,0.3,0
		c0.5,0,0.9-0.1,1.4-0.4c0,0,0.1,0,0.1,0c0,0,0,0,0.1,0.1c0.7,0.7,1.3,1.3,2,2c0.7,0.7,1.3,1.3,2,1.8c0.6,0.6,1.3,1.1,2,1.8
		c0.1,0.1,0.1,0.1,0.1,0.2C47.2,37.3,47.2,39.5,47.2,39.5z"/>
	<path d="M30,17.4c5.2,0,10.5,0,15.7,0c0.5,0,1,0.1,1.5,0.4c0.6,0.4,1.1,0.9,1.3,1.6c0.2,0.4,0.2,0.8,0.2,1.2c0,5.2,0,10.5,0,15.7
		c0,1.1,0,2.2,0,3.4c0,0.5-0.2,1-0.5,1.5c-0.5,0.7-1.2,1.2-2,1.3c-0.2,0-0.4,0-0.5,0c-3.8,0-7.7,0-11.5,0c-0.3,0-0.3,0-0.2,0.3
		c0.1,0.4,0.2,0.8,0.3,1.2c0.2,0.7,0.4,1.4,0.6,2.1c0.1,0.4,0.2,0.9,0.4,1.3c0.1,0.5-0.2,1-0.7,1c-3.3,0-6.5,0-9.8,0
		c-0.5,0-0.9-0.5-0.7-1c0.2-0.8,0.4-1.6,0.7-2.4c0.2-0.8,0.4-1.5,0.6-2.3c0-0.2,0-0.2-0.1-0.2c-0.1,0-0.1,0-0.2,0
		c-3.5,0-7.1,0-10.6,0c-1,0-1.8-0.4-2.4-1.2c-0.4-0.5-0.6-1.2-0.6-1.9c0-1.2,0-2.4,0-3.6c0-5.1,0-10.2,0-15.3c0-0.8,0.2-1.4,0.7-2
		c0.4-0.5,0.9-0.8,1.5-1c0.3-0.1,0.6-0.1,0.9-0.1C19.6,17.4,24.8,17.4,30,17.4z M18.4,29.8c0.1-0.1,0.1-0.1,0.1-0.2
		c-0.1-0.5-0.1-1.1,0.1-1.6c0.5-1.1,1.5-1.8,2.8-1.6c1.5,0.2,2.5,1.8,2.1,3.3c0,0.1,0,0.2,0.1,0.3c0.6,0.4,1.3,0.8,1.9,1.2
		c0.8,0.5,1.6,1,2.5,1.6c0.1,0.1,0.2,0.1,0.3,0c0.4-0.3,0.9-0.4,1.3-0.4c0.7,0,1.3,0.2,1.8,0.6c0.2,0.2,0.2,0.2,0.4,0
		c0.8-0.6,1.5-1.1,2.3-1.7c1-0.7,1.9-1.4,2.9-2.1C37,29.1,37,29,37,28.8c0-0.3,0.1-0.6,0.2-0.9c0.5-1.3,2-2,3.3-1.5
		c1.2,0.4,1.9,1.8,1.6,3.1c0,0.2,0,0.3,0.1,0.4c1.6,1.6,3.3,2.9,4.9,4.6c0,0,0.1,0.1,0.2,0.1c0-0.1,0-0.2,0-0.2c0-4.8,0-9.2,0-14
		c0-0.5-0.2-0.8-0.5-1.1c-0.3-0.3-0.7-0.3-1.1-0.3c-10.4,0-20.8,0-31.2,0c-0.1,0-0.1,0-0.2,0c-0.8,0-1.5,0.7-1.5,1.5
		c0,0.5,0,1,0,1.5c0,3.9,0,7.5,0,11.4 M30,41c1,0,2.1,0,3.1,0c4.2,0,8.5,0,12.7,0c0.3,0,0.6-0.1,0.9-0.3c0.4-0.3,0.6-0.7,0.6-1.2
		c0-0.7,0-1.8,0-2.6c0-0.1,0-0.2-0.1-0.3c-1.3-1.3-2.6-2.3-4-3.6c-0.7-0.7-1.3-1.3-2-2c-0.1-0.1-0.2-0.1-0.3,0
		c-0.5,0.3-1,0.4-1.6,0.4c-0.6-0.1-1.2-0.3-1.6-0.8c-0.1-0.1-0.2-0.1-0.3,0c-0.3,0.2-0.6,0.4-0.8,0.6c-1.5,1.1-2.9,2.1-4.4,3.2
		c-0.1,0.1-0.1,0.1-0.1,0.2c0.1,0.7-0.1,1.4-0.6,2c-0.6,0.7-1.4,1-2.2,0.9c-0.7-0.1-1.2-0.4-1.7-0.9c-0.5-0.7-0.7-1.4-0.5-2.3
		c0-0.1,0-0.2-0.1-0.3c0,0-0.1,0-0.1-0.1c-1.5-0.9-2.9-1.8-4.4-2.8c-0.1-0.1-0.2-0.1-0.3,0c-0.3,0.2-0.6,0.3-0.9,0.3
		c-0.6,0.1-1.2,0-1.8-0.3c-0.3-0.2-0.3-0.2-0.5,0c-1.3,0.9-2.5,1.9-3.8,2.8c-0.8,0.6-1.6,0.8-2.3,1.4c-0.1,0.1-0.1,0.1-0.1,0.2
		c0,1.2,0,2.8,0,4c0,0.3,0.1,0.6,0.3,0.8c0.3,0.4,0.7,0.6,1.2,0.6C19.6,41,24.8,41,30,41z"/>
	<path class="st0" d="M12.9,33.4c0,0-0.1,0-0.2,0.1c0-0.1,0-0.2,0-0.3c0-3.9,0-7.5,0-11.4c0-0.5,0-1,0-1.5c0-0.8,0.7-1.5,1.5-1.5
		c0.1,0,0.1,0,0.2,0c10.4,0,20.8,0,31.2,0c0.4,0,0.8,0.1,1.1,0.3c0.4,0.3,0.5,0.7,0.5,1.1c0,4.8,0,9.2,0,14c0,0.1,0,0.1,0,0.2
		c-0.1-0.1-0.1-0.1-0.2-0.1c-1.6-1.6-3.3-2.9-4.9-4.6c-0.1-0.1-0.1-0.2-0.1-0.4c0.4-1.3-0.4-2.6-1.6-3.1c-1.3-0.5-2.8,0.2-3.3,1.5
		c-0.1,0.3-0.2,0.6-0.2,0.9c0,0.2-0.1,0.3-0.2,0.4c-1,0.7-1.9,1.4-2.9,2.1c-0.8,0.6-1.6,1.1-2.3,1.7c-0.2,0.1-0.2,0.1-0.4,0
		c-0.5-0.4-1.1-0.6-1.8-0.6c-0.5,0-0.9,0.2-1.3,0.4c-0.1,0.1-0.2,0.1-0.3,0c-0.8-0.5-1.6-1-2.5-1.6c-0.6-0.4-1.3-0.8-1.9-1.2
		c-0.1-0.1-0.1-0.2-0.1-0.3c0.5-1.5-0.5-3.1-2.1-3.3C20,26.2,19,26.9,18.5,28c-0.2,0.5-0.2,1-0.1,1.6c0,0.1,0,0.2-0.1,0.2
		c-0.8,0.6-1.5,1.1-2.3,1.7"/>
	<path class="st0" d="M19,31.2c0.3-0.2,0.3-0.2,0.5,0c0.5,0.3,1.1,0.4,1.8,0.3c0.3,0,0.6-0.2,0.9-0.3c0.1-0.1,0.2-0.1,0.3,0
		c1.5,0.9,2.9,1.8,4.4,2.8c0,0,0.1,0,0.1,0.1c0.1,0.1,0.1,0.1,0.1,0.3c-0.2,0.8-0.1,1.6,0.5,2.3c0.4,0.5,1,0.9,1.7,0.9
		c0.9,0.1,1.6-0.2,2.2-0.9c0.5-0.6,0.7-1.2,0.6-2c0-0.1,0-0.2,0.1-0.2c1.5-1.1,2.9-2.1,4.4-3.2c0.3-0.2,0.6-0.4,0.8-0.6
		c0.1-0.1,0.2-0.1,0.3,0c0.4,0.5,1,0.7,1.6,0.8c0.6,0.1,1.1-0.1,1.6-0.4c0.1-0.1,0.2-0.1,0.3,0c0.7,0.7,1.3,1.3,2,2
		c1.3,1.3,2.6,2.3,4,3.6c0.1,0.1,0.1,0.2,0.1,0.3c0,0.7,0,1.8,0,2.6c0,0.5-0.2,0.9-0.6,1.2c-0.3,0.2-0.5,0.3-0.9,0.3
		c-4.2,0-8.5,0-12.7,0c-1,0-2.1,0-3.1,0c-5.2,0-10.5,0-15.7,0c-0.5,0-0.9-0.2-1.2-0.6c-0.2-0.2-0.3-0.5-0.3-0.8c0-1.2,0-2.8,0-4
		c0-0.1,0.1-0.2,0.1-0.2"/>
</g>
</svg>
