<?xml version="1.0" encoding="utf-8"?>
<!-- Generator: Adobe Illustrator 24.3.0, SVG Export Plug-In . SVG Version: 6.00 Build 0)  -->
<svg version="1.1" id="Ebene_1" xmlns="http://www.w3.org/2000/svg" xmlns:xlink="http://www.w3.org/1999/xlink" x="0px" y="0px"
	 viewBox="0 0 60 60" style="enable-background:new 0 0 60 60;" xml:space="preserve">
<style type="text/css">
	.st0{fill:#FFFFFF;}
</style>
<g>
	<circle id="Oval_1_" class="st0" cx="30" cy="30" r="30"/>
	<path d="M39.6,28.4v-4.8c0-5.3-4.3-9.7-9.6-9.7c-5.3,0-9.6,4.4-9.6,9.7v4.8h-1.6v17.8h22.5V28.4H39.6z M30,40.7
		c-1.9,0-3.4-1.5-3.4-3.4c0-1.9,1.5-3.4,3.4-3.4c1.9,0,3.4,1.5,3.4,3.4C33.4,39.2,31.9,40.7,30,40.7z M23.6,28.4v-4.8
		c0-3.6,2.9-6.5,6.4-6.5c3.5,0,6.4,2.9,6.4,6.5v4.8H23.6z"/>
</g>
</svg>
