<?xml version="1.0" encoding="utf-8"?>
<!-- Generator: Adobe Illustrator 24.3.0, SVG Export Plug-In . SVG Version: 6.00 Build 0)  -->
<svg version="1.1" id="Ebene_1" xmlns="http://www.w3.org/2000/svg" xmlns:xlink="http://www.w3.org/1999/xlink" x="0px" y="0px"
	 viewBox="0 0 60 60" style="enable-background:new 0 0 60 60;" xml:space="preserve">
<style type="text/css">
	.st0{fill:#FFFFFF;}
</style>
<g>
	<circle id="Oval_4_" class="st0" cx="30" cy="30" r="30"/>
	<g id="Page-1_4_">
		<g id="service-discovery" transform="translate(1.000000, 1.000000)">
			
				<g id="discovery" transform="translate(46.000000, 46.000000) scale(-1, 1) translate(-46.000000, -46.000000) translate(22.000000, 22.000000)">
				<path d="M41,23.2c9,0,16.2-7.3,16.2-16.2C57.2-2,50-9.2,41-9.2C32-9.2,24.8-2,24.8,7C24.8,16,32,23.2,41,23.2z M41-7.5
					C49-7.5,55.5-1,55.5,7S49,21.5,41,21.5C33,21.5,26.5,15,26.5,7S33-7.5,41-7.5z M43.6,4.4L32.3-1.7l6.1,11.3l11.7,6.5L43.6,4.4z
					 M41,5.1c1.1,0,1.9,0.9,1.9,1.9c0,1.1-0.9,1.9-1.9,1.9c-1.1,0-1.9-0.9-1.9-1.9C39.1,5.9,39.9,5.1,41,5.1z"/>
				<path id="Shape_4_" d="M41-8.9C32.3-8.9,25.1-1.7,25.1,7c0,8.7,7.1,15.9,15.9,15.9c8.7,0,15.9-7.1,15.9-15.9
					C56.9-1.7,49.7-8.9,41-8.9L41-8.9z M41,21.8c-8.2,0-14.8-6.7-14.8-14.8c0-8.2,6.7-14.8,14.8-14.8c8.2,0,14.8,6.7,14.8,14.8
					S49.2,21.8,41,21.8L41,21.8z M33.2-0.8l5.5,10.1l10.4,5.8L43.3,4.7L33.2-0.8L33.2-0.8z M41,9.3c-1.3,0-2.3-1-2.3-2.3
					c0-1.3,1-2.3,2.3-2.3c1.3,0,2.3,1,2.3,2.3C43.3,8.3,42.3,9.3,41,9.3L41,9.3z"/>
			</g>
		</g>
	</g>
</g>
</svg>
