<?xml version="1.0" encoding="UTF-8"?>
<!-- Generated by Pixelmator Pro 3.3.11 -->
<svg width="60" height="60" viewBox="0 0 60 60" xmlns="http://www.w3.org/2000/svg">
    <g id="Group">
        <path id="Path" fill="#ffffff" stroke="none" d="M 30 0 C 46.599998 0 60 13.400002 60 30 C 60 46.599998 46.599998 60 30 60 C 13.4 60 0 46.599998 0 30 C 0 13.400002 13.4 0 30 0"/>
        <path id="path1" fill="#000000" stroke="none" d="M 30 17.900002 C 35.5 17.900002 39.299999 22.299999 38.799999 28.6 C 41.599998 28.6 45.799999 29.799999 45.799999 34.5 C 45.799999 37.599998 43.299999 40 40.299999 40 L 19.700001 40 C 16.6 40 14.2 37.5 14.2 34.5 C 14.2 30.1 18.1 28.4 21.200001 28.6 C 20.9 22 24.700001 17.900002 30 17.900002 Z M 30 14.799999 C 23.700001 14.799999 18.5 19.700001 18.200001 26 C 13.5 26.900002 10.3 31.4 11.2 36.099998 C 12 40.200001 15.5 43.200001 19.700001 43.200001 L 40.299999 43.200001 C 45.099998 43.200001 49 39.299999 49 34.5 C 49 30.299999 46 26.700001 41.900002 25.900002 C 41.5 19.700001 36.299999 14.700001 30 14.799999 Z"/>
    </g>
    <path id="Ellipse" fill="#ffffff" fill-rule="evenodd" stroke="none" d="M 50 31.5 C 50 20.730446 40.821838 12 29.5 12 C 18.178162 12 9 20.730446 9 31.5 C 9 42.269554 18.178162 51 29.5 51 C 40.821838 51 50 42.269554 50 31.5 Z"/>
    <path id="Shape" fill="#ffffff" fill-rule="evenodd" stroke="#000000" stroke-width="3" d="M 30 11 L 23.969322 21.981049 L 11.929926 24.474167 L 20.242161 33.753948 L 18.832081 46.275833 L 30 41.029999 L 41.167919 46.275833 L 39.757839 33.753948 L 48.070072 24.474167 L 36.030678 21.981049 Z"/>
</svg>
